<?xml version="1.0" standalone="no"?>
<!DOCTYPE svg PUBLIC "-//W3C//DTD SVG 1.1//EN" "http://www.w3.org/Graphics/SVG/1.1/DTD/svg11.dtd">
<svg width="459mm" height="297mm" viewBox="0 -297 459 297" xmlns="http://www.w3.org/2000/svg" version="1.1">
<title>OpenSCAD Model</title>
<path d="
M 378,-175.5 L 405,-175.5 L 405,-162 L 432,-162 L 432,-175.5 L 445.5,-175.5
 L 445.5,-189 L 459,-189 L 459,-216 L 445.5,-216 L 445.5,-243 L 459,-243
 L 459,-270 L 445.5,-270 L 445.5,-283.5 L 432,-283.5 L 432,-297 L 405,-297
 L 405,-283.5 L 378,-283.5 L 378,-297 L 351,-297 L 351,-283.5 L 337.5,-283.5
 L 337.5,-270 L 324,-270 L 324,-243 L 337.5,-243 L 337.5,-216 L 324,-216
 L 324,-189 L 337.5,-189 L 337.5,-175.5 L 351,-175.5 L 351,-162 L 378,-162
 z
M 216,-175.5 L 243,-175.5 L 243,-162 L 270,-162 L 270,-175.5 L 283.5,-175.5
 L 283.5,-189 L 297,-189 L 297,-216 L 283.5,-216 L 283.5,-243 L 297,-243
 L 297,-270 L 283.5,-270 L 283.5,-283.5 L 270,-283.5 L 270,-297 L 243,-297
 L 243,-283.5 L 216,-283.5 L 216,-297 L 189,-297 L 189,-283.5 L 175.5,-283.5
 L 175.5,-270 L 162,-270 L 162,-243 L 175.5,-243 L 175.5,-216 L 162,-216
 L 162,-189 L 175.5,-189 L 175.5,-175.5 L 189,-175.5 L 189,-162 L 216,-162
 z
M 27,-175.5 L 54,-175.5 L 54,-162 L 81,-162 L 81,-175.5 L 108,-175.5
 L 108,-162 L 135,-162 L 135,-189 L 121.5,-189 L 121.5,-216 L 135,-216
 L 135,-243 L 121.5,-243 L 121.5,-270 L 135,-270 L 135,-297 L 108,-297
 L 108,-283.5 L 81,-283.5 L 81,-297 L 54,-297 L 54,-283.5 L 27,-283.5
 L 27,-297 L 0,-297 L 0,-270 L 13.5,-270 L 13.5,-243 L 0,-243
 L 0,-216 L 13.5,-216 L 13.5,-189 L 0,-189 L 0,-162 L 27,-162
 z
M 351,-13.5 L 378,-13.5 L 378,-0 L 405,-0 L 405,-13.5 L 432,-13.5
 L 432,-0 L 459,-0 L 459,-27 L 445.5,-27 L 445.5,-54 L 459,-54
 L 459,-81 L 445.5,-81 L 445.5,-108 L 459,-108 L 459,-135 L 432,-135
 L 432,-121.5 L 405,-121.5 L 405,-135 L 378,-135 L 378,-121.5 L 351,-121.5
 L 351,-135 L 324,-135 L 324,-108 L 337.5,-108 L 337.5,-81 L 324,-81
 L 324,-54 L 337.5,-54 L 337.5,-27 L 324,-27 L 324,-0 L 351,-0
 z
M 189,-13.5 L 216,-13.5 L 216,-0 L 243,-0 L 243,-13.5 L 270,-13.5
 L 270,-0 L 283.5,-0 L 283.5,-27 L 297,-27 L 297,-54 L 283.5,-54
 L 283.5,-81 L 297,-81 L 297,-108 L 283.5,-108 L 283.5,-135 L 270,-135
 L 270,-121.5 L 243,-121.5 L 243,-135 L 216,-135 L 216,-121.5 L 189,-121.5
 L 189,-135 L 175.5,-135 L 175.5,-108 L 162,-108 L 162,-81 L 175.5,-81
 L 175.5,-54 L 162,-54 L 162,-27 L 175.5,-27 L 175.5,-0 L 189,-0
 z
M 27,-13.5 L 54,-13.5 L 54,-0 L 81,-0 L 81,-13.5 L 108,-13.5
 L 108,-0 L 121.5,-0 L 121.5,-27 L 135,-27 L 135,-54 L 121.5,-54
 L 121.5,-81 L 135,-81 L 135,-108 L 121.5,-108 L 121.5,-135 L 108,-135
 L 108,-121.5 L 81,-121.5 L 81,-135 L 54,-135 L 54,-121.5 L 27,-121.5
 L 27,-135 L 13.5,-135 L 13.5,-108 L 0,-108 L 0,-81 L 13.5,-81
 L 13.5,-54 L 0,-54 L 0,-27 L 13.5,-27 L 13.5,-0 L 27,-0
 z
" stroke="black" fill="lightgray" stroke-width="0.5"/>
</svg>
