<?xml version="1.0" standalone="no"?>
<!DOCTYPE svg PUBLIC "-//W3C//DTD SVG 1.1//EN" "http://www.w3.org/Graphics/SVG/1.1/DTD/svg11.dtd">
<svg width="427mm" height="480mm" viewBox="-156 -240 427 480" xmlns="http://www.w3.org/2000/svg" version="1.1">
<title>OpenSCAD Model</title>
<path d="
M -103.109,238.042 L -95.47,234.641 L 250.94,34.641 L 257.705,29.7258 L 263.301,23.5114 L 267.482,16.2695
 L 270.066,8.31647 L 270.94,-0 L 270.066,-8.31647 L 267.482,-16.2695 L 263.301,-23.5114 L 257.705,-29.7258
 L 250.94,-34.641 L -95.47,-234.641 L -103.109,-238.042 L -111.289,-239.781 L -119.651,-239.781 L -127.831,-238.042
 L -135.47,-234.641 L -142.235,-229.726 L -147.831,-223.511 L -152.012,-216.269 L -154.596,-208.316 L -155.47,-200
 L -155.47,200 L -154.596,208.316 L -152.012,216.269 L -147.831,223.511 L -142.235,229.726 L -135.47,234.641
 L -127.831,238.042 L -119.651,239.781 L -111.289,239.781 z
M -117.383,-195.381 L -119.006,-196.464 L -120.089,-198.087 L -120.47,-200 L -120.089,-201.913 L -119.006,-203.536
 L -117.383,-204.619 L -115.47,-205 L -113.557,-204.619 L -111.935,-203.536 L -110.851,-201.913 L -110.47,-200
 L -110.851,-198.087 L -111.935,-196.464 L -113.557,-195.381 L -115.47,-195 z
M 78.9547,-70.0548 L 76.9098,-70.4894 L 75,-71.3397 L 73.3087,-72.5685 L 71.9098,-74.1221 L 70.8645,-75.9326
 L 70.2185,-77.9209 L 70,-80 L 70.2185,-82.0791 L 70.8645,-84.0674 L 71.9098,-85.8778 L 73.3087,-87.4314
 L 75,-88.6602 L 76.9098,-89.5106 L 78.9547,-89.9452 L 81.0453,-89.9452 L 83.0902,-89.5106 L 85,-88.6602
 L 86.6913,-87.4314 L 88.0902,-85.8778 L 89.1355,-84.0674 L 89.7815,-82.0791 L 90,-80 L 89.7815,-77.9209
 L 89.1355,-75.9326 L 88.0902,-74.1221 L 86.6913,-72.5685 L 85,-71.3397 L 83.0902,-70.4894 L 81.0453,-70.0548
 z
M -81.0453,-70.0548 L -83.0902,-70.4894 L -85,-71.3397 L -86.6913,-72.5685 L -88.0902,-74.1221 L -89.1355,-75.9326
 L -89.7815,-77.9209 L -90,-80 L -89.7815,-82.0791 L -89.1355,-84.0674 L -88.0902,-85.8778 L -86.6913,-87.4314
 L -85,-88.6602 L -83.0902,-89.5106 L -81.0453,-89.9452 L -78.9547,-89.9452 L -76.9098,-89.5106 L -75,-88.6602
 L -73.3087,-87.4314 L -71.9098,-85.8778 L -70.8645,-84.0674 L -70.2185,-82.0791 L -70,-80 L -70.2185,-77.9209
 L -70.8645,-75.9326 L -71.9098,-74.1221 L -73.3087,-72.5685 L -75,-71.3397 L -76.9098,-70.4894 L -78.9547,-70.0548
 z
M -8.36227,79.5617 L -24.7214,76.0845 L -40,69.282 L -53.5304,59.4516 L -64.7214,47.0228 L -73.0836,32.5389
 L -78.2518,16.6329 L -80,-0 L -78.2518,-16.6329 L -73.0836,-32.5389 L -64.7214,-47.0228 L -53.5304,-59.4516
 L -40,-69.282 L -24.7214,-76.0845 L -8.36227,-79.5617 L 8.36227,-79.5617 L 24.7214,-76.0845 L 40,-69.282
 L 53.5304,-59.4516 L 64.7214,-47.0228 L 73.0836,-32.5389 L 78.2518,-16.6329 L 80,-0 L 78.2518,16.6329
 L 73.0836,32.5389 L 64.7214,47.0228 L 53.5304,59.4516 L 40,69.282 L 24.7214,76.0845 L 8.36227,79.5617
 z
M 229.027,4.61938 L 227.405,3.53552 L 226.321,1.91341 L 225.94,-0 L 226.321,-1.91341 L 227.405,-3.53552
 L 229.027,-4.61938 L 230.94,-5 L 232.854,-4.61938 L 234.476,-3.53552 L 235.559,-1.91341 L 235.94,-0
 L 235.559,1.91341 L 234.476,3.53552 L 232.854,4.61938 L 230.94,5 z
M 78.9547,89.9452 L 76.9098,89.5106 L 75,88.6602 L 73.3087,87.4314 L 71.9098,85.8778 L 70.8645,84.0674
 L 70.2185,82.0791 L 70,80 L 70.2185,77.9209 L 70.8645,75.9326 L 71.9098,74.1221 L 73.3087,72.5685
 L 75,71.3397 L 76.9098,70.4894 L 78.9547,70.0548 L 81.0453,70.0548 L 83.0902,70.4894 L 85,71.3397
 L 86.6913,72.5685 L 88.0902,74.1221 L 89.1355,75.9326 L 89.7815,77.9209 L 90,80 L 89.7815,82.0791
 L 89.1355,84.0674 L 88.0902,85.8778 L 86.6913,87.4314 L 85,88.6602 L 83.0902,89.5106 L 81.0453,89.9452
 z
M -81.0453,89.9452 L -83.0902,89.5106 L -85,88.6602 L -86.6913,87.4314 L -88.0902,85.8778 L -89.1355,84.0674
 L -89.7815,82.0791 L -90,80 L -89.7815,77.9209 L -89.1355,75.9326 L -88.0902,74.1221 L -86.6913,72.5685
 L -85,71.3397 L -83.0902,70.4894 L -81.0453,70.0548 L -78.9547,70.0548 L -76.9098,70.4894 L -75,71.3397
 L -73.3087,72.5685 L -71.9098,74.1221 L -70.8645,75.9326 L -70.2185,77.9209 L -70,80 L -70.2185,82.0791
 L -70.8645,84.0674 L -71.9098,85.8778 L -73.3087,87.4314 L -75,88.6602 L -76.9098,89.5106 L -78.9547,89.9452
 z
M -117.383,204.619 L -119.006,203.536 L -120.089,201.913 L -120.47,200 L -120.089,198.087 L -119.006,196.464
 L -117.383,195.381 L -115.47,195 L -113.557,195.381 L -111.935,196.464 L -110.851,198.087 L -110.47,200
 L -110.851,201.913 L -111.935,203.536 L -113.557,204.619 L -115.47,205 z
" stroke="black" fill="lightgray" stroke-width="0.5"/>
</svg>
