<?xml version="1.0" standalone="no"?>
<!DOCTYPE svg PUBLIC "-//W3C//DTD SVG 1.1//EN" "http://www.w3.org/Graphics/SVG/1.1/DTD/svg11.dtd">
<svg width="71mm" height="24mm" viewBox="0 -21 71 24" xmlns="http://www.w3.org/2000/svg" version="1.1">
<title>OpenSCAD Model</title>
<path d="
M 63.5312,-0.011673 L 63.9934,-0.0534363 L 64.448,-0.124496 L 64.894,-0.223999 L 65.3301,-0.351151 L 65.7552,-0.505096
 L 66.1683,-0.685028 L 66.5682,-0.890121 L 66.9538,-1.11957 L 67.3239,-1.37251 L 67.6775,-1.64816 L 68.0134,-1.94568
 L 68.3304,-2.26425 L 68.6275,-2.60304 L 68.9035,-2.96123 L 69.1573,-3.338 L 69.3878,-3.73251 L 69.5938,-4.14397
 L 69.7742,-4.57153 L 69.928,-5.01437 L 70.0522,-5.46646 L 70.1458,-5.92108 L 70.2091,-6.37692 L 70.2428,-6.83269
 L 70.2471,-7.28703 L 70.2227,-7.73865 L 70.1699,-8.18622 L 70.0892,-8.62843 L 69.981,-9.06398 L 69.8459,-9.49152
 L 69.6843,-9.90976 L 69.4967,-10.3174 L 69.2834,-10.713 L 69.045,-11.0954 L 68.782,-11.4632 L 68.4947,-11.8152
 L 68.1837,-12.1499 L 67.8494,-12.4661 L 67.4923,-12.7624 L 67.1128,-13.0376 L 67.0331,-13.3148 L 66.9456,-13.589
 L 66.8503,-13.8601 L 66.7473,-14.1279 L 66.6367,-14.3923 L 66.5187,-14.6531 L 66.3932,-14.9102 L 66.2605,-15.1634
 L 66.1206,-15.4126 L 65.9735,-15.6575 L 65.8194,-15.8981 L 65.6585,-16.1342 L 65.4906,-16.3657 L 65.3161,-16.5923
 L 65.1349,-16.814 L 64.9471,-17.0305 L 64.7529,-17.2418 L 64.5524,-17.4476 L 64.3456,-17.6479 L 64.1325,-17.8424
 L 64.0885,-17.7984 L 64.0944,-17.8498 L 63.4663,-18.3606 L 62.8095,-18.8118 L 62.1276,-19.2034 L 61.4242,-19.5359
 L 60.7028,-19.8093 L 59.9672,-20.024 L 59.2208,-20.1801 L 58.4672,-20.2778 L 57.7101,-20.3175 L 56.9529,-20.2992
 L 56.1994,-20.2233 L 55.4531,-20.09 L 54.7175,-19.8994 L 53.9962,-19.6518 L 53.2929,-19.3475 L 52.6112,-18.9866
 L 51.9545,-18.5694 L 51.3265,-18.0961 L 50.7308,-17.5669 L 50.171,-16.982 L 50.0228,-16.8102 L 49.8786,-16.6353
 L 49.7388,-16.4573 L 49.6031,-16.2763 L 49.4718,-16.0925 L 49.3448,-15.9057 L 49.2222,-15.7162 L 49.104,-15.5241
 L 48.9903,-15.3293 L 48.881,-15.132 L 48.7764,-14.9323 L 48.6763,-14.7302 L 48.5808,-14.5258 L 48.5689,-14.4987
 L 48.4227,-14.6448 L 48.1871,-14.8526 L 47.9389,-15.0451 L 47.6791,-15.2216 L 47.4088,-15.3815 L 47.1289,-15.5241
 L 46.8406,-15.6489 L 46.5451,-15.7553 L 46.2434,-15.8429 L 45.9369,-15.9114 L 45.6267,-15.9606 L 45.3139,-15.9901
 L 45,-16 L 44.6861,-15.9901 L 44.3733,-15.9606 L 44.0631,-15.9114 L 43.7566,-15.8429 L 43.4549,-15.7553
 L 43.1594,-15.6489 L 42.8711,-15.5241 L 42.5912,-15.3815 L 42.3209,-15.2216 L 42.0611,-15.0451 L 41.8129,-14.8526
 L 41.5773,-14.6448 L 41.3552,-14.4227 L 41.1474,-14.1871 L 40.9549,-13.9389 L 40.7784,-13.6791 L 40.6185,-13.4088
 L 40.4759,-13.1289 L 40.3511,-12.8406 L 40.2447,-12.5451 L 40.1571,-12.2434 L 40.0886,-11.9369 L 40.0394,-11.6267
 L 40.0099,-11.3139 L 40,-11 L 40.0099,-10.686 L 40.0394,-10.3733 L 40.0886,-10.0631 L 40.1571,-9.75655
 L 40.2447,-9.45491 L 40.3511,-9.15936 L 40.4759,-8.87109 L 40.6185,-8.59122 L 40.7784,-8.32086 L 40.9549,-8.06107
 L 41.1474,-7.81287 L 41.3552,-7.57726 L 41.5773,-7.35515 L 41.8129,-7.14743 L 42.0611,-6.95491 L 42.3209,-6.77835
 L 42.5912,-6.61845 L 42.8711,-6.47586 L 43.1594,-6.3511 L 43.4549,-6.24471 L 43.7566,-6.15707 L 44.0631,-6.08856
 L 44.3733,-6.03941 L 44.6861,-6.00986 L 45,-6 L 45.0942,-6.00296 L 45.1073,-5.91211 L 45.1955,-5.4852
 L 45.3094,-5.06477 L 45.4488,-4.65208 L 45.6132,-4.24834 L 45.8022,-3.85475 L 46.0155,-3.47256 L 46.2527,-3.10298
 L 46.5135,-2.74722 L 46.7974,-2.40652 L 47.1041,-2.08209 L 47.4333,-1.77516 L 47.7845,-1.48695 L 47.7912,-1.49365
 L 47.7834,-1.46262 L 47.9713,-1.32553 L 48.1632,-1.19501 L 48.3587,-1.07108 L 48.5579,-0.953827 L 48.7605,-0.843292
 L 48.9662,-0.739532 L 49.1751,-0.642609 L 49.3868,-0.552582 L 49.6012,-0.469498 L 49.8182,-0.393433 L 50.0375,-0.324417
 L 50.259,-0.262527 L 50.4825,-0.207825 L 50.7078,-0.160355 L 50.9348,-0.120178 L 51.1633,-0.0873566 L 51.3931,-0.0619354
 L 51.6241,-0.0439758 L 51.856,-0.0335388 L 52.0887,-0.0306854 L 57.5486,-0.0306854 L 57.5793,-0 L 63.0626,-0
 z
M 57.5719,-4.41959 L 52.0887,-4.41959 L 52.0302,-4.42021 L 51.9717,-4.42209 L 51.9133,-4.42522 L 51.8551,-4.4296
 L 51.797,-4.4352 L 51.7391,-4.44205 L 51.6814,-4.45013 L 51.6238,-4.45946 L 51.5665,-4.47 L 51.5094,-4.48177
 L 51.4526,-4.49477 L 51.3961,-4.50897 L 51.3398,-4.5244 L 51.2839,-4.54105 L 51.2283,-4.5589 L 51.1731,-4.57796
 L 51.1183,-4.59822 L 51.0639,-4.61967 L 51.0099,-4.64233 L 50.9614,-4.66389 L 50.9648,-4.66724 L 50.7636,-4.7681
 L 50.5742,-4.88301 L 50.3971,-5.01106 L 50.2325,-5.15132 L 50.0809,-5.30286 L 49.9425,-5.46472 L 49.8178,-5.636
 L 49.707,-5.81575 L 49.6105,-6.00304 L 49.5287,-6.19693 L 49.462,-6.3965 L 49.4106,-6.60081 L 49.3749,-6.80894
 L 49.3553,-7.01994 L 49.3522,-7.23289 L 49.3658,-7.44685 L 49.3966,-7.66089 L 49.4449,-7.87407 L 49.511,-8.08546
 L 49.5953,-8.29414 L 49.6961,-8.49535 L 49.8111,-8.68468 L 49.9391,-8.8618 L 50.0794,-9.02637 L 50.2309,-9.17801
 L 50.3928,-9.31638 L 50.564,-9.44115 L 50.7438,-9.55193 L 50.9311,-9.64839 L 51.125,-9.73018 L 51.3245,-9.79694
 L 51.5289,-9.84833 L 51.737,-9.88399 L 51.948,-9.90356 L 52.1609,-9.90671 L 52.3749,-9.89307 L 52.5889,-9.86229
 L 52.8021,-9.81403 L 53.0135,-9.74792 L 53.2222,-9.66364 L 53.3124,-9.62079 L 53.4007,-9.57483 L 53.4871,-9.52583
 L 53.5715,-9.47386 L 53.6537,-9.41899 L 53.7339,-9.3613 L 53.8118,-9.30083 L 53.8874,-9.23766 L 53.9607,-9.17186
 L 54.0315,-9.10352 L 54.0999,-9.03267 L 54.1657,-8.9594 L 54.2289,-8.88377 L 54.2893,-8.80585 L 54.347,-8.72572
 L 54.4019,-8.64343 L 54.4539,-8.55907 L 54.5029,-8.47269 L 54.5488,-8.38435 L 54.5917,-8.29414 L 57.772,-11.4744
 L 57.5634,-11.7342 L 57.344,-11.9827 L 57.1144,-12.2196 L 56.8749,-12.4449 L 56.626,-12.6583 L 56.3683,-12.8595
 L 56.1021,-13.0483 L 55.828,-13.2244 L 55.5464,-13.3877 L 55.2578,-13.5379 L 54.9626,-13.6748 L 54.6613,-13.7982
 L 54.3545,-13.9077 L 54.0424,-14.0033 L 53.7258,-14.0846 L 53.4786,-14.1361 L 53.4858,-14.1407 L 53.5064,-14.1501
 L 53.5258,-14.1548 L 53.5439,-14.1541 L 53.8465,-14.4615 L 54.1673,-14.7404 L 54.5046,-14.9905 L 54.8566,-15.2119
 L 55.2215,-15.4043 L 55.5975,-15.5676 L 55.9828,-15.7016 L 56.3758,-15.8063 L 56.7745,-15.8815 L 57.1773,-15.9271
 L 57.5824,-15.9429 L 57.9879,-15.9288 L 58.3922,-15.8847 L 58.7934,-15.8104 L 59.1897,-15.7058 L 59.5795,-15.5708
 L 59.9608,-15.4052 L 60.332,-15.2088 L 60.6913,-14.9817 L 61.0369,-14.7235 L 61.0985,-14.7235 L 61.2437,-14.5993
 L 61.426,-14.4282 L 61.5996,-14.2497 L 61.7643,-14.0642 L 61.92,-13.8719 L 62.0665,-13.6734 L 62.2036,-13.4688
 L 62.3313,-13.2585 L 62.4492,-13.0429 L 62.5573,-12.8224 L 62.6555,-12.5972 L 62.7434,-12.3677 L 62.8211,-12.1343
 L 62.8883,-11.8973 L 62.9448,-11.6571 L 62.9906,-11.4139 L 63.0254,-11.1683 L 63.0491,-10.9203 L 63.0616,-10.6706
 L 63.0626,-10.4193 L 63.0626,-9.87213 L 63.2875,-9.86304 L 63.5073,-9.83624 L 63.7215,-9.79243 L 63.9292,-9.73235
 L 64.1298,-9.65666 L 64.3225,-9.56609 L 64.5067,-9.46135 L 64.6817,-9.34312 L 64.8467,-9.21214 L 65.001,-9.06912
 L 65.144,-8.91473 L 65.275,-8.74969 L 65.3931,-8.57474 L 65.4978,-8.39053 L 65.5883,-8.19781 L 65.664,-7.99727
 L 65.724,-7.78961 L 65.7678,-7.57555 L 65.7946,-7.35579 L 65.8036,-7.13104 L 65.7946,-6.90614 L 65.7678,-6.68628
 L 65.724,-6.47212 L 65.6639,-6.2644 L 65.5882,-6.06383 L 65.4976,-5.87108 L 65.3929,-5.68689 L 65.2747,-5.51193
 L 65.1437,-5.34692 L 65.0006,-5.19257 L 64.8463,-5.04958 L 64.6812,-4.91866 L 64.5063,-4.80049 L 64.3221,-4.6958
 L 64.1293,-4.60529 L 63.9288,-4.52965 L 63.7211,-4.46959 L 63.5071,-4.42581 L 63.2873,-4.39905 L 63.0626,-4.38995
 L 57.5793,-4.38995 L 57.5719,-4.38245 z
M 44.8744,-9.00394 L 44.7493,-9.01576 L 44.6252,-9.03542 L 44.5026,-9.06282 L 44.382,-9.09789 L 44.2638,-9.14044
 L 44.1485,-9.19034 L 44.0365,-9.24738 L 43.9284,-9.31134 L 43.8244,-9.38196 L 43.7252,-9.45897 L 43.6309,-9.54205
 L 43.5421,-9.63091 L 43.459,-9.72514 L 43.382,-9.82442 L 43.3114,-9.92834 L 43.2474,-10.0365 L 43.1904,-10.1484
 L 43.1405,-10.2637 L 43.0979,-10.382 L 43.0628,-10.5026 L 43.0354,-10.6252 L 43.0158,-10.7493 L 43.004,-10.8744
 L 43,-11 L 43.004,-11.1256 L 43.0158,-11.2507 L 43.0354,-11.3748 L 43.0628,-11.4974 L 43.0979,-11.618
 L 43.1405,-11.7362 L 43.1904,-11.8515 L 43.2474,-11.9635 L 43.3114,-12.0716 L 43.382,-12.1756 L 43.459,-12.2748
 L 43.5421,-12.3691 L 43.6309,-12.4579 L 43.7252,-12.541 L 43.8244,-12.618 L 43.9284,-12.6886 L 44.0365,-12.7526
 L 44.1485,-12.8096 L 44.2638,-12.8595 L 44.382,-12.9021 L 44.5026,-12.9372 L 44.6252,-12.9646 L 44.7493,-12.9842
 L 44.8744,-12.996 L 45,-13 L 45.1256,-12.996 L 45.2507,-12.9842 L 45.3748,-12.9646 L 45.4974,-12.9372
 L 45.618,-12.9021 L 45.7362,-12.8595 L 45.8515,-12.8096 L 45.9635,-12.7526 L 46.0716,-12.6886 L 46.1756,-12.618
 L 46.2748,-12.541 L 46.3691,-12.4579 L 46.4579,-12.3691 L 46.541,-12.2748 L 46.618,-12.1756 L 46.6886,-12.0716
 L 46.7526,-11.9635 L 46.8096,-11.8515 L 46.8595,-11.7362 L 46.9021,-11.618 L 46.9372,-11.4974 L 46.9646,-11.3748
 L 46.9842,-11.2507 L 46.996,-11.1256 L 47,-11 L 46.996,-10.8744 L 46.9842,-10.7493 L 46.9646,-10.6252
 L 46.9372,-10.5026 L 46.9021,-10.382 L 46.8595,-10.2637 L 46.8096,-10.1484 L 46.7526,-10.0365 L 46.6886,-9.92834
 L 46.618,-9.82442 L 46.541,-9.72514 L 46.4579,-9.63091 L 46.3691,-9.54205 L 46.2748,-9.45897 L 46.1756,-9.38196
 L 46.0716,-9.31134 L 45.9635,-9.24738 L 45.8515,-9.19034 L 45.7362,-9.14044 L 45.618,-9.09789 L 45.4974,-9.06282
 L 45.3748,-9.03542 L 45.2507,-9.01576 L 45.1256,-9.00394 L 45,-9 z
M 17.5,-0 L 18.0626,-0 L 18.5312,-0.011673 L 18.9934,-0.0534363 L 19.448,-0.124496 L 19.894,-0.223999
 L 20.3301,-0.351151 L 20.7552,-0.505096 L 21.1683,-0.685028 L 21.5682,-0.890121 L 21.9538,-1.11957 L 22.3239,-1.37251
 L 22.6775,-1.64816 L 23.0134,-1.94568 L 23.3304,-2.26425 L 23.6275,-2.60304 L 23.9035,-2.96123 L 24.1573,-3.338
 L 24.3878,-3.73251 L 24.5938,-4.14397 L 24.7742,-4.57153 L 24.928,-5.01437 L 25.0522,-5.46646 L 25.1458,-5.92108
 L 25.2091,-6.37692 L 25.2428,-6.83269 L 25.2471,-7.28703 L 25.2227,-7.73865 L 25.1699,-8.18622 L 25.0892,-8.62843
 L 24.981,-9.06398 L 24.8459,-9.49152 L 24.6843,-9.90976 L 24.4967,-10.3174 L 24.2834,-10.713 L 24.045,-11.0954
 L 23.782,-11.4632 L 23.4947,-11.8152 L 23.1837,-12.1499 L 22.8494,-12.4661 L 22.4923,-12.7624 L 22.1128,-13.0376
 L 22.0331,-13.3148 L 21.9456,-13.589 L 21.8503,-13.8601 L 21.7473,-14.1279 L 21.6367,-14.3923 L 21.5187,-14.6531
 L 21.3932,-14.9102 L 21.2605,-15.1634 L 21.1206,-15.4126 L 20.9735,-15.6575 L 20.8194,-15.8981 L 20.6585,-16.1342
 L 20.4906,-16.3657 L 20.3161,-16.5923 L 20.1349,-16.814 L 19.9471,-17.0305 L 19.7529,-17.2418 L 19.5524,-17.4476
 L 19.3456,-17.6479 L 19.1325,-17.8424 L 19.0885,-17.7984 L 19.0944,-17.8498 L 18.4663,-18.3606 L 17.8095,-18.8118
 L 17.1276,-19.2034 L 16.4242,-19.5359 L 15.7028,-19.8093 L 14.9672,-20.024 L 14.2208,-20.1801 L 13.4672,-20.2778
 L 12.7101,-20.3175 L 11.9529,-20.2992 L 11.1994,-20.2233 L 10.4531,-20.09 L 9.71747,-19.8994 L 8.99625,-19.6518
 L 8.29294,-19.3475 L 7.61118,-18.9866 L 6.9545,-18.5694 L 6.32654,-18.0961 L 5.73083,-17.5669 L 5.17101,-16.982
 L 5.02275,-16.8102 L 4.87865,-16.6353 L 4.73877,-16.4573 L 4.60313,-16.2763 L 4.4718,-16.0925 L 4.3448,-15.9057
 L 4.22218,-15.7162 L 4.10399,-15.5241 L 3.99026,-15.3293 L 3.88103,-15.132 L 3.77635,-14.9323 L 3.67627,-14.7302
 L 3.58081,-14.5258 L 3.49004,-14.3192 L 3.40398,-14.1105 L 3.32266,-13.8997 L 3.24617,-13.687 L 3.1745,-13.4723
 L 3.10773,-13.2558 L 3.04587,-13.0376 L 3.08273,-13.052 L 3.11996,-13.0652 L 3.15753,-13.0771 L 3.1954,-13.0878
 L 3.2092,-13.0911 L 2.95328,-12.9177 L 2.60825,-12.6519 L 2.2798,-12.3653 L 1.96899,-12.0587 L 1.67683,-11.7329
 L 1.40437,-11.3885 L 1.15263,-11.0263 L 0.922638,-10.6471 L 0.715454,-10.2517 L 0.532089,-9.8407 L 0.373581,-9.41493
 L 0.24234,-8.97997 L 0.139816,-8.54175 L 0.0656586,-8.10147 L 0.0194855,-7.66037 L 0.000930786,-7.21967 L 0.0096283,-6.78056
 L 0.0451813,-6.34431 L 0.107254,-5.91211 L 0.195465,-5.4852 L 0.309418,-5.06477 L 0.448776,-4.65208 L 0.613159,-4.24834
 L 0.802185,-3.85475 L 1.01549,-3.47256 L 1.25272,-3.10298 L 1.51347,-2.74722 L 1.79739,-2.40652 L 2.10411,-2.08209
 L 2.43326,-1.77516 L 2.78447,-1.48695 L 2.79117,-1.49365 L 2.7834,-1.46262 L 2.97133,-1.32553 L 3.16316,-1.19501
 L 3.35875,-1.07108 L 3.55791,-0.953827 L 3.76047,-0.843292 L 3.96625,-0.739532 L 4.17509,-0.642609 L 4.38681,-0.552582
 L 4.60123,-0.469498 L 4.81819,-0.393433 L 5.03751,-0.324417 L 5.25899,-0.262527 L 5.4825,-0.207825 L 5.70784,-0.160355
 L 5.93484,-0.120178 L 6.16333,-0.0873566 L 6.39314,-0.0619354 L 6.62408,-0.0439758 L 6.856,-0.0335388 L 7.08871,-0.0306854
 L 7.5,-0.0306854 L 7.5,2.5 L 17.5,2.5 z
M 12.5719,-4.41959 L 7.08871,-4.41959 L 7.03017,-4.42021 L 6.97171,-4.42209 L 6.91335,-4.42522 L 6.85512,-4.4296
 L 6.79703,-4.4352 L 6.73909,-4.44205 L 6.68135,-4.45013 L 6.62381,-4.45946 L 6.56648,-4.47 L 6.5094,-4.48177
 L 6.45259,-4.49477 L 6.39606,-4.50897 L 6.33981,-4.5244 L 6.28391,-4.54105 L 6.22833,-4.5589 L 6.17313,-4.57796
 L 6.1183,-4.59822 L 6.06387,-4.61967 L 6.00986,-4.64233 L 5.96141,-4.66389 L 5.96475,-4.66724 L 5.76357,-4.7681
 L 5.57423,-4.88301 L 5.39711,-5.01106 L 5.23254,-5.15132 L 5.0809,-5.30286 L 4.94252,-5.46472 L 4.81776,-5.636
 L 4.70699,-5.81575 L 4.61052,-6.00304 L 4.52873,-6.19693 L 4.46198,-6.3965 L 4.41058,-6.60081 L 4.37492,-6.80894
 L 4.35535,-7.01994 L 4.3522,-7.23289 L 4.36584,-7.44685 L 4.39662,-7.66089 L 4.44489,-7.87407 L 4.51099,-8.08546
 L 4.59528,-8.29414 L 4.69612,-8.49535 L 4.81105,-8.68468 L 4.9391,-8.8618 L 5.07936,-9.02637 L 5.23088,-9.17801
 L 5.39276,-9.31638 L 5.56403,-9.44115 L 5.74377,-9.55193 L 5.93106,-9.64839 L 6.12497,-9.73018 L 6.32454,-9.79694
 L 6.52885,-9.84833 L 6.73697,-9.88399 L 6.94798,-9.90356 L 7.16092,-9.90671 L 7.37488,-9.89307 L 7.58891,-9.86229
 L 7.80211,-9.81403 L 8.0135,-9.74792 L 8.22218,-9.66364 L 8.31239,-9.62079 L 8.40071,-9.57483 L 8.48711,-9.52583
 L 8.57147,-9.47386 L 8.65375,-9.41899 L 8.73389,-9.3613 L 8.8118,-9.30083 L 8.88742,-9.23766 L 8.96069,-9.17186
 L 9.03154,-9.10352 L 9.0999,-9.03267 L 9.1657,-8.9594 L 9.22885,-8.88377 L 9.28932,-8.80585 L 9.34703,-8.72572
 L 9.4019,-8.64343 L 9.45386,-8.55907 L 9.50285,-8.47269 L 9.54881,-8.38435 L 9.59166,-8.29414 L 12.772,-11.4744
 L 12.5634,-11.7342 L 12.344,-11.9827 L 12.1144,-12.2196 L 11.8749,-12.4449 L 11.626,-12.6583 L 11.3683,-12.8595
 L 11.1021,-13.0483 L 10.828,-13.2244 L 10.5464,-13.3877 L 10.2578,-13.5379 L 9.96259,-13.6748 L 9.66132,-13.7982
 L 9.35446,-13.9077 L 9.04245,-14.0033 L 8.72577,-14.0846 L 8.47858,-14.1361 L 8.48584,-14.1407 L 8.50641,-14.1501
 L 8.52585,-14.1548 L 8.54391,-14.1541 L 8.84651,-14.4615 L 9.16734,-14.7404 L 9.50462,-14.9905 L 9.85658,-15.2119
 L 10.2215,-15.4043 L 10.5975,-15.5676 L 10.9828,-15.7016 L 11.3758,-15.8063 L 11.7745,-15.8815 L 12.1773,-15.9271
 L 12.5824,-15.9429 L 12.9879,-15.9288 L 13.3922,-15.8847 L 13.7934,-15.8104 L 14.1897,-15.7058 L 14.5795,-15.5708
 L 14.9608,-15.4052 L 15.332,-15.2088 L 15.6913,-14.9817 L 16.0369,-14.7235 L 16.0985,-14.7235 L 16.2437,-14.5993
 L 16.426,-14.4282 L 16.5996,-14.2497 L 16.7643,-14.0642 L 16.92,-13.8719 L 17.0665,-13.6734 L 17.2036,-13.4688
 L 17.3313,-13.2585 L 17.4492,-13.0429 L 17.5573,-12.8224 L 17.6555,-12.5972 L 17.7434,-12.3677 L 17.8211,-12.1343
 L 17.8883,-11.8973 L 17.9448,-11.6571 L 17.9906,-11.4139 L 18.0254,-11.1683 L 18.0491,-10.9203 L 18.0616,-10.6706
 L 18.0626,-10.4193 L 18.0626,-9.87213 L 18.2875,-9.86304 L 18.5073,-9.83624 L 18.7215,-9.79243 L 18.9292,-9.73235
 L 19.1298,-9.65666 L 19.3225,-9.56609 L 19.5067,-9.46135 L 19.6817,-9.34312 L 19.8467,-9.21214 L 20.001,-9.06912
 L 20.144,-8.91473 L 20.275,-8.74969 L 20.3931,-8.57474 L 20.4978,-8.39053 L 20.5883,-8.19781 L 20.664,-7.99727
 L 20.724,-7.78961 L 20.7678,-7.57555 L 20.7946,-7.35579 L 20.8036,-7.13104 L 20.7946,-6.90614 L 20.7678,-6.68628
 L 20.724,-6.47212 L 20.6639,-6.2644 L 20.5882,-6.06383 L 20.4976,-5.87108 L 20.3929,-5.68689 L 20.2747,-5.51193
 L 20.1437,-5.34692 L 20.0006,-5.19257 L 19.8463,-5.04958 L 19.6812,-4.91866 L 19.5063,-4.80049 L 19.3221,-4.6958
 L 19.1293,-4.60529 L 18.9288,-4.52965 L 18.7211,-4.46959 L 18.5071,-4.42581 L 18.2873,-4.39905 L 18.0626,-4.38995
 L 12.5793,-4.38995 L 12.5719,-4.38245 z
M 33.3139,-0.00985718 L 33.6267,-0.0394135 L 33.9369,-0.088562 L 34.2434,-0.157074 L 34.5451,-0.244705 L 34.8406,-0.351105
 L 35.1289,-0.475861 L 35.4088,-0.618454 L 35.6791,-0.778351 L 35.9389,-0.95491 L 36.1871,-1.14743 L 36.4227,-1.35515
 L 36.6448,-1.57726 L 36.8526,-1.81287 L 37.0451,-2.06107 L 37.2216,-2.32086 L 37.3815,-2.59122 L 37.5241,-2.87109
 L 37.6489,-3.15936 L 37.7553,-3.45491 L 37.8429,-3.75655 L 37.9114,-4.06308 L 37.9606,-4.37332 L 37.9901,-4.68604
 L 38,-5 L 37.9901,-5.31395 L 37.9606,-5.62666 L 37.9114,-5.9369 L 37.8429,-6.24344 L 37.7553,-6.54507
 L 37.6489,-6.84062 L 37.5241,-7.12889 L 37.3815,-7.40877 L 37.3276,-7.5 L 37.3815,-7.59122 L 37.5241,-7.87109
 L 37.6489,-8.15936 L 37.7553,-8.45491 L 37.8429,-8.75655 L 37.9114,-9.06308 L 37.9606,-9.37332 L 37.9901,-9.68604
 L 38,-10 L 37.9901,-10.3139 L 37.9606,-10.6267 L 37.9114,-10.9369 L 37.8429,-11.2434 L 37.7553,-11.5451
 L 37.6489,-11.8406 L 37.5241,-12.1289 L 37.3815,-12.4088 L 37.2216,-12.6791 L 37.0451,-12.9389 L 36.8526,-13.1871
 L 36.6448,-13.4227 L 36.4227,-13.6448 L 36.1871,-13.8526 L 35.9389,-14.0451 L 35.6791,-14.2216 L 35.4088,-14.3815
 L 35.1289,-14.5241 L 34.8406,-14.6489 L 34.5451,-14.7553 L 34.2434,-14.8429 L 33.9369,-14.9114 L 33.6267,-14.9606
 L 33.3139,-14.9901 L 33,-15 L 32.686,-14.9901 L 32.3733,-14.9606 L 32.0631,-14.9114 L 31.7565,-14.8429
 L 31.4549,-14.7553 L 31.1594,-14.6489 L 30.8711,-14.5241 L 30.5912,-14.3815 L 30.3209,-14.2216 L 30.0611,-14.0451
 L 29.8129,-13.8526 L 29.5773,-13.6448 L 29.3551,-13.4227 L 29.1474,-13.1871 L 28.9549,-12.9389 L 28.7784,-12.6791
 L 28.6185,-12.4088 L 28.4759,-12.1289 L 28.3511,-11.8406 L 28.2447,-11.5451 L 28.1571,-11.2434 L 28.0886,-10.9369
 L 28.0394,-10.6267 L 28.0099,-10.3139 L 28,-10 L 28.0099,-9.68604 L 28.0394,-9.37332 L 28.0886,-9.06308
 L 28.1571,-8.75655 L 28.2447,-8.45491 L 28.3511,-8.15936 L 28.4759,-7.87109 L 28.6185,-7.59122 L 28.6724,-7.5
 L 28.6185,-7.40877 L 28.4759,-7.12889 L 28.3511,-6.84062 L 28.2447,-6.54507 L 28.1571,-6.24344 L 28.0886,-5.9369
 L 28.0394,-5.62666 L 28.0099,-5.31395 L 28,-5 L 28.0099,-4.68604 L 28.0394,-4.37332 L 28.0886,-4.06308
 L 28.1571,-3.75655 L 28.2447,-3.45491 L 28.3511,-3.15936 L 28.4759,-2.87109 L 28.6185,-2.59122 L 28.7784,-2.32086
 L 28.9549,-2.06107 L 29.1474,-1.81287 L 29.3551,-1.57726 L 29.5773,-1.35515 L 29.8129,-1.14743 L 30.0611,-0.95491
 L 30.3209,-0.778351 L 30.5912,-0.618454 L 30.8711,-0.475861 L 31.1594,-0.351105 L 31.4549,-0.244705 L 31.7565,-0.157074
 L 32.0631,-0.088562 L 32.3733,-0.0394135 L 32.686,-0.00985718 L 33,-0 z
M 31.5,-2.5 L 31.5,-12.4 L 34.4,-12.4 L 34.4,-2.5 z
" stroke="black" fill="lightgray" stroke-width="0.5"/>
</svg>
