<?xml version="1.0" standalone="no"?>
<!DOCTYPE svg PUBLIC "-//W3C//DTD SVG 1.1//EN" "http://www.w3.org/Graphics/SVG/1.1/DTD/svg11.dtd">
<svg width="303mm" height="263mm" viewBox="-1 -262 303 263" xmlns="http://www.w3.org/2000/svg" version="1.1">
<title>OpenSCAD Model</title>
<path d="
M 300.1,-0 L 301.1,-260 L 301.031,-260.095 L 300.919,-260.059 L 300.077,-41.0321 L 300.031,-41.0951
 L 290.258,-41.0625 L 290.296,-50.8724 L 300.031,-50.9049 L 300.1,-51 L 300.031,-51.0951 L 290.296,-51.0626
 L 290.334,-60.8726 L 300.031,-60.9049 L 300.1,-61 L 300.031,-61.0951 L 290.335,-61.0628 L 290.373,-70.8727
 L 300.031,-70.9049 L 300.1,-71 L 300.031,-71.0951 L 290.373,-71.0629 L 290.411,-80.8728 L 300.031,-80.9049
 L 300.1,-81 L 300.031,-81.0951 L 290.412,-81.063 L 290.45,-90.873 L 300.031,-90.9049 L 300.1,-91
 L 300.031,-91.0951 L 290.45,-91.0632 L 290.488,-100.873 L 300.031,-100.905 L 300.1,-101 L 300.031,-101.095
 L 290.489,-101.063 L 290.526,-110.873 L 300.031,-110.905 L 300.1,-111 L 300.031,-111.095 L 290.527,-111.063
 L 290.565,-120.873 L 300.031,-120.905 L 300.1,-121 L 300.031,-121.095 L 290.566,-121.064 L 290.603,-130.873
 L 300.031,-130.905 L 300.1,-131 L 300.031,-131.095 L 290.604,-131.064 L 290.642,-140.874 L 300.031,-140.905
 L 300.1,-141 L 300.031,-141.095 L 290.643,-141.064 L 290.68,-150.874 L 300.031,-150.905 L 300.1,-151
 L 300.031,-151.095 L 290.681,-151.064 L 290.719,-160.874 L 300.031,-160.905 L 300.1,-161 L 300.031,-161.095
 L 290.719,-161.064 L 290.757,-170.874 L 300.031,-170.905 L 300.1,-171 L 300.031,-171.095 L 290.758,-171.064
 L 290.796,-180.874 L 300.031,-180.905 L 300.1,-181 L 300.031,-181.095 L 290.796,-181.064 L 290.834,-190.874
 L 300.031,-190.905 L 300.1,-191 L 300.031,-191.095 L 290.835,-191.064 L 290.873,-200.874 L 300.031,-200.905
 L 300.1,-201 L 300.031,-201.095 L 290.873,-201.065 L 290.911,-210.874 L 300.031,-210.905 L 300.1,-211
 L 300.031,-211.095 L 290.912,-211.065 L 290.95,-220.875 L 300.031,-220.905 L 300.1,-221 L 300.031,-221.095
 L 290.95,-221.065 L 290.988,-230.875 L 300.031,-230.905 L 300.1,-231 L 300.031,-231.095 L 290.989,-231.065
 L 291.026,-240.875 L 300.031,-240.905 L 300.1,-241 L 300.031,-241.095 L 291.027,-241.065 L 291.065,-250.875
 L 300.031,-250.905 L 300.1,-251 L 300.031,-251.095 L 291.066,-251.065 L 291.1,-260 L 291.031,-260.095
 L 290.919,-260.059 L 290.885,-251.065 L 281.065,-251.032 L 281.1,-260 L 281.031,-260.095 L 280.919,-260.059
 L 280.884,-251.031 L 271.065,-250.999 L 271.1,-260 L 271.031,-260.095 L 270.919,-260.059 L 270.884,-250.998
 L 261.065,-250.965 L 261.1,-260 L 261.031,-260.095 L 260.919,-260.059 L 260.884,-250.965 L 251.065,-250.932
 L 251.1,-260 L 251.031,-260.095 L 250.919,-260.059 L 250.884,-250.931 L 241.065,-250.899 L 241.1,-260
 L 241.031,-260.095 L 240.919,-260.059 L 240.884,-250.898 L 231.065,-250.865 L 231.1,-260 L 231.031,-260.095
 L 230.919,-260.059 L 230.884,-250.865 L 221.065,-250.832 L 221.1,-260 L 221.031,-260.095 L 220.919,-260.059
 L 220.884,-250.831 L 211.065,-250.799 L 211.1,-260 L 211.031,-260.095 L 210.919,-260.059 L 210.883,-250.798
 L 201.064,-250.765 L 201.1,-260 L 201.031,-260.095 L 200.919,-260.059 L 200.883,-250.765 L 191.064,-250.732
 L 191.1,-260 L 191.031,-260.095 L 190.919,-260.059 L 190.883,-250.731 L 181.064,-250.699 L 181.1,-260
 L 181.031,-260.095 L 180.919,-260.059 L 180.883,-250.698 L 171.064,-250.665 L 171.1,-260 L 171.031,-260.095
 L 170.919,-260.059 L 170.883,-250.665 L 161.064,-250.632 L 161.1,-260 L 161.031,-260.095 L 160.919,-260.059
 L 160.883,-250.631 L 151.064,-250.599 L 151.1,-260 L 151.031,-260.095 L 150.919,-260.059 L 150.883,-250.598
 L 141.064,-250.565 L 141.1,-260 L 141.031,-260.095 L 140.919,-260.059 L 140.883,-250.565 L 131.064,-250.532
 L 131.1,-260 L 131.031,-260.095 L 130.919,-260.059 L 130.882,-250.531 L 121.063,-250.499 L 121.1,-260
 L 121.031,-260.095 L 120.919,-260.059 L 120.882,-250.498 L 111.063,-250.465 L 111.1,-260 L 111.031,-260.095
 L 110.919,-260.059 L 110.882,-250.465 L 101.063,-250.432 L 101.1,-260 L 101.031,-260.095 L 100.919,-260.059
 L 100.882,-250.431 L 91.0631,-250.399 L 91.1,-260 L 91.0309,-260.095 L 90.9191,-260.059 L 90.8819,-250.398
 L 81.0629,-250.365 L 81.1,-260 L 81.0309,-260.095 L 80.9191,-260.059 L 80.8818,-250.365 L 71.0628,-250.332
 L 71.1,-260 L 71.0309,-260.095 L 70.9191,-260.059 L 70.8817,-250.331 L 61.0627,-250.299 L 61.1,-260
 L 61.0309,-260.095 L 60.9191,-260.059 L 60.8816,-250.298 L 51.0625,-250.265 L 51.1,-260 L 51.0455,-260.075
 L 300.031,-260.905 L 300.1,-261 L 300.031,-261.095 L 0.030899,-260.095 L -0.0808868,-260.059 L -0.0808868,-259.941
 L 0.030899,-259.905 L 0.918518,-259.908 L 0.880783,-250.098 L 0.030899,-250.095 L -0.0808868,-250.059 L -0.0808868,-249.941
 L 0.030899,-249.905 L 0.880051,-249.908 L 0.842331,-240.098 L 0.030899,-240.095 L -0.0808868,-240.059 L -0.0808868,-239.941
 L 0.030899,-239.905 L 0.841599,-239.908 L 0.803864,-230.098 L 0.030899,-230.095 L -0.0808868,-230.059 L -0.0808868,-229.941
 L 0.030899,-229.905 L 0.803131,-229.907 L 0.765396,-220.098 L 0.030899,-220.095 L -0.0808868,-220.059 L -0.0808868,-219.941
 L 0.030899,-219.905 L 0.764679,-219.907 L 0.726944,-210.097 L 0.030899,-210.095 L -0.0808868,-210.059 L -0.0808868,-209.941
 L 0.030899,-209.905 L 0.726212,-209.907 L 0.688477,-200.097 L 0.030899,-200.095 L -0.0808868,-200.059 L -0.0808868,-199.941
 L 0.030899,-199.905 L 0.687744,-199.907 L 0.650024,-190.097 L 0.030899,-190.095 L -0.0808868,-190.059 L -0.0808868,-189.941
 L 0.030899,-189.905 L 0.649292,-189.907 L 0.611557,-180.097 L 0.030899,-180.095 L -0.0808868,-180.059 L -0.0808868,-179.941
 L 0.030899,-179.905 L 0.610825,-179.907 L 0.57309,-170.097 L 0.030899,-170.095 L -0.0808868,-170.059 L -0.0808868,-169.941
 L 0.030899,-169.905 L 0.572357,-169.907 L 0.534637,-160.097 L 0.030899,-160.095 L -0.0808868,-160.059 L -0.0808868,-159.941
 L 0.030899,-159.905 L 0.533905,-159.907 L 0.49617,-150.097 L 0.030899,-150.095 L -0.0808868,-150.059 L -0.0808868,-149.941
 L 0.030899,-149.905 L 0.495438,-149.906 L 0.457718,-140.097 L 0.030899,-140.095 L -0.0808868,-140.059 L -0.0808868,-139.941
 L 0.030899,-139.905 L 0.456985,-139.906 L 0.41925,-130.096 L 0.030899,-130.095 L -0.0808868,-130.059 L -0.0808868,-129.941
 L 0.030899,-129.905 L 0.418518,-129.906 L 0.380783,-120.096 L 0.030899,-120.095 L -0.0808868,-120.059 L -0.0808868,-119.941
 L 0.030899,-119.905 L 0.380051,-119.906 L 0.342331,-110.096 L 0.030899,-110.095 L -0.0808868,-110.059 L -0.0808868,-109.941
 L 0.030899,-109.905 L 0.341599,-109.906 L 0.303864,-100.096 L 0.030899,-100.095 L -0.0808868,-100.059 L -0.0808868,-99.9412
 L 0.030899,-99.9049 L 0.303131,-99.9058 L 0.265411,-90.0959 L 0.030899,-90.0951 L -0.0808868,-90.0588 L -0.0808868,-89.9412
 L 0.030899,-89.9049 L 0.264679,-89.9057 L 0.226944,-80.0957 L 0.030899,-80.0951 L -0.0808868,-80.0588 L -0.0808868,-79.9412
 L 0.030899,-79.9049 L 0.226212,-79.9055 L 0.188477,-70.0956 L 0.030899,-70.0951 L -0.0808868,-70.0588 L -0.0808868,-69.9412
 L 0.030899,-69.9049 L 0.187744,-69.9054 L 0.150024,-60.0955 L 0.030899,-60.0951 L -0.0808868,-60.0588 L -0.0808868,-59.9412
 L 0.030899,-59.9049 L 0.149292,-59.9053 L 0.111557,-50.0954 L 0.030899,-50.0951 L -0.0808868,-50.0588 L -0.0808868,-49.9412
 L 0.030899,-49.9049 L 0.110825,-49.9052 L 0.0730896,-40.0952 L 0.030899,-40.0951 L -0.0808868,-40.0588 L -0.0808868,-39.9412
 L 0.030899,-39.9049 L 0.0723724,-39.905 L 0.0346375,-30.0951 L 0.030899,-30.0951 L -0.0808868,-30.0588 L -0.0808868,-29.9412
 L 0.030899,-29.9049 L 0.033905,-29.9049 L -0.00387573,-20.0838 L -0.0808868,-20.0588 L -0.0808868,-19.9412 L -0.0045166,-19.9164
 L -0.0423737,-10.0713 L -0.0808868,-10.0588 L -0.0808868,-9.94121 L -0.042923,-9.92888 L -0.0808868,-0.0587769 L -0.0808868,0.0587769
 L 0.030899,0.0950928 L 9.92932,0.0621033 L 10.0309,0.0950928 L 10.0552,0.061676 L 19.9191,0.0287933 L 19.9191,0.0587769
 L 20.0309,0.0950928 L 20.0795,0.0282593 L 29.9191,-0.00453186 L 29.9191,0.0587769 L 30.0309,0.0950928 L 30.1,-0
 L 30.1,-0.00514221 L 39.9191,-0.0378723 L 39.9191,0.0587769 L 40.0309,0.0950928 L 40.1,-0 L 40.1001,-0.0384674
 L 49.9191,-0.0711975 L 49.9191,-0.0587769 L 49.9191,0.0587769 L 50.0309,0.0950928 L 50.1,-0 L 50.1003,-0.0718079
 L 59.9193,-0.104538 L 59.9191,-0.0587769 L 59.9191,0.0587769 L 60.0309,0.0950928 L 60.1,-0 L 60.1004,-0.105133
 L 69.9194,-0.137863 L 69.9191,-0.0587769 L 69.9191,0.0587769 L 70.0309,0.0950928 L 70.1,-0 L 70.1005,-0.138474
 L 79.9195,-0.171204 L 79.9191,-0.0587769 L 79.9191,0.0587769 L 80.0309,0.0950928 L 80.1,-0 L 80.1006,-0.171799
 L 89.9197,-0.204529 L 89.9191,-0.0587769 L 89.9191,0.0587769 L 90.0309,0.0950928 L 90.1,-0 L 90.1008,-0.205139
 L 99.9198,-0.237869 L 99.9191,-0.0587769 L 99.9191,0.0587769 L 100.031,0.0950928 L 100.1,-0 L 100.101,-0.238464
 L 109.92,-0.271194 L 109.919,-0.0587769 L 109.919,0.0587769 L 110.031,0.0950928 L 110.1,-0 L 110.101,-0.271805
 L 119.92,-0.304535 L 119.919,-0.0587769 L 119.919,0.0587769 L 120.031,0.0950928 L 120.1,-0 L 120.101,-0.30513
 L 129.92,-0.33786 L 129.919,-0.0587769 L 129.919,0.0587769 L 130.031,0.0950928 L 130.1,-0 L 130.101,-0.33847
 L 139.92,-0.371201 L 139.919,-0.0587769 L 139.919,0.0587769 L 140.031,0.0950928 L 140.1,-0 L 140.101,-0.371796
 L 149.92,-0.404526 L 149.919,-0.0587769 L 149.919,0.0587769 L 150.031,0.0950928 L 150.1,-0 L 150.102,-0.405136
 L 159.921,-0.437866 L 159.919,-0.0587769 L 159.919,0.0587769 L 160.031,0.0950928 L 160.1,-0 L 160.102,-0.438461
 L 169.921,-0.471191 L 169.919,-0.0587769 L 169.919,0.0587769 L 170.031,0.0950928 L 170.1,-0 L 170.102,-0.471802
 L 179.921,-0.504532 L 179.919,-0.0587769 L 179.919,0.0587769 L 180.031,0.0950928 L 180.1,-0 L 180.102,-0.505142
 L 189.921,-0.537857 L 189.919,-0.0587769 L 189.919,0.0587769 L 190.031,0.0950928 L 190.1,-0 L 190.102,-0.538467
 L 199.921,-0.571198 L 199.919,-0.0587769 L 199.919,0.0587769 L 200.031,0.0950928 L 200.1,-0 L 200.102,-0.571808
 L 209.921,-0.604538 L 209.919,-0.0587769 L 209.919,0.0587769 L 210.031,0.0950928 L 210.1,-0 L 210.102,-0.605133
 L 219.921,-0.637863 L 219.919,-0.0587769 L 219.919,0.0587769 L 220.031,0.0950928 L 220.1,-0 L 220.102,-0.638474
 L 229.921,-0.671204 L 229.919,-0.0587769 L 229.919,0.0587769 L 230.031,0.0950928 L 230.1,-0 L 230.103,-0.671799
 L 239.922,-0.704529 L 239.919,-0.0587769 L 239.919,0.0587769 L 240.031,0.0950928 L 240.1,-0 L 240.103,-0.705139
 L 249.922,-0.737869 L 249.919,-0.0587769 L 249.919,0.0587769 L 250.031,0.0950928 L 250.1,-0 L 250.103,-0.738464
 L 259.922,-0.771194 L 259.919,-0.0587769 L 259.919,0.0587769 L 260.031,0.0950928 L 260.1,-0 L 260.103,-0.771805
 L 269.922,-0.804535 L 269.919,-0.0587769 L 269.919,0.0587769 L 270.031,0.0950928 L 270.1,-0 L 270.103,-0.80513
 L 279.922,-0.83786 L 279.919,-0.0587769 L 279.919,0.0587769 L 280.031,0.0950928 L 280.1,-0 L 280.103,-0.83847
 L 289.922,-0.871201 L 289.919,-0.0587769 L 289.919,0.0587769 L 290.031,0.0950928 L 290.1,-0 L 290.103,-0.871796
 L 299.922,-0.904526 L 299.919,-0.0587769 L 299.919,0.0587769 L 300.031,0.0950928 z
M 41.1,-260 L 41.0697,-260.042 L 50.9681,-260.075 L 50.9191,-260.059 L 50.8814,-250.265 L 41.0624,-250.232
 z
M 31.1,-260 L 31.0939,-260.008 L 40.919,-260.041 L 40.8813,-250.231 L 31.0623,-250.199 z
M 21.0999,-259.975 L 30.9189,-260.008 L 30.8812,-250.198 L 21.0622,-250.165 z
M 11.0998,-259.942 L 20.9188,-259.975 L 20.881,-250.165 L 11.062,-250.132 z
M 1.09964,-259.908 L 10.9186,-259.941 L 10.8809,-250.131 L 1.0619,-250.099 z
M 281.065,-250.842 L 290.884,-250.874 L 290.846,-241.064 L 281.027,-241.032 z
M 271.065,-250.808 L 280.884,-250.841 L 280.846,-241.031 L 271.027,-240.998 z
M 261.065,-250.775 L 270.884,-250.808 L 270.846,-240.998 L 261.027,-240.965 z
M 251.064,-250.742 L 260.883,-250.774 L 260.846,-240.964 L 251.027,-240.932 z
M 241.064,-250.708 L 250.883,-250.741 L 250.846,-240.931 L 241.027,-240.898 z
M 231.064,-250.675 L 240.883,-250.708 L 240.845,-240.898 L 231.026,-240.865 z
M 221.064,-250.642 L 230.883,-250.674 L 230.845,-240.864 L 221.026,-240.832 z
M 211.064,-250.608 L 220.883,-250.641 L 220.845,-240.831 L 211.026,-240.798 z
M 201.064,-250.575 L 210.883,-250.608 L 210.845,-240.798 L 201.026,-240.765 z
M 191.064,-250.542 L 200.883,-250.574 L 200.845,-240.764 L 191.026,-240.732 z
M 181.063,-250.508 L 190.882,-250.541 L 190.845,-240.731 L 181.026,-240.698 z
M 171.063,-250.475 L 180.882,-250.508 L 180.845,-240.698 L 171.026,-240.665 z
M 161.063,-250.442 L 170.882,-250.474 L 170.844,-240.664 L 161.025,-240.632 z
M 151.063,-250.408 L 160.882,-250.441 L 160.844,-240.631 L 151.025,-240.598 z
M 141.063,-250.375 L 150.882,-250.408 L 150.844,-240.598 L 141.025,-240.565 z
M 131.063,-250.342 L 140.882,-250.374 L 140.844,-240.564 L 131.025,-240.532 z
M 121.063,-250.308 L 130.882,-250.341 L 130.844,-240.531 L 121.025,-240.498 z
M 111.063,-250.275 L 120.882,-250.308 L 120.844,-240.498 L 111.025,-240.465 z
M 101.062,-250.242 L 110.881,-250.274 L 110.844,-240.464 L 101.025,-240.432 z
M 91.0623,-250.208 L 100.881,-250.241 L 100.844,-240.431 L 91.0246,-240.398 z
M 81.0622,-250.175 L 90.8812,-250.208 L 90.8435,-240.398 L 81.0245,-240.365 z
M 71.0621,-250.142 L 80.8811,-250.174 L 80.8434,-240.364 L 71.0243,-240.332 z
M 61.062,-250.108 L 70.881,-250.141 L 70.8432,-240.331 L 61.0242,-240.298 z
M 51.0618,-250.075 L 60.8808,-250.108 L 60.8431,-240.298 L 51.0241,-240.265 z
M 41.0617,-250.042 L 50.8807,-250.074 L 50.843,-240.264 L 41.024,-240.232 z
M 31.0616,-250.008 L 40.8806,-250.041 L 40.8428,-240.231 L 31.0238,-240.198 z
M 21.0614,-249.975 L 30.8804,-250.008 L 30.8427,-240.198 L 21.0237,-240.165 z
M 11.0613,-249.942 L 20.8803,-249.974 L 20.8426,-240.164 L 11.0236,-240.132 z
M 1.06117,-249.908 L 10.8802,-249.941 L 10.8425,-240.131 L 1.02345,-240.098 z
M 281.026,-240.842 L 290.845,-240.874 L 290.808,-231.064 L 280.989,-231.032 z
M 271.026,-240.808 L 280.845,-240.841 L 280.807,-231.031 L 270.988,-230.998 z
M 261.026,-240.775 L 270.845,-240.808 L 270.807,-230.998 L 260.988,-230.965 z
M 251.026,-240.742 L 260.845,-240.774 L 260.807,-230.964 L 250.988,-230.932 z
M 241.026,-240.708 L 250.845,-240.741 L 250.807,-230.931 L 240.988,-230.898 z
M 231.026,-240.675 L 240.845,-240.708 L 240.807,-230.898 L 230.988,-230.865 z
M 221.026,-240.642 L 230.845,-240.674 L 230.807,-230.864 L 220.988,-230.832 z
M 211.025,-240.608 L 220.844,-240.641 L 220.807,-230.831 L 210.988,-230.798 z
M 201.025,-240.575 L 210.844,-240.608 L 210.807,-230.798 L 200.988,-230.765 z
M 191.025,-240.542 L 200.844,-240.574 L 200.806,-230.764 L 190.987,-230.732 z
M 181.025,-240.508 L 190.844,-240.541 L 190.806,-230.731 L 180.987,-230.698 z
M 171.025,-240.475 L 180.844,-240.508 L 180.806,-230.698 L 170.987,-230.665 z
M 161.025,-240.442 L 170.844,-240.474 L 170.806,-230.664 L 160.987,-230.632 z
M 151.025,-240.408 L 160.844,-240.441 L 160.806,-230.631 L 150.987,-230.598 z
M 141.025,-240.375 L 150.844,-240.408 L 150.806,-230.598 L 140.987,-230.565 z
M 131.024,-240.342 L 140.843,-240.374 L 140.806,-230.564 L 130.987,-230.532 z
M 121.024,-240.308 L 130.843,-240.341 L 130.806,-230.531 L 120.987,-230.498 z
M 111.024,-240.275 L 120.843,-240.308 L 120.805,-230.498 L 110.986,-230.465 z
M 101.024,-240.242 L 110.843,-240.274 L 110.805,-230.464 L 100.986,-230.432 z
M 91.0239,-240.208 L 100.843,-240.241 L 100.805,-230.431 L 90.9861,-230.398 z
M 81.0237,-240.175 L 90.8427,-240.208 L 90.805,-230.398 L 80.986,-230.365 z
M 71.0236,-240.142 L 80.8426,-240.174 L 80.8049,-230.364 L 70.9859,-230.332 z
M 61.0235,-240.108 L 70.8425,-240.141 L 70.8048,-230.331 L 60.9857,-230.298 z
M 51.0234,-240.075 L 60.8424,-240.108 L 60.8046,-230.298 L 50.9856,-230.265 z
M 41.0232,-240.042 L 50.8422,-240.074 L 50.8045,-230.264 L 40.9855,-230.232 z
M 31.0231,-240.008 L 40.8421,-240.041 L 40.8044,-230.231 L 30.9854,-230.198 z
M 21.023,-239.975 L 30.842,-240.008 L 30.8042,-230.198 L 20.9852,-230.165 z
M 11.0228,-239.942 L 20.8418,-239.974 L 20.8041,-230.164 L 10.9851,-230.132 z
M 1.02272,-239.908 L 10.8417,-239.941 L 10.804,-230.131 L 0.984985,-230.098 z
M 280.988,-230.841 L 290.807,-230.874 L 290.769,-221.064 L 280.95,-221.031 z
M 270.988,-230.808 L 280.807,-230.841 L 280.769,-221.031 L 270.95,-220.998 z
M 260.988,-230.775 L 270.807,-230.807 L 270.769,-220.998 L 260.95,-220.965 z
M 250.987,-230.741 L 260.806,-230.774 L 260.769,-220.964 L 250.95,-220.931 z
M 240.987,-230.708 L 250.806,-230.741 L 250.769,-220.931 L 240.95,-220.898 z
M 230.987,-230.675 L 240.806,-230.707 L 240.768,-220.898 L 230.949,-220.865 z
M 220.987,-230.641 L 230.806,-230.674 L 230.768,-220.864 L 220.949,-220.831 z
M 210.987,-230.608 L 220.806,-230.641 L 220.768,-220.831 L 210.949,-220.798 z
M 200.987,-230.575 L 210.806,-230.607 L 210.768,-220.798 L 200.949,-220.765 z
M 190.987,-230.541 L 200.806,-230.574 L 200.768,-220.764 L 190.949,-220.731 z
M 180.987,-230.508 L 190.806,-230.541 L 190.768,-220.731 L 180.949,-220.698 z
M 170.986,-230.475 L 180.805,-230.507 L 180.768,-220.698 L 170.949,-220.665 z
M 160.986,-230.441 L 170.805,-230.474 L 170.768,-220.664 L 160.949,-220.631 z
M 150.986,-230.408 L 160.805,-230.441 L 160.767,-220.631 L 150.948,-220.598 z
M 140.986,-230.375 L 150.805,-230.407 L 150.767,-220.598 L 140.948,-220.565 z
M 130.986,-230.341 L 140.805,-230.374 L 140.767,-220.564 L 130.948,-220.531 z
M 120.986,-230.308 L 130.805,-230.341 L 130.767,-220.531 L 120.948,-220.498 z
M 110.986,-230.275 L 120.805,-230.307 L 120.767,-220.498 L 110.948,-220.465 z
M 100.986,-230.241 L 110.805,-230.274 L 110.767,-220.464 L 100.948,-220.431 z
M 90.9854,-230.208 L 100.804,-230.241 L 100.767,-220.431 L 90.9477,-220.398 z
M 80.9853,-230.175 L 90.8043,-230.207 L 90.7666,-220.398 L 80.9475,-220.365 z
M 70.9852,-230.141 L 80.8042,-230.174 L 80.7664,-220.364 L 70.9474,-220.331 z
M 60.985,-230.108 L 70.804,-230.141 L 70.7663,-220.331 L 60.9473,-220.298 z
M 50.9849,-230.075 L 60.8039,-230.107 L 60.7662,-220.298 L 50.9472,-220.265 z
M 40.9848,-230.041 L 50.8038,-230.074 L 50.766,-220.264 L 40.947,-220.231 z
M 30.9846,-230.008 L 40.8036,-230.041 L 40.7659,-220.231 L 30.9469,-220.198 z
M 20.9845,-229.975 L 30.8035,-230.007 L 30.7658,-220.198 L 20.9468,-220.165 z
M 10.9844,-229.941 L 20.8034,-229.974 L 20.7657,-220.164 L 10.9467,-220.131 z
M 0.984253,-229.908 L 10.8033,-229.941 L 10.7655,-220.131 L 0.946518,-220.098 z
M 280.949,-220.841 L 290.768,-220.874 L 290.731,-211.064 L 280.912,-211.031 z
M 270.949,-220.808 L 280.768,-220.841 L 280.731,-211.031 L 270.912,-210.998 z
M 260.949,-220.775 L 270.768,-220.807 L 270.73,-210.997 L 260.911,-210.965 z
M 250.949,-220.741 L 260.768,-220.774 L 260.73,-210.964 L 250.911,-210.931 z
M 240.949,-220.708 L 250.768,-220.741 L 250.73,-210.931 L 240.911,-210.898 z
M 230.949,-220.675 L 240.768,-220.707 L 240.73,-210.897 L 230.911,-210.865 z
M 220.949,-220.641 L 230.768,-220.674 L 230.73,-210.864 L 220.911,-210.831 z
M 210.948,-220.608 L 220.767,-220.641 L 220.73,-210.831 L 210.911,-210.798 z
M 200.948,-220.575 L 210.767,-220.607 L 210.73,-210.797 L 200.911,-210.765 z
M 190.948,-220.541 L 200.767,-220.574 L 200.73,-210.764 L 190.91,-210.731 z
M 180.948,-220.508 L 190.767,-220.541 L 190.729,-210.731 L 180.91,-210.698 z
M 170.948,-220.475 L 180.767,-220.507 L 180.729,-210.697 L 170.91,-210.665 z
M 160.948,-220.441 L 170.767,-220.474 L 170.729,-210.664 L 160.91,-210.631 z
M 150.948,-220.408 L 160.767,-220.441 L 160.729,-210.631 L 150.91,-210.598 z
M 140.948,-220.375 L 150.767,-220.407 L 150.729,-210.597 L 140.91,-210.565 z
M 130.947,-220.341 L 140.766,-220.374 L 140.729,-210.564 L 130.91,-210.531 z
M 120.947,-220.308 L 130.766,-220.341 L 130.729,-210.531 L 120.91,-210.498 z
M 110.947,-220.275 L 120.766,-220.307 L 120.728,-210.497 L 110.909,-210.465 z
M 100.947,-220.241 L 110.766,-220.274 L 110.728,-210.464 L 100.909,-210.431 z
M 90.9469,-220.208 L 100.766,-220.241 L 100.728,-210.431 L 90.9092,-210.398 z
M 80.9468,-220.175 L 90.7658,-220.207 L 90.7281,-210.397 L 80.9091,-210.365 z
M 70.9467,-220.141 L 80.7657,-220.174 L 80.728,-210.364 L 70.909,-210.331 z
M 60.9466,-220.108 L 70.7656,-220.141 L 70.7278,-210.331 L 60.9088,-210.298 z
M 50.9464,-220.075 L 60.7654,-220.107 L 60.7277,-210.297 L 50.9087,-210.265 z
M 40.9463,-220.041 L 50.7653,-220.074 L 50.7276,-210.264 L 40.9086,-210.231 z
M 30.9462,-220.008 L 40.7652,-220.041 L 40.7274,-210.231 L 30.9084,-210.198 z
M 20.946,-219.975 L 30.7651,-220.007 L 30.7273,-210.197 L 20.9083,-210.165 z
M 10.9459,-219.941 L 20.7649,-219.974 L 20.7272,-210.164 L 10.9082,-210.131 z
M 0.945786,-219.908 L 10.7648,-219.941 L 10.7271,-210.131 L 0.908066,-210.098 z
M 280.911,-210.841 L 290.73,-210.874 L 290.692,-201.064 L 280.873,-201.031 z
M 270.911,-210.808 L 280.73,-210.841 L 280.692,-201.031 L 270.873,-200.998 z
M 260.911,-210.774 L 270.73,-210.807 L 270.692,-200.997 L 260.873,-200.965 z
M 250.911,-210.741 L 260.73,-210.774 L 260.692,-200.964 L 250.873,-200.931 z
M 240.91,-210.708 L 250.729,-210.741 L 250.692,-200.931 L 240.873,-200.898 z
M 230.91,-210.674 L 240.729,-210.707 L 240.692,-200.897 L 230.873,-200.865 z
M 220.91,-210.641 L 230.729,-210.674 L 230.691,-200.864 L 220.872,-200.831 z
M 210.91,-210.608 L 220.729,-210.641 L 220.691,-200.831 L 210.872,-200.798 z
M 200.91,-210.574 L 210.729,-210.607 L 210.691,-200.797 L 200.872,-200.765 z
M 190.91,-210.541 L 200.729,-210.574 L 200.691,-200.764 L 190.872,-200.731 z
M 180.91,-210.508 L 190.729,-210.541 L 190.691,-200.731 L 180.872,-200.698 z
M 170.91,-210.474 L 180.729,-210.507 L 180.691,-200.697 L 170.872,-200.665 z
M 160.909,-210.441 L 170.728,-210.474 L 170.691,-200.664 L 160.872,-200.631 z
M 150.909,-210.408 L 160.728,-210.441 L 160.691,-200.631 L 150.872,-200.598 z
M 140.909,-210.374 L 150.728,-210.407 L 150.69,-200.597 L 140.871,-200.565 z
M 130.909,-210.341 L 140.728,-210.374 L 140.69,-200.564 L 130.871,-200.531 z
M 120.909,-210.308 L 130.728,-210.341 L 130.69,-200.531 L 120.871,-200.498 z
M 110.909,-210.274 L 120.728,-210.307 L 120.69,-200.497 L 110.871,-200.465 z
M 100.909,-210.241 L 110.728,-210.274 L 110.69,-200.464 L 100.871,-200.431 z
M 90.9085,-210.208 L 100.727,-210.241 L 100.69,-200.431 L 90.8708,-200.398 z
M 80.9084,-210.174 L 90.7274,-210.207 L 90.6896,-200.397 L 80.8706,-200.365 z
M 70.9082,-210.141 L 80.7272,-210.174 L 80.6895,-200.364 L 70.8705,-200.331 z
M 60.9081,-210.108 L 70.7271,-210.141 L 70.6894,-200.331 L 60.8704,-200.298 z
M 50.908,-210.074 L 60.727,-210.107 L 60.6892,-200.297 L 50.8702,-200.265 z
M 40.9078,-210.041 L 50.7269,-210.074 L 50.6891,-200.264 L 40.8701,-200.231 z
M 30.9077,-210.008 L 40.7267,-210.041 L 40.689,-200.231 L 30.87,-200.198 z
M 20.9076,-209.974 L 30.7266,-210.007 L 30.6889,-200.197 L 20.8699,-200.165 z
M 10.9075,-209.941 L 20.7265,-209.974 L 20.6887,-200.164 L 10.8697,-200.131 z
M 0.907333,-209.908 L 10.7263,-209.941 L 10.6886,-200.131 L 0.869598,-200.098 z
M 280.872,-200.841 L 290.691,-200.874 L 290.654,-191.064 L 280.835,-191.031 z
M 270.872,-200.808 L 280.691,-200.84 L 280.654,-191.031 L 270.835,-190.998 z
M 260.872,-200.774 L 270.691,-200.807 L 270.653,-190.997 L 260.834,-190.964 z
M 250.872,-200.741 L 260.691,-200.774 L 260.653,-190.964 L 250.834,-190.931 z
M 240.872,-200.708 L 250.691,-200.74 L 250.653,-190.93 L 240.834,-190.898 z
M 230.872,-200.674 L 240.691,-200.707 L 240.653,-190.897 L 230.834,-190.864 z
M 220.872,-200.641 L 230.691,-200.674 L 230.653,-190.864 L 220.834,-190.831 z
M 210.872,-200.608 L 220.691,-200.64 L 220.653,-190.831 L 210.834,-190.798 z
M 200.871,-200.574 L 210.69,-200.607 L 210.653,-190.797 L 200.834,-190.764 z
M 190.871,-200.541 L 200.69,-200.574 L 200.653,-190.764 L 190.834,-190.731 z
M 180.871,-200.508 L 190.69,-200.54 L 190.652,-190.73 L 180.833,-190.698 z
M 170.871,-200.474 L 180.69,-200.507 L 180.652,-190.697 L 170.833,-190.664 z
M 160.871,-200.441 L 170.69,-200.474 L 170.652,-190.664 L 160.833,-190.631 z
M 150.871,-200.408 L 160.69,-200.44 L 160.652,-190.63 L 150.833,-190.598 z
M 140.871,-200.374 L 150.69,-200.407 L 150.652,-190.597 L 140.833,-190.564 z
M 130.871,-200.341 L 140.69,-200.374 L 140.652,-190.564 L 130.833,-190.531 z
M 120.87,-200.308 L 130.689,-200.34 L 130.652,-190.531 L 120.833,-190.498 z
M 110.87,-200.274 L 120.689,-200.307 L 120.652,-190.497 L 110.833,-190.464 z
M 100.87,-200.241 L 110.689,-200.274 L 110.651,-190.464 L 100.832,-190.431 z
M 90.87,-200.208 L 100.689,-200.24 L 100.651,-190.43 L 90.8323,-190.398 z
M 80.8699,-200.174 L 90.6889,-200.207 L 90.6512,-190.397 L 80.8322,-190.364 z
M 70.8698,-200.141 L 80.6888,-200.174 L 80.651,-190.364 L 70.832,-190.331 z
M 60.8696,-200.108 L 70.6886,-200.14 L 70.6509,-190.33 L 60.8319,-190.298 z
M 50.8695,-200.074 L 60.6885,-200.107 L 60.6508,-190.297 L 50.8318,-190.264 z
M 40.8694,-200.041 L 50.6884,-200.074 L 50.6507,-190.264 L 40.8316,-190.231 z
M 30.8692,-200.008 L 40.6883,-200.04 L 40.6505,-190.23 L 30.8315,-190.198 z
M 20.8691,-199.974 L 30.6881,-200.007 L 30.6504,-190.197 L 20.8314,-190.164 z
M 10.869,-199.941 L 20.688,-199.974 L 20.6503,-190.164 L 10.8313,-190.131 z
M 0.868866,-199.908 L 10.6879,-199.94 L 10.6501,-190.13 L 0.831131,-190.098 z
M 280.834,-190.841 L 290.653,-190.874 L 290.615,-181.064 L 280.796,-181.031 z
M 270.834,-190.808 L 280.653,-190.84 L 280.615,-181.03 L 270.796,-180.998 z
M 260.834,-190.774 L 270.653,-190.807 L 270.615,-180.997 L 260.796,-180.964 z
M 250.834,-190.741 L 260.653,-190.774 L 260.615,-180.964 L 250.796,-180.931 z
M 240.833,-190.708 L 250.652,-190.74 L 250.615,-180.93 L 240.796,-180.898 z
M 230.833,-190.674 L 240.652,-190.707 L 240.615,-180.897 L 230.796,-180.864 z
M 220.833,-190.641 L 230.652,-190.674 L 230.615,-180.864 L 220.796,-180.831 z
M 210.833,-190.608 L 220.652,-190.64 L 220.614,-180.83 L 210.795,-180.798 z
M 200.833,-190.574 L 210.652,-190.607 L 210.614,-180.797 L 200.795,-180.764 z
M 190.833,-190.541 L 200.652,-190.574 L 200.614,-180.764 L 190.795,-180.731 z
M 180.833,-190.508 L 190.652,-190.54 L 190.614,-180.73 L 180.795,-180.698 z
M 170.833,-190.474 L 180.652,-190.507 L 180.614,-180.697 L 170.795,-180.664 z
M 160.832,-190.441 L 170.651,-190.474 L 170.614,-180.664 L 160.795,-180.631 z
M 150.832,-190.408 L 160.651,-190.44 L 160.614,-180.63 L 150.795,-180.598 z
M 140.832,-190.374 L 150.651,-190.407 L 150.613,-180.597 L 140.794,-180.564 z
M 130.832,-190.341 L 140.651,-190.374 L 140.613,-180.564 L 130.794,-180.531 z
M 120.832,-190.308 L 130.651,-190.34 L 130.613,-180.53 L 120.794,-180.498 z
M 110.832,-190.274 L 120.651,-190.307 L 120.613,-180.497 L 110.794,-180.464 z
M 100.832,-190.241 L 110.651,-190.274 L 110.613,-180.464 L 100.794,-180.431 z
M 90.8316,-190.208 L 100.651,-190.24 L 100.613,-180.43 L 90.7938,-180.398 z
M 80.8314,-190.174 L 90.6504,-190.207 L 90.6127,-180.397 L 80.7937,-180.364 z
M 70.8313,-190.141 L 80.6503,-190.174 L 80.6126,-180.364 L 70.7936,-180.331 z
M 60.8312,-190.108 L 70.6502,-190.14 L 70.6125,-180.33 L 60.7934,-180.298 z
M 50.831,-190.074 L 60.6501,-190.107 L 60.6123,-180.297 L 50.7933,-180.264 z
M 40.8309,-190.041 L 50.6499,-190.074 L 50.6122,-180.264 L 40.7932,-180.231 z
M 30.8308,-190.008 L 40.6498,-190.04 L 40.6121,-180.23 L 30.7931,-180.198 z
M 20.8307,-189.974 L 30.6497,-190.007 L 30.6119,-180.197 L 20.7929,-180.164 z
M 10.8305,-189.941 L 20.6495,-189.974 L 20.6118,-180.164 L 10.7928,-180.131 z
M 0.830399,-189.908 L 10.6494,-189.94 L 10.6117,-180.13 L 0.792679,-180.098 z
M 280.796,-180.841 L 290.615,-180.874 L 290.577,-171.064 L 280.758,-171.031 z
M 270.795,-180.807 L 280.614,-180.84 L 280.577,-171.03 L 270.758,-170.998 z
M 260.795,-180.774 L 270.614,-180.807 L 270.577,-170.997 L 260.758,-170.964 z
M 250.795,-180.741 L 260.614,-180.773 L 260.576,-170.964 L 250.757,-170.931 z
M 240.795,-180.707 L 250.614,-180.74 L 250.576,-170.93 L 240.757,-170.898 z
M 230.795,-180.674 L 240.614,-180.707 L 240.576,-170.897 L 230.757,-170.864 z
M 220.795,-180.641 L 230.614,-180.674 L 230.576,-170.864 L 220.757,-170.831 z
M 210.795,-180.607 L 220.614,-180.64 L 220.576,-170.83 L 210.757,-170.798 z
M 200.795,-180.574 L 210.614,-180.607 L 210.576,-170.797 L 200.757,-170.764 z
M 190.794,-180.541 L 200.613,-180.574 L 200.576,-170.764 L 190.757,-170.731 z
M 180.794,-180.507 L 190.613,-180.54 L 190.576,-170.73 L 180.757,-170.698 z
M 170.794,-180.474 L 180.613,-180.507 L 180.575,-170.697 L 170.756,-170.664 z
M 160.794,-180.441 L 170.613,-180.473 L 170.575,-170.664 L 160.756,-170.631 z
M 150.794,-180.407 L 160.613,-180.44 L 160.575,-170.63 L 150.756,-170.598 z
M 140.794,-180.374 L 150.613,-180.407 L 150.575,-170.597 L 140.756,-170.564 z
M 130.794,-180.341 L 140.613,-180.374 L 140.575,-170.564 L 130.756,-170.531 z
M 120.793,-180.307 L 130.612,-180.34 L 130.575,-170.53 L 120.756,-170.498 z
M 110.793,-180.274 L 120.612,-180.307 L 120.575,-170.497 L 110.756,-170.464 z
M 100.793,-180.241 L 110.612,-180.273 L 110.574,-170.464 L 100.755,-170.431 z
M 90.7931,-180.207 L 100.612,-180.24 L 100.574,-170.43 L 90.7554,-170.398 z
M 80.793,-180.174 L 90.612,-180.207 L 90.5742,-170.397 L 80.7552,-170.364 z
M 70.7928,-180.141 L 80.6118,-180.173 L 80.5741,-170.364 L 70.7551,-170.331 z
M 60.7927,-180.107 L 70.6117,-180.14 L 70.574,-170.33 L 60.755,-170.298 z
M 50.7926,-180.074 L 60.6116,-180.107 L 60.5739,-170.297 L 50.7549,-170.264 z
M 40.7924,-180.041 L 50.6115,-180.073 L 50.5737,-170.264 L 40.7547,-170.231 z
M 30.7923,-180.007 L 40.6113,-180.04 L 40.5736,-170.23 L 30.7546,-170.198 z
M 20.7922,-179.974 L 30.6112,-180.007 L 30.5735,-170.197 L 20.7545,-170.164 z
M 10.7921,-179.941 L 20.6111,-179.973 L 20.5733,-170.164 L 10.7543,-170.131 z
M 0.791946,-179.907 L 10.6109,-179.94 L 10.5732,-170.13 L 0.754211,-170.098 z
M 280.757,-170.841 L 290.576,-170.873 L 290.538,-161.063 L 280.719,-161.031 z
M 270.757,-170.807 L 280.576,-170.84 L 280.538,-161.03 L 270.719,-160.997 z
M 260.757,-170.774 L 270.576,-170.807 L 270.538,-160.997 L 260.719,-160.964 z
M 250.757,-170.741 L 260.576,-170.773 L 260.538,-160.963 L 250.719,-160.931 z
M 240.757,-170.707 L 250.576,-170.74 L 250.538,-160.93 L 240.719,-160.897 z
M 230.756,-170.674 L 240.575,-170.707 L 240.538,-160.897 L 230.719,-160.864 z
M 220.756,-170.641 L 230.575,-170.673 L 230.538,-160.863 L 220.719,-160.831 z
M 210.756,-170.607 L 220.575,-170.64 L 220.537,-160.83 L 210.718,-160.797 z
M 200.756,-170.574 L 210.575,-170.607 L 210.537,-160.797 L 200.718,-160.764 z
M 190.756,-170.541 L 200.575,-170.573 L 200.537,-160.763 L 190.718,-160.731 z
M 180.756,-170.507 L 190.575,-170.54 L 190.537,-160.73 L 180.718,-160.697 z
M 170.756,-170.474 L 180.575,-170.507 L 180.537,-160.697 L 170.718,-160.664 z
M 160.756,-170.441 L 170.575,-170.473 L 170.537,-160.663 L 160.718,-160.631 z
M 150.755,-170.407 L 160.574,-170.44 L 160.537,-160.63 L 150.718,-160.597 z
M 140.755,-170.374 L 150.574,-170.407 L 150.537,-160.597 L 140.718,-160.564 z
M 130.755,-170.341 L 140.574,-170.373 L 140.536,-160.563 L 130.717,-160.531 z
M 120.755,-170.307 L 130.574,-170.34 L 130.536,-160.53 L 120.717,-160.497 z
M 110.755,-170.274 L 120.574,-170.307 L 120.536,-160.497 L 110.717,-160.464 z
M 100.755,-170.241 L 110.574,-170.273 L 110.536,-160.463 L 100.717,-160.431 z
M 90.7546,-170.207 L 100.574,-170.24 L 100.536,-160.43 L 90.7169,-160.397 z
M 80.7545,-170.174 L 90.5735,-170.207 L 90.5358,-160.397 L 80.7168,-160.364 z
M 70.7544,-170.141 L 80.5734,-170.173 L 80.5357,-160.363 L 70.7166,-160.331 z
M 60.7543,-170.107 L 70.5733,-170.14 L 70.5355,-160.33 L 60.7165,-160.297 z
M 50.7541,-170.074 L 60.5731,-170.107 L 60.5354,-160.297 L 50.7164,-160.264 z
M 40.754,-170.041 L 50.573,-170.073 L 50.5353,-160.263 L 40.7163,-160.231 z
M 30.7539,-170.007 L 40.5729,-170.04 L 40.5351,-160.23 L 30.7161,-160.197 z
M 20.7537,-169.974 L 30.5727,-170.007 L 30.535,-160.197 L 20.716,-160.164 z
M 10.7536,-169.941 L 20.5726,-169.973 L 20.5349,-160.163 L 10.7159,-160.131 z
M 0.753479,-169.907 L 10.5725,-169.94 L 10.5348,-160.13 L 0.715744,-160.097 z
M 280.719,-160.841 L 290.538,-160.873 L 290.5,-151.063 L 280.681,-151.031 z
M 270.718,-160.807 L 280.537,-160.84 L 280.5,-151.03 L 270.681,-150.997 z
M 260.718,-160.774 L 270.537,-160.807 L 270.5,-150.997 L 260.681,-150.964 z
M 250.718,-160.741 L 260.537,-160.773 L 260.499,-150.963 L 250.68,-150.931 z
M 240.718,-160.707 L 250.537,-160.74 L 250.499,-150.93 L 240.68,-150.897 z
M 230.718,-160.674 L 240.537,-160.707 L 240.499,-150.897 L 230.68,-150.864 z
M 220.718,-160.641 L 230.537,-160.673 L 230.499,-150.863 L 220.68,-150.831 z
M 210.718,-160.607 L 220.537,-160.64 L 220.499,-150.83 L 210.68,-150.797 z
M 200.718,-160.574 L 210.537,-160.607 L 210.499,-150.797 L 200.68,-150.764 z
M 190.717,-160.541 L 200.536,-160.573 L 200.499,-150.763 L 190.68,-150.731 z
M 180.717,-160.507 L 190.536,-160.54 L 190.499,-150.73 L 180.68,-150.697 z
M 170.717,-160.474 L 180.536,-160.507 L 180.498,-150.697 L 170.679,-150.664 z
M 160.717,-160.441 L 170.536,-160.473 L 170.498,-150.663 L 160.679,-150.631 z
M 150.717,-160.407 L 160.536,-160.44 L 160.498,-150.63 L 150.679,-150.597 z
M 140.717,-160.374 L 150.536,-160.407 L 150.498,-150.597 L 140.679,-150.564 z
M 130.717,-160.341 L 140.536,-160.373 L 140.498,-150.563 L 130.679,-150.531 z
M 120.717,-160.307 L 130.536,-160.34 L 130.498,-150.53 L 120.679,-150.497 z
M 110.716,-160.274 L 120.535,-160.307 L 120.498,-150.497 L 110.679,-150.464 z
M 100.716,-160.241 L 110.535,-160.273 L 110.498,-150.463 L 100.679,-150.431 z
M 90.7162,-160.207 L 100.535,-160.24 L 100.497,-150.43 L 90.6784,-150.397 z
M 80.716,-160.174 L 90.535,-160.207 L 90.4973,-150.397 L 80.6783,-150.364 z
M 70.7159,-160.141 L 80.5349,-160.173 L 80.4972,-150.363 L 70.6782,-150.331 z
M 60.7158,-160.107 L 70.5348,-160.14 L 70.4971,-150.33 L 60.6781,-150.297 z
M 50.7157,-160.074 L 60.5347,-160.107 L 60.4969,-150.297 L 50.6779,-150.264 z
M 40.7155,-160.041 L 50.5345,-160.073 L 50.4968,-150.263 L 40.6778,-150.231 z
M 30.7154,-160.007 L 40.5344,-160.04 L 40.4967,-150.23 L 30.6777,-150.197 z
M 20.7153,-159.974 L 30.5343,-160.007 L 30.4966,-150.197 L 20.6776,-150.164 z
M 10.7151,-159.941 L 20.5341,-159.973 L 20.4964,-150.163 L 10.6774,-150.131 z
M 0.715012,-159.907 L 10.534,-159.94 L 10.4963,-150.13 L 0.677292,-150.097 z
M 280.68,-150.84 L 290.499,-150.873 L 290.461,-141.063 L 280.642,-141.03 z
M 270.68,-150.807 L 280.499,-150.84 L 280.461,-141.03 L 270.642,-140.997 z
M 260.68,-150.774 L 270.499,-150.806 L 270.461,-140.997 L 260.642,-140.964 z
M 250.68,-150.74 L 260.499,-150.773 L 260.461,-140.963 L 250.642,-140.93 z
M 240.68,-150.707 L 250.499,-150.74 L 250.461,-140.93 L 240.642,-140.897 z
M 230.68,-150.674 L 240.499,-150.706 L 240.461,-140.897 L 230.642,-140.864 z
M 220.679,-150.64 L 230.498,-150.673 L 230.461,-140.863 L 220.642,-140.83 z
M 210.679,-150.607 L 220.498,-150.64 L 220.461,-140.83 L 210.642,-140.797 z
M 200.679,-150.574 L 210.498,-150.606 L 210.46,-140.797 L 200.641,-140.764 z
M 190.679,-150.54 L 200.498,-150.573 L 200.46,-140.763 L 190.641,-140.73 z
M 180.679,-150.507 L 190.498,-150.54 L 190.46,-140.73 L 180.641,-140.697 z
M 170.679,-150.474 L 180.498,-150.506 L 180.46,-140.697 L 170.641,-140.664 z
M 160.679,-150.44 L 170.498,-150.473 L 170.46,-140.663 L 160.641,-140.63 z
M 150.678,-150.407 L 160.497,-150.44 L 160.46,-140.63 L 150.641,-140.597 z
M 140.678,-150.374 L 150.497,-150.406 L 150.46,-140.597 L 140.641,-140.564 z
M 130.678,-150.34 L 140.497,-150.373 L 140.46,-140.563 L 130.64,-140.53 z
M 120.678,-150.307 L 130.497,-150.34 L 130.459,-140.53 L 120.64,-140.497 z
M 110.678,-150.274 L 120.497,-150.306 L 120.459,-140.497 L 110.64,-140.464 z
M 100.678,-150.24 L 110.497,-150.273 L 110.459,-140.463 L 100.64,-140.43 z
M 90.6777,-150.207 L 100.497,-150.24 L 100.459,-140.43 L 90.64,-140.397 z
M 80.6776,-150.174 L 90.4966,-150.206 L 90.4589,-140.397 L 80.6398,-140.364 z
M 70.6775,-150.14 L 80.4965,-150.173 L 80.4587,-140.363 L 70.6397,-140.33 z
M 60.6773,-150.107 L 70.4963,-150.14 L 70.4586,-140.33 L 60.6396,-140.297 z
M 50.6772,-150.074 L 60.4962,-150.106 L 60.4585,-140.297 L 50.6395,-140.264 z
M 40.6771,-150.04 L 50.4961,-150.073 L 50.4583,-140.263 L 40.6393,-140.23 z
M 30.6769,-150.007 L 40.4959,-150.04 L 40.4582,-140.23 L 30.6392,-140.197 z
M 20.6768,-149.974 L 30.4958,-150.006 L 30.4581,-140.197 L 20.6391,-140.164 z
M 10.6767,-149.94 L 20.4957,-149.973 L 20.458,-140.163 L 10.6389,-140.13 z
M 0.676559,-149.907 L 10.4956,-149.94 L 10.4578,-140.13 L 0.638824,-140.097 z
M 280.642,-140.84 L 290.461,-140.873 L 290.423,-131.063 L 280.604,-131.03 z
M 270.642,-140.807 L 280.461,-140.84 L 280.423,-131.03 L 270.604,-130.997 z
M 260.641,-140.774 L 270.46,-140.806 L 270.423,-130.996 L 260.604,-130.964 z
M 250.641,-140.74 L 260.46,-140.773 L 260.423,-130.963 L 250.604,-130.93 z
M 240.641,-140.707 L 250.46,-140.74 L 250.422,-130.93 L 240.603,-130.897 z
M 230.641,-140.674 L 240.46,-140.706 L 240.422,-130.896 L 230.603,-130.864 z
M 220.641,-140.64 L 230.46,-140.673 L 230.422,-130.863 L 220.603,-130.83 z
M 210.641,-140.607 L 220.46,-140.64 L 220.422,-130.83 L 210.603,-130.797 z
M 200.641,-140.574 L 210.46,-140.606 L 210.422,-130.796 L 200.603,-130.764 z
M 190.641,-140.54 L 200.46,-140.573 L 200.422,-130.763 L 190.603,-130.73 z
M 180.64,-140.507 L 190.459,-140.54 L 190.422,-130.73 L 180.603,-130.697 z
M 170.64,-140.474 L 180.459,-140.506 L 180.422,-130.696 L 170.603,-130.664 z
M 160.64,-140.44 L 170.459,-140.473 L 170.421,-130.663 L 160.602,-130.63 z
M 150.64,-140.407 L 160.459,-140.44 L 160.421,-130.63 L 150.602,-130.597 z
M 140.64,-140.374 L 150.459,-140.406 L 150.421,-130.596 L 140.602,-130.564 z
M 130.64,-140.34 L 140.459,-140.373 L 140.421,-130.563 L 130.602,-130.53 z
M 120.64,-140.307 L 130.459,-140.34 L 130.421,-130.53 L 120.602,-130.497 z
M 110.64,-140.274 L 120.459,-140.306 L 120.421,-130.496 L 110.602,-130.464 z
M 100.639,-140.24 L 110.458,-140.273 L 110.421,-130.463 L 100.602,-130.43 z
M 90.6393,-140.207 L 100.458,-140.24 L 100.421,-130.43 L 90.6015,-130.397 z
M 80.6391,-140.174 L 90.4581,-140.206 L 90.4204,-130.396 L 80.6014,-130.364 z
M 70.639,-140.14 L 80.458,-140.173 L 80.4203,-130.363 L 70.6013,-130.33 z
M 60.6389,-140.107 L 70.4579,-140.14 L 70.4201,-130.33 L 60.6011,-130.297 z
M 50.6387,-140.074 L 60.4577,-140.106 L 60.42,-130.296 L 50.601,-130.264 z
M 40.6386,-140.04 L 50.4576,-140.073 L 50.4199,-130.263 L 40.6009,-130.23 z
M 30.6385,-140.007 L 40.4575,-140.04 L 40.4198,-130.23 L 30.6008,-130.197 z
M 20.6384,-139.974 L 30.4574,-140.006 L 30.4196,-130.196 L 20.6006,-130.164 z
M 10.6382,-139.94 L 20.4572,-139.973 L 20.4195,-130.163 L 10.6005,-130.13 z
M 0.638092,-139.907 L 10.4571,-139.94 L 10.4194,-130.13 L 0.600357,-130.097 z
M 280.603,-130.84 L 290.422,-130.873 L 290.384,-121.063 L 280.565,-121.03 z
M 270.603,-130.807 L 280.422,-130.84 L 280.384,-121.03 L 270.565,-120.997 z
M 260.603,-130.773 L 270.422,-130.806 L 270.384,-120.996 L 260.565,-120.964 z
M 250.603,-130.74 L 260.422,-130.773 L 260.384,-120.963 L 250.565,-120.93 z
M 240.603,-130.707 L 250.422,-130.74 L 250.384,-120.93 L 240.565,-120.897 z
M 230.603,-130.673 L 240.422,-130.706 L 240.384,-120.896 L 230.565,-120.864 z
M 220.602,-130.64 L 230.421,-130.673 L 230.384,-120.863 L 220.565,-120.83 z
M 210.602,-130.607 L 220.421,-130.64 L 220.384,-120.83 L 210.565,-120.797 z
M 200.602,-130.573 L 210.421,-130.606 L 210.383,-120.796 L 200.564,-120.764 z
M 190.602,-130.54 L 200.421,-130.573 L 200.383,-120.763 L 190.564,-120.73 z
M 180.602,-130.507 L 190.421,-130.54 L 190.383,-120.73 L 180.564,-120.697 z
M 170.602,-130.473 L 180.421,-130.506 L 180.383,-120.696 L 170.564,-120.664 z
M 160.602,-130.44 L 170.421,-130.473 L 170.383,-120.663 L 160.564,-120.63 z
M 150.602,-130.407 L 160.421,-130.44 L 160.383,-120.63 L 150.564,-120.597 z
M 140.601,-130.373 L 150.42,-130.406 L 150.383,-120.596 L 140.564,-120.564 z
M 130.601,-130.34 L 140.42,-130.373 L 140.383,-120.563 L 130.564,-120.53 z
M 120.601,-130.307 L 130.42,-130.34 L 130.382,-120.53 L 120.563,-120.497 z
M 110.601,-130.273 L 120.42,-130.306 L 120.382,-120.496 L 110.563,-120.464 z
M 100.601,-130.24 L 110.42,-130.273 L 110.382,-120.463 L 100.563,-120.43 z
M 90.6008,-130.207 L 100.42,-130.24 L 100.382,-120.43 L 90.563,-120.397 z
M 80.6007,-130.173 L 90.4197,-130.206 L 90.3819,-120.396 L 80.5629,-120.364 z
M 70.6005,-130.14 L 80.4195,-130.173 L 80.3818,-120.363 L 70.5628,-120.33 z
M 60.6004,-130.107 L 70.4194,-130.14 L 70.3817,-120.33 L 60.5627,-120.297 z
M 50.6003,-130.073 L 60.4193,-130.106 L 60.3815,-120.296 L 50.5625,-120.264 z
M 40.6001,-130.04 L 50.4192,-130.073 L 50.3814,-120.263 L 40.5624,-120.23 z
M 30.6,-130.007 L 40.419,-130.04 L 40.3813,-120.23 L 30.5623,-120.197 z
M 20.5999,-129.973 L 30.4189,-130.006 L 30.3812,-120.196 L 20.5622,-120.164 z
M 10.5998,-129.94 L 20.4188,-129.973 L 20.381,-120.163 L 10.562,-120.13 z
M 0.59964,-129.907 L 10.4186,-129.94 L 10.3809,-120.13 L 0.561905,-120.097 z
M 280.565,-120.84 L 290.384,-120.873 L 290.346,-111.063 L 280.527,-111.03 z
M 270.565,-120.807 L 280.384,-120.839 L 280.346,-111.029 L 270.527,-110.997 z
M 260.564,-120.773 L 270.384,-120.806 L 270.346,-110.996 L 260.527,-110.963 z
M 250.564,-120.74 L 260.383,-120.773 L 260.346,-110.963 L 250.527,-110.93 z
M 240.564,-120.707 L 250.383,-120.739 L 250.346,-110.929 L 240.527,-110.897 z
M 230.564,-120.673 L 240.383,-120.706 L 240.345,-110.896 L 230.526,-110.863 z
M 220.564,-120.64 L 230.383,-120.673 L 230.345,-110.863 L 220.526,-110.83 z
M 210.564,-120.607 L 220.383,-120.639 L 220.345,-110.829 L 210.526,-110.797 z
M 200.564,-120.573 L 210.383,-120.606 L 210.345,-110.796 L 200.526,-110.763 z
M 190.564,-120.54 L 200.383,-120.573 L 200.345,-110.763 L 190.526,-110.73 z
M 180.563,-120.507 L 190.382,-120.539 L 190.345,-110.729 L 180.526,-110.697 z
M 170.563,-120.473 L 180.382,-120.506 L 180.345,-110.696 L 170.526,-110.663 z
M 160.563,-120.44 L 170.382,-120.473 L 170.344,-110.663 L 160.525,-110.63 z
M 150.563,-120.407 L 160.382,-120.439 L 160.344,-110.629 L 150.525,-110.597 z
M 140.563,-120.373 L 150.382,-120.406 L 150.344,-110.596 L 140.525,-110.563 z
M 130.563,-120.34 L 140.382,-120.373 L 140.344,-110.563 L 130.525,-110.53 z
M 120.563,-120.307 L 130.382,-120.339 L 130.344,-110.529 L 120.525,-110.497 z
M 110.563,-120.273 L 120.382,-120.306 L 120.344,-110.496 L 110.525,-110.463 z
M 100.562,-120.24 L 110.381,-120.273 L 110.344,-110.463 L 100.525,-110.43 z
M 90.5623,-120.207 L 100.381,-120.239 L 100.344,-110.429 L 90.5246,-110.397 z
M 80.5622,-120.173 L 90.3812,-120.206 L 90.3435,-110.396 L 80.5245,-110.363 z
M 70.5621,-120.14 L 80.3811,-120.173 L 80.3433,-110.363 L 70.5243,-110.33 z
M 60.5619,-120.107 L 70.381,-120.139 L 70.3432,-110.329 L 60.5242,-110.297 z
M 50.5618,-120.073 L 60.3808,-120.106 L 60.3431,-110.296 L 50.5241,-110.263 z
M 40.5617,-120.04 L 50.3807,-120.073 L 50.343,-110.263 L 40.524,-110.23 z
M 30.5616,-120.007 L 40.3806,-120.039 L 40.3428,-110.229 L 30.5238,-110.197 z
M 20.5614,-119.973 L 30.3804,-120.006 L 30.3427,-110.196 L 20.5237,-110.163 z
M 10.5613,-119.94 L 20.3803,-119.973 L 20.3426,-110.163 L 10.5236,-110.13 z
M 0.561172,-119.907 L 10.3802,-119.939 L 10.3425,-110.129 L 0.523438,-110.097 z
M 280.526,-110.84 L 290.345,-110.873 L 290.308,-101.063 L 280.489,-101.03 z
M 270.526,-110.807 L 280.345,-110.839 L 280.307,-101.029 L 270.488,-100.997 z
M 260.526,-110.773 L 270.345,-110.806 L 270.307,-100.996 L 260.488,-100.963 z
M 250.526,-110.74 L 260.345,-110.773 L 260.307,-100.963 L 250.488,-100.93 z
M 240.526,-110.707 L 250.345,-110.739 L 250.307,-100.929 L 240.488,-100.897 z
M 230.526,-110.673 L 240.345,-110.706 L 240.307,-100.896 L 230.488,-100.863 z
M 220.526,-110.64 L 230.345,-110.673 L 230.307,-100.863 L 220.488,-100.83 z
M 210.525,-110.607 L 220.344,-110.639 L 220.307,-100.829 L 210.488,-100.797 z
M 200.525,-110.573 L 210.344,-110.606 L 210.307,-100.796 L 200.488,-100.763 z
M 190.525,-110.54 L 200.344,-110.573 L 200.306,-100.763 L 190.487,-100.73 z
M 180.525,-110.507 L 190.344,-110.539 L 190.306,-100.729 L 180.487,-100.697 z
M 170.525,-110.473 L 180.344,-110.506 L 180.306,-100.696 L 170.487,-100.663 z
M 160.525,-110.44 L 170.344,-110.473 L 170.306,-100.663 L 160.487,-100.63 z
M 150.525,-110.407 L 160.344,-110.439 L 160.306,-100.629 L 150.487,-100.597 z
M 140.525,-110.373 L 150.344,-110.406 L 150.306,-100.596 L 140.487,-100.563 z
M 130.524,-110.34 L 140.343,-110.373 L 140.306,-100.563 L 130.487,-100.53 z
M 120.524,-110.307 L 130.343,-110.339 L 130.306,-100.529 L 120.487,-100.497 z
M 110.524,-110.273 L 120.343,-110.306 L 120.305,-100.496 L 110.486,-100.463 z
M 100.524,-110.24 L 110.343,-110.273 L 110.305,-100.463 L 100.486,-100.43 z
M 90.5239,-110.207 L 100.343,-110.239 L 100.305,-100.429 L 90.4861,-100.397 z
M 80.5237,-110.173 L 90.3427,-110.206 L 90.305,-100.396 L 80.486,-100.363 z
M 70.5236,-110.14 L 80.3426,-110.173 L 80.3049,-100.363 L 70.4859,-100.33 z
M 60.5235,-110.107 L 70.3425,-110.139 L 70.3047,-100.329 L 60.4857,-100.297 z
M 50.5233,-110.073 L 60.3424,-110.106 L 60.3046,-100.296 L 50.4856,-100.263 z
M 40.5232,-110.04 L 50.3422,-110.073 L 50.3045,-100.263 L 40.4855,-100.23 z
M 30.5231,-110.007 L 40.3421,-110.039 L 40.3044,-100.229 L 30.4854,-100.197 z
M 20.523,-109.973 L 30.342,-110.006 L 30.3042,-100.196 L 20.4852,-100.163 z
M 10.5228,-109.94 L 20.3418,-109.973 L 20.3041,-100.163 L 10.4851,-100.13 z
M 0.522705,-109.907 L 10.3417,-109.939 L 10.304,-100.129 L 0.484985,-100.097 z
M 280.488,-100.84 L 290.307,-100.872 L 290.269,-91.0626 L 280.45,-91.0298 z
M 270.488,-100.806 L 280.307,-100.839 L 280.269,-91.0292 L 270.45,-90.9965 z
M 260.488,-100.773 L 270.307,-100.806 L 270.269,-90.9959 L 260.45,-90.9632 z
M 250.487,-100.74 L 260.306,-100.772 L 260.269,-90.9626 L 250.45,-90.9298 z
M 240.487,-100.706 L 250.306,-100.739 L 250.269,-90.9292 L 240.45,-90.8965 z
M 230.487,-100.673 L 240.306,-100.706 L 240.268,-90.8959 L 230.449,-90.8632 z
M 220.487,-100.64 L 230.306,-100.672 L 230.268,-90.8625 L 220.449,-90.8298 z
M 210.487,-100.606 L 220.306,-100.639 L 220.268,-90.8292 L 210.449,-90.7965 z
M 200.487,-100.573 L 210.306,-100.606 L 210.268,-90.7959 L 200.449,-90.7632 z
M 190.487,-100.54 L 200.306,-100.572 L 200.268,-90.7625 L 190.449,-90.7298 z
M 180.487,-100.506 L 190.306,-100.539 L 190.268,-90.7292 L 180.449,-90.6965 z
M 170.486,-100.473 L 180.305,-100.506 L 180.268,-90.6959 L 170.449,-90.6631 z
M 160.486,-100.44 L 170.305,-100.472 L 170.268,-90.6626 L 160.449,-90.6298 z
M 150.486,-100.406 L 160.305,-100.439 L 160.267,-90.6292 L 150.448,-90.5965 z
M 140.486,-100.373 L 150.305,-100.406 L 150.267,-90.5959 L 140.448,-90.5632 z
M 130.486,-100.34 L 140.305,-100.372 L 140.267,-90.5625 L 130.448,-90.5298 z
M 120.486,-100.306 L 130.305,-100.339 L 130.267,-90.5292 L 120.448,-90.4965 z
M 110.486,-100.273 L 120.305,-100.306 L 120.267,-90.4959 L 110.448,-90.4632 z
M 100.486,-100.24 L 110.305,-100.272 L 110.267,-90.4625 L 100.448,-90.4298 z
M 90.4854,-100.206 L 100.304,-100.239 L 100.267,-90.4292 L 90.4477,-90.3965 z
M 80.4853,-100.173 L 90.3043,-100.206 L 90.2666,-90.3959 L 80.4475,-90.3631 z
M 70.4851,-100.14 L 80.3042,-100.172 L 80.2664,-90.3625 L 70.4474,-90.3298 z
M 60.485,-100.106 L 70.304,-100.139 L 70.2663,-90.3292 L 60.4473,-90.2965 z
M 50.4849,-100.073 L 60.3039,-100.106 L 60.2662,-90.2959 L 50.4472,-90.2632 z
M 40.4848,-100.04 L 50.3038,-100.072 L 50.266,-90.2625 L 40.447,-90.2298 z
M 30.4846,-100.006 L 40.3036,-100.039 L 40.2659,-90.2292 L 30.4469,-90.1965 z
M 20.4845,-99.9731 L 30.3035,-100.006 L 30.2658,-90.1959 L 20.4468,-90.1631 z
M 10.4844,-99.9397 L 20.3034,-99.9725 L 20.2657,-90.1625 L 10.4466,-90.1298 z
M 0.484253,-99.9064 L 10.3033,-99.9391 L 10.2655,-90.1292 L 0.446518,-90.0965 z
M 280.449,-90.8396 L 290.268,-90.8723 L 290.231,-81.0624 L 280.412,-81.0297 z
M 270.449,-90.8063 L 280.268,-90.839 L 280.231,-81.0291 L 270.412,-80.9964 z
M 260.449,-90.7729 L 270.268,-90.8057 L 270.23,-80.9958 L 260.411,-80.963 z
M 250.449,-90.7396 L 260.268,-90.7724 L 260.23,-80.9624 L 250.411,-80.9297 z
M 240.449,-90.7063 L 250.268,-90.739 L 250.23,-80.9291 L 240.411,-80.8964 z
M 230.449,-90.673 L 240.268,-90.7057 L 240.23,-80.8958 L 230.411,-80.863 z
M 220.449,-90.6396 L 230.268,-90.6723 L 230.23,-80.8624 L 220.411,-80.8297 z
M 210.448,-90.6063 L 220.267,-90.639 L 220.23,-80.8291 L 210.411,-80.7964 z
M 200.448,-90.573 L 210.267,-90.6057 L 210.23,-80.7958 L 200.411,-80.763 z
M 190.448,-90.5396 L 200.267,-90.5723 L 200.229,-80.7624 L 190.41,-80.7297 z
M 180.448,-90.5063 L 190.267,-90.539 L 190.229,-80.7291 L 180.41,-80.6964 z
M 170.448,-90.4729 L 180.267,-90.5057 L 180.229,-80.6958 L 170.41,-80.663 z
M 160.448,-90.4396 L 170.267,-90.4724 L 170.229,-80.6624 L 160.41,-80.6297 z
M 150.448,-90.4063 L 160.267,-90.439 L 160.229,-80.6291 L 150.41,-80.5964 z
M 140.448,-90.3729 L 150.267,-90.4057 L 150.229,-80.5957 L 140.41,-80.563 z
M 130.447,-90.3396 L 140.266,-90.3723 L 140.229,-80.5624 L 130.41,-80.5297 z
M 120.447,-90.3063 L 130.266,-90.339 L 130.229,-80.5291 L 120.41,-80.4964 z
M 110.447,-90.2729 L 120.266,-90.3057 L 120.228,-80.4958 L 110.409,-80.463 z
M 100.447,-90.2396 L 110.266,-90.2723 L 110.228,-80.4624 L 100.409,-80.4297 z
M 90.4469,-90.2063 L 100.266,-90.239 L 100.228,-80.4291 L 90.4092,-80.3963 z
M 80.4468,-90.1729 L 90.2658,-90.2057 L 90.2281,-80.3958 L 80.4091,-80.363 z
M 70.4467,-90.1396 L 80.2657,-90.1723 L 80.228,-80.3624 L 70.409,-80.3297 z
M 60.4465,-90.1063 L 70.2656,-90.139 L 70.2278,-80.3291 L 60.4088,-80.2964 z
M 50.4464,-90.0729 L 60.2654,-90.1057 L 60.2277,-80.2957 L 50.4087,-80.263 z
M 40.4463,-90.0396 L 50.2653,-90.0723 L 50.2276,-80.2624 L 40.4086,-80.2297 z
M 30.4462,-90.0063 L 40.2652,-90.039 L 40.2274,-80.2291 L 30.4084,-80.1964 z
M 20.446,-89.9729 L 30.265,-90.0057 L 30.2273,-80.1958 L 20.4083,-80.163 z
M 10.4459,-89.9396 L 20.2649,-89.9723 L 20.2272,-80.1624 L 10.4082,-80.1297 z
M 0.445786,-89.9063 L 10.2648,-89.939 L 10.2271,-80.1291 L 0.408051,-80.0963 z
M 280.411,-80.8395 L 290.23,-80.8722 L 290.192,-71.0623 L 280.373,-71.0296 z
M 270.411,-80.8062 L 280.23,-80.8389 L 280.192,-71.029 L 270.373,-70.9962 z
M 260.411,-80.7728 L 270.23,-80.8056 L 270.192,-70.9956 L 260.373,-70.9629 z
M 250.411,-80.7395 L 260.23,-80.7722 L 260.192,-70.9623 L 250.373,-70.9296 z
M 240.41,-80.7062 L 250.229,-80.7389 L 250.192,-70.929 L 240.373,-70.8962 z
M 230.41,-80.6728 L 240.229,-80.7056 L 240.192,-70.8956 L 230.373,-70.8629 z
M 220.41,-80.6395 L 230.229,-80.6722 L 230.191,-70.8623 L 220.372,-70.8296 z
M 210.41,-80.6062 L 220.229,-80.6389 L 220.191,-70.829 L 210.372,-70.7962 z
M 200.41,-80.5728 L 210.229,-80.6055 L 210.191,-70.7956 L 200.372,-70.7629 z
M 190.41,-80.5395 L 200.229,-80.5722 L 200.191,-70.7623 L 190.372,-70.7296 z
M 180.41,-80.5061 L 190.229,-80.5389 L 190.191,-70.729 L 180.372,-70.6962 z
M 170.41,-80.4728 L 180.229,-80.5056 L 180.191,-70.6956 L 170.372,-70.6629 z
M 160.409,-80.4395 L 170.228,-80.4722 L 170.191,-70.6623 L 160.372,-70.6296 z
M 150.409,-80.4062 L 160.228,-80.4389 L 160.191,-70.629 L 150.372,-70.5962 z
M 140.409,-80.3728 L 150.228,-80.4055 L 150.19,-70.5956 L 140.371,-70.5629 z
M 130.409,-80.3395 L 140.228,-80.3722 L 140.19,-70.5623 L 130.371,-70.5296 z
M 120.409,-80.3062 L 130.228,-80.3389 L 130.19,-70.529 L 120.371,-70.4962 z
M 110.409,-80.2728 L 120.228,-80.3055 L 120.19,-70.4956 L 110.371,-70.4629 z
M 100.409,-80.2395 L 110.228,-80.2722 L 110.19,-70.4623 L 100.371,-70.4296 z
M 90.4085,-80.2061 L 100.227,-80.2389 L 100.19,-70.429 L 90.3707,-70.3962 z
M 80.4083,-80.1728 L 90.2274,-80.2056 L 90.1896,-70.3956 L 80.3706,-70.3629 z
M 70.4082,-80.1395 L 80.2272,-80.1722 L 80.1895,-70.3623 L 70.3705,-70.3296 z
M 60.4081,-80.1062 L 70.2271,-80.1389 L 70.1894,-70.3289 L 60.3704,-70.2962 z
M 50.408,-80.0728 L 60.227,-80.1055 L 60.1892,-70.2956 L 50.3702,-70.2629 z
M 40.4078,-80.0395 L 50.2268,-80.0722 L 50.1891,-70.2623 L 40.3701,-70.2296 z
M 30.4077,-80.0061 L 40.2267,-80.0389 L 40.189,-70.229 L 30.37,-70.1962 z
M 20.4076,-79.9728 L 30.2266,-80.0055 L 30.1889,-70.1956 L 20.3698,-70.1629 z
M 10.4075,-79.9395 L 20.2265,-79.9722 L 20.1887,-70.1623 L 10.3697,-70.1296 z
M 0.407318,-79.9061 L 10.2263,-79.9389 L 10.1886,-70.129 L 0.369598,-70.0962 z
M 280.372,-70.8394 L 290.191,-70.8721 L 290.154,-61.0622 L 280.335,-61.0294 z
M 270.372,-70.806 L 280.191,-70.8388 L 280.154,-61.0288 L 270.335,-60.9961 z
M 260.372,-70.7727 L 270.191,-70.8054 L 270.153,-60.9955 L 260.334,-60.9628 z
M 250.372,-70.7394 L 260.191,-70.7721 L 260.153,-60.9622 L 250.334,-60.9294 z
M 240.372,-70.706 L 250.191,-70.7388 L 250.153,-60.9288 L 240.334,-60.8961 z
M 230.372,-70.6727 L 240.191,-70.7054 L 240.153,-60.8955 L 230.334,-60.8628 z
M 220.372,-70.6394 L 230.191,-70.6721 L 230.153,-60.8622 L 220.334,-60.8294 z
M 210.372,-70.606 L 220.191,-70.6388 L 220.153,-60.8288 L 210.334,-60.7961 z
M 200.371,-70.5727 L 210.19,-70.6054 L 210.153,-60.7955 L 200.334,-60.7628 z
M 190.371,-70.5394 L 200.19,-70.5721 L 200.153,-60.7622 L 190.334,-60.7294 z
M 180.371,-70.506 L 190.19,-70.5388 L 190.152,-60.7288 L 180.333,-60.6961 z
M 170.371,-70.4727 L 180.19,-70.5054 L 180.152,-60.6955 L 170.333,-60.6628 z
M 160.371,-70.4394 L 170.19,-70.4721 L 170.152,-60.6622 L 160.333,-60.6294 z
M 150.371,-70.406 L 160.19,-70.4388 L 160.152,-60.6288 L 150.333,-60.5961 z
M 140.371,-70.3727 L 150.19,-70.4054 L 150.152,-60.5955 L 140.333,-60.5628 z
M 130.371,-70.3394 L 140.19,-70.3721 L 140.152,-60.5622 L 130.333,-60.5294 z
M 120.37,-70.306 L 130.189,-70.3388 L 130.152,-60.5288 L 120.333,-60.4961 z
M 110.37,-70.2727 L 120.189,-70.3054 L 120.152,-60.4955 L 110.333,-60.4628 z
M 100.37,-70.2393 L 110.189,-70.2721 L 110.151,-60.4622 L 100.332,-60.4294 z
M 90.37,-70.206 L 100.189,-70.2388 L 100.151,-60.4288 L 90.3323,-60.3961 z
M 80.3699,-70.1727 L 90.1889,-70.2054 L 90.1512,-60.3955 L 80.3322,-60.3628 z
M 70.3698,-70.1394 L 80.1888,-70.1721 L 80.151,-60.3622 L 70.332,-60.3294 z
M 60.3696,-70.106 L 70.1886,-70.1387 L 70.1509,-60.3288 L 60.3319,-60.2961 z
M 50.3695,-70.0727 L 60.1885,-70.1054 L 60.1508,-60.2955 L 50.3318,-60.2628 z
M 40.3694,-70.0394 L 50.1884,-70.0721 L 50.1507,-60.2622 L 40.3316,-60.2294 z
M 30.3692,-70.006 L 40.1882,-70.0388 L 40.1505,-60.2288 L 30.3315,-60.1961 z
M 20.3691,-69.9727 L 30.1881,-70.0054 L 30.1504,-60.1955 L 20.3314,-60.1628 z
M 10.369,-69.9393 L 20.188,-69.9721 L 20.1503,-60.1622 L 10.3313,-60.1294 z
M 0.368866,-69.906 L 10.1879,-69.9388 L 10.1501,-60.1288 L 0.331131,-60.0961 z
M 280.334,-60.8392 L 290.153,-60.872 L 290.115,-51.062 L 280.296,-51.0293 z
M 270.334,-60.8059 L 280.153,-60.8386 L 280.115,-51.0287 L 270.296,-50.996 z
M 260.334,-60.7726 L 270.153,-60.8053 L 270.115,-50.9954 L 260.296,-50.9626 z
M 250.334,-60.7392 L 260.153,-60.772 L 260.115,-50.962 L 250.296,-50.9293 z
M 240.333,-60.7059 L 250.152,-60.7386 L 250.115,-50.9287 L 240.296,-50.896 z
M 230.333,-60.6726 L 240.152,-60.7053 L 240.115,-50.8954 L 230.296,-50.8626 z
M 220.333,-60.6392 L 230.152,-60.672 L 230.115,-50.862 L 220.295,-50.8293 z
M 210.333,-60.6059 L 220.152,-60.6386 L 220.114,-50.8287 L 210.295,-50.796 z
M 200.333,-60.5726 L 210.152,-60.6053 L 210.114,-50.7954 L 200.295,-50.7626 z
M 190.333,-60.5392 L 200.152,-60.572 L 200.114,-50.762 L 190.295,-50.7293 z
M 180.333,-60.5059 L 190.152,-60.5386 L 190.114,-50.7287 L 180.295,-50.696 z
M 170.333,-60.4726 L 180.152,-60.5053 L 180.114,-50.6954 L 170.295,-50.6626 z
M 160.332,-60.4392 L 170.151,-60.472 L 170.114,-50.662 L 160.295,-50.6293 z
M 150.332,-60.4059 L 160.151,-60.4386 L 160.114,-50.6287 L 150.295,-50.596 z
M 140.332,-60.3726 L 150.151,-60.4053 L 150.113,-50.5954 L 140.294,-50.5626 z
M 130.332,-60.3392 L 140.151,-60.372 L 140.113,-50.562 L 130.294,-50.5293 z
M 120.332,-60.3059 L 130.151,-60.3386 L 130.113,-50.5287 L 120.294,-50.496 z
M 110.332,-60.2726 L 120.151,-60.3053 L 120.113,-50.4954 L 110.294,-50.4626 z
M 100.332,-60.2392 L 110.151,-60.272 L 110.113,-50.462 L 100.294,-50.4293 z
M 90.3316,-60.2059 L 100.151,-60.2386 L 100.113,-50.4287 L 90.2938,-50.396 z
M 80.3314,-60.1726 L 90.1504,-60.2053 L 90.1127,-50.3954 L 80.2937,-50.3626 z
M 70.3313,-60.1392 L 80.1503,-60.172 L 80.1126,-50.362 L 70.2936,-50.3293 z
M 60.3312,-60.1059 L 70.1502,-60.1386 L 70.1124,-50.3287 L 60.2934,-50.296 z
M 50.331,-60.0726 L 60.15,-60.1053 L 60.1123,-50.2954 L 50.2933,-50.2626 z
M 40.3309,-60.0392 L 50.1499,-60.072 L 50.1122,-50.262 L 40.2932,-50.2293 z
M 30.3308,-60.0059 L 40.1498,-60.0386 L 40.1121,-50.2287 L 30.293,-50.196 z
M 20.3307,-59.9726 L 30.1497,-60.0053 L 30.1119,-50.1954 L 20.2929,-50.1626 z
M 10.3305,-59.9392 L 20.1495,-59.972 L 20.1118,-50.162 L 10.2928,-50.1293 z
M 0.330399,-59.9059 L 10.1494,-59.9386 L 10.1117,-50.1287 L 0.292664,-50.096 z
M 280.296,-50.8391 L 290.115,-50.8718 L 290.077,-41.0619 L 280.258,-41.0292 z
M 270.295,-50.8058 L 280.114,-50.8385 L 280.077,-41.0286 L 270.258,-40.9958 z
M 260.295,-50.7724 L 270.114,-50.8052 L 270.077,-40.9952 L 260.258,-40.9625 z
M 250.295,-50.7391 L 260.114,-50.7718 L 260.076,-40.9619 L 250.257,-40.9292 z
M 240.295,-50.7058 L 250.114,-50.7385 L 250.076,-40.9286 L 240.257,-40.8958 z
M 230.295,-50.6724 L 240.114,-50.7052 L 240.076,-40.8952 L 230.257,-40.8625 z
M 220.295,-50.6391 L 230.114,-50.6718 L 230.076,-40.8619 L 220.257,-40.8292 z
M 210.295,-50.6058 L 220.114,-50.6385 L 220.076,-40.8286 L 210.257,-40.7959 z
M 200.294,-50.5724 L 210.114,-50.6052 L 210.076,-40.7952 L 200.257,-40.7625 z
M 190.294,-50.5391 L 200.113,-50.5718 L 200.076,-40.7619 L 190.257,-40.7292 z
M 180.294,-50.5058 L 190.113,-50.5385 L 190.076,-40.7286 L 180.257,-40.6958 z
M 170.294,-50.4724 L 180.113,-50.5052 L 180.075,-40.6952 L 170.256,-40.6625 z
M 160.294,-50.4391 L 170.113,-50.4718 L 170.075,-40.6619 L 160.256,-40.6292 z
M 150.294,-50.4058 L 160.113,-50.4385 L 160.075,-40.6286 L 150.256,-40.5958 z
M 140.294,-50.3724 L 150.113,-50.4052 L 150.075,-40.5952 L 140.256,-40.5625 z
M 130.294,-50.3391 L 140.113,-50.3718 L 140.075,-40.5619 L 130.256,-40.5292 z
M 120.293,-50.3058 L 130.112,-50.3385 L 130.075,-40.5286 L 120.256,-40.4958 z
M 110.293,-50.2724 L 120.112,-50.3052 L 120.075,-40.4952 L 110.256,-40.4625 z
M 100.293,-50.2391 L 110.112,-50.2718 L 110.074,-40.4619 L 100.255,-40.4292 z
M 90.2931,-50.2058 L 100.112,-50.2385 L 100.074,-40.4286 L 90.2554,-40.3958 z
M 80.293,-50.1724 L 90.112,-50.2052 L 90.0742,-40.3952 L 80.2552,-40.3625 z
M 70.2928,-50.1391 L 80.1118,-50.1718 L 80.0741,-40.3619 L 70.2551,-40.3292 z
M 60.2927,-50.1058 L 70.1117,-50.1385 L 70.074,-40.3286 L 60.255,-40.2958 z
M 50.2926,-50.0724 L 60.1116,-50.1052 L 60.0739,-40.2952 L 50.2549,-40.2625 z
M 40.2924,-50.0391 L 50.1115,-50.0718 L 50.0737,-40.2619 L 40.2547,-40.2292 z
M 30.2923,-50.0058 L 40.1113,-50.0385 L 40.0736,-40.2286 L 30.2546,-40.1958 z
M 20.2922,-49.9724 L 30.1112,-50.0052 L 30.0735,-40.1952 L 20.2545,-40.1625 z
M 10.2921,-49.9391 L 20.1111,-49.9718 L 20.0733,-40.1619 L 10.2543,-40.1292 z
M 0.291931,-49.9058 L 10.1109,-49.9385 L 10.0732,-40.1286 L 0.254211,-40.0958 z
M 290.257,-40.8723 L 300.031,-40.9049 L 300.076,-40.9676 L 300.038,-31.0847 L 300.031,-31.0951 L 290.219,-31.0624
 z
M 280.257,-40.839 L 290.076,-40.8717 L 290.038,-31.0618 L 280.219,-31.0291 z
M 270.257,-40.8056 L 280.076,-40.8384 L 280.038,-31.0285 L 270.219,-30.9957 z
M 260.257,-40.7723 L 270.076,-40.805 L 270.038,-30.9951 L 260.219,-30.9624 z
M 250.257,-40.739 L 260.076,-40.7717 L 260.038,-30.9618 L 250.219,-30.929 z
M 240.257,-40.7056 L 250.076,-40.7384 L 250.038,-30.9285 L 240.219,-30.8957 z
M 230.256,-40.6723 L 240.075,-40.705 L 240.038,-30.8951 L 230.219,-30.8624 z
M 220.256,-40.639 L 230.075,-40.6717 L 230.038,-30.8618 L 220.219,-30.8291 z
M 210.256,-40.6056 L 220.075,-40.6384 L 220.037,-30.8284 L 210.218,-30.7957 z
M 200.256,-40.5723 L 210.075,-40.605 L 210.037,-30.7951 L 200.218,-30.7624 z
M 190.256,-40.539 L 200.075,-40.5717 L 200.037,-30.7618 L 190.218,-30.729 z
M 180.256,-40.5056 L 190.075,-40.5384 L 190.037,-30.7284 L 180.218,-30.6957 z
M 170.256,-40.4723 L 180.075,-40.505 L 180.037,-30.6951 L 170.218,-30.6624 z
M 160.256,-40.439 L 170.075,-40.4717 L 170.037,-30.6618 L 160.218,-30.629 z
M 150.255,-40.4056 L 160.074,-40.4384 L 160.037,-30.6284 L 150.218,-30.5957 z
M 140.255,-40.3723 L 150.074,-40.405 L 150.037,-30.5951 L 140.218,-30.5624 z
M 130.255,-40.339 L 140.074,-40.3717 L 140.036,-30.5618 L 130.217,-30.5291 z
M 120.255,-40.3056 L 130.074,-40.3384 L 130.036,-30.5284 L 120.217,-30.4957 z
M 110.255,-40.2723 L 120.074,-40.305 L 120.036,-30.4951 L 110.217,-30.4624 z
M 100.255,-40.239 L 110.074,-40.2717 L 110.036,-30.4618 L 100.217,-30.429 z
M 90.2546,-40.2056 L 100.074,-40.2384 L 100.036,-30.4284 L 90.2169,-30.3957 z
M 80.2545,-40.1723 L 90.0735,-40.205 L 90.0358,-30.3951 L 80.2168,-30.3624 z
M 70.2544,-40.139 L 80.0734,-40.1717 L 80.0356,-30.3618 L 70.2166,-30.329 z
M 60.2542,-40.1056 L 70.0733,-40.1384 L 70.0355,-30.3284 L 60.2165,-30.2957 z
M 50.2541,-40.0723 L 60.0731,-40.105 L 60.0354,-30.2951 L 50.2164,-30.2624 z
M 40.254,-40.039 L 50.073,-40.0717 L 50.0353,-30.2618 L 40.2163,-30.229 z
M 30.2539,-40.0056 L 40.0729,-40.0384 L 40.0351,-30.2284 L 30.2161,-30.1957 z
M 20.2537,-39.9723 L 30.0727,-40.005 L 30.035,-30.1951 L 20.216,-30.1624 z
M 10.2536,-39.939 L 20.0726,-39.9717 L 20.0349,-30.1618 L 10.2159,-30.129 z
M 0.253479,-39.9056 L 10.0725,-39.9384 L 10.0347,-30.1284 L 0.215744,-30.0957 z
M 290.219,-30.8722 L 300.031,-30.9049 L 300.038,-30.9144 L 300,-21.095 L 290.181,-21.0623 z
M 280.219,-30.8389 L 290.038,-30.8716 L 290,-21.0617 L 280.181,-21.0289 z
M 270.218,-30.8055 L 280.037,-30.8382 L 280,-21.0283 L 270.181,-20.9956 z
M 260.218,-30.7722 L 270.037,-30.8049 L 270,-20.995 L 260.181,-20.9623 z
M 250.218,-30.7388 L 260.037,-30.7716 L 259.999,-20.9617 L 250.18,-20.9289 z
M 240.218,-30.7055 L 250.037,-30.7383 L 249.999,-20.9283 L 240.18,-20.8956 z
M 230.218,-30.6722 L 240.037,-30.7049 L 239.999,-20.895 L 230.18,-20.8623 z
M 220.218,-30.6389 L 230.037,-30.6716 L 229.999,-20.8616 L 220.18,-20.8289 z
M 210.218,-30.6055 L 220.037,-30.6382 L 219.999,-20.8283 L 210.18,-20.7956 z
M 200.218,-30.5722 L 210.037,-30.6049 L 209.999,-20.795 L 200.18,-20.7623 z
M 190.217,-30.5388 L 200.036,-30.5716 L 199.999,-20.7617 L 190.18,-20.7289 z
M 180.217,-30.5055 L 190.036,-30.5382 L 189.999,-20.7283 L 180.18,-20.6956 z
M 170.217,-30.4722 L 180.036,-30.5049 L 179.998,-20.695 L 170.179,-20.6623 z
M 160.217,-30.4388 L 170.036,-30.4716 L 169.998,-20.6617 L 160.179,-20.6289 z
M 150.217,-30.4055 L 160.036,-30.4382 L 159.998,-20.6283 L 150.179,-20.5956 z
M 140.217,-30.3722 L 150.036,-30.4049 L 149.998,-20.595 L 140.179,-20.5623 z
M 130.217,-30.3389 L 140.036,-30.3716 L 139.998,-20.5616 L 130.179,-20.5289 z
M 120.217,-30.3055 L 130.036,-30.3382 L 129.998,-20.5283 L 120.179,-20.4956 z
M 110.216,-30.2722 L 120.035,-30.3049 L 119.998,-20.495 L 110.179,-20.4622 z
M 100.216,-30.2388 L 110.035,-30.2716 L 109.998,-20.4617 L 100.179,-20.4289 z
M 90.2162,-30.2055 L 100.035,-30.2382 L 99.9974,-20.4283 L 90.1784,-20.3956 z
M 80.216,-30.1722 L 90.035,-30.2049 L 89.9973,-20.395 L 80.1783,-20.3622 z
M 70.2159,-30.1388 L 80.0349,-30.1716 L 79.9972,-20.3616 L 70.1782,-20.3289 z
M 60.2158,-30.1055 L 70.0348,-30.1382 L 69.9971,-20.3283 L 60.1781,-20.2956 z
M 50.2157,-30.0722 L 60.0347,-30.1049 L 59.9969,-20.295 L 50.1779,-20.2623 z
M 40.2155,-30.0388 L 50.0345,-30.0716 L 49.9968,-20.2616 L 40.1778,-20.2289 z
M 30.2154,-30.0055 L 40.0344,-30.0382 L 39.9967,-20.2283 L 30.1777,-20.1956 z
M 20.2153,-29.9722 L 30.0343,-30.0049 L 29.9966,-20.195 L 20.1775,-20.1622 z
M 10.2151,-29.9388 L 20.0341,-29.9716 L 19.9964,-20.1617 L 10.1774,-20.1289 z
M 0.215012,-29.9055 L 10.034,-29.9382 L 9.99629,-20.1283 L 0.177277,-20.0956 z
M 290.18,-20.8721 L 299.999,-20.9048 L 299.962,-11.0949 L 290.143,-11.0621 z
M 280.18,-20.8387 L 289.999,-20.8715 L 289.961,-11.0615 L 280.142,-11.0288 z
M 270.18,-20.8054 L 279.999,-20.8381 L 279.961,-11.0282 L 270.142,-10.9955 z
M 260.18,-20.772 L 269.999,-20.8048 L 269.961,-10.9949 L 260.142,-10.9621 z
M 250.18,-20.7387 L 259.999,-20.7715 L 259.961,-10.9615 L 250.142,-10.9288 z
M 240.18,-20.7054 L 249.999,-20.7381 L 249.961,-10.9282 L 240.142,-10.8955 z
M 230.18,-20.6721 L 239.999,-20.7048 L 239.961,-10.8949 L 230.142,-10.8621 z
M 220.179,-20.6387 L 229.998,-20.6714 L 229.961,-10.8615 L 220.142,-10.8288 z
M 210.179,-20.6054 L 219.998,-20.6381 L 219.961,-10.8282 L 210.142,-10.7955 z
M 200.179,-20.5721 L 209.998,-20.6048 L 209.96,-10.7949 L 200.141,-10.7621 z
M 190.179,-20.5387 L 199.998,-20.5714 L 199.96,-10.7615 L 190.141,-10.7288 z
M 180.179,-20.5054 L 189.998,-20.5381 L 189.96,-10.7282 L 180.141,-10.6955 z
M 170.179,-20.472 L 179.998,-20.5048 L 179.96,-10.6949 L 170.141,-10.6621 z
M 160.179,-20.4387 L 169.998,-20.4715 L 169.96,-10.6615 L 160.141,-10.6288 z
M 150.178,-20.4054 L 159.997,-20.4381 L 159.96,-10.6282 L 150.141,-10.5955 z
M 140.178,-20.3721 L 149.997,-20.4048 L 149.96,-10.5948 L 140.141,-10.5621 z
M 130.178,-20.3387 L 139.997,-20.3714 L 139.959,-10.5615 L 130.14,-10.5288 z
M 120.178,-20.3054 L 129.997,-20.3381 L 129.959,-10.5282 L 120.14,-10.4955 z
M 110.178,-20.272 L 119.997,-20.3048 L 119.959,-10.4949 L 110.14,-10.4621 z
M 100.178,-20.2387 L 109.997,-20.2714 L 109.959,-10.4615 L 100.14,-10.4288 z
M 90.1777,-20.2054 L 99.9967,-20.2381 L 99.959,-10.4282 L 90.14,-10.3955 z
M 80.1776,-20.172 L 89.9966,-20.2048 L 89.9588,-10.3949 L 80.1398,-10.3621 z
M 70.1774,-20.1387 L 79.9965,-20.1714 L 79.9587,-10.3615 L 70.1397,-10.3288 z
M 60.1773,-20.1054 L 69.9963,-20.1381 L 69.9586,-10.3282 L 60.1396,-10.2955 z
M 50.1772,-20.0721 L 59.9962,-20.1048 L 59.9585,-10.2948 L 50.1395,-10.2621 z
M 40.1771,-20.0387 L 49.9961,-20.0714 L 49.9583,-10.2615 L 40.1393,-10.2288 z
M 30.1769,-20.0054 L 39.9959,-20.0381 L 39.9582,-10.2282 L 30.1392,-10.1954 z
M 20.1768,-19.972 L 29.9958,-20.0048 L 29.9581,-10.1949 L 20.1391,-10.1621 z
M 10.1767,-19.9387 L 19.9957,-19.9714 L 19.958,-10.1615 L 10.1389,-10.1288 z
M 0.176544,-19.9054 L 9.99556,-19.9381 L 9.95782,-10.1282 L 0.138824,-10.0955 z
M 290.142,-10.8719 L 299.961,-10.9047 L 299.923,-1.09473 L 290.104,-1.062 z
M 280.142,-10.8386 L 289.961,-10.8713 L 289.923,-1.0614 L 280.104,-1.02867 z
M 270.142,-10.8053 L 279.961,-10.838 L 279.923,-1.02806 L 270.104,-0.995331 z
M 260.141,-10.7719 L 269.96,-10.8047 L 269.923,-0.994736 L 260.104,-0.962006 z
M 250.141,-10.7386 L 259.96,-10.7713 L 259.923,-0.961395 L 250.104,-0.928665 z
M 240.141,-10.7053 L 249.96,-10.738 L 249.922,-0.92807 L 240.103,-0.89534 z
M 230.141,-10.6719 L 239.96,-10.7047 L 239.922,-0.89473 L 230.103,-0.862 z
M 220.141,-10.6386 L 229.96,-10.6713 L 229.922,-0.861404 L 220.103,-0.828674 z
M 210.141,-10.6053 L 219.96,-10.638 L 219.922,-0.828064 L 210.103,-0.795334 z
M 200.141,-10.5719 L 209.96,-10.6047 L 209.922,-0.794724 L 200.103,-0.761993 z
M 190.141,-10.5386 L 199.96,-10.5713 L 199.922,-0.761398 L 190.103,-0.728668 z
M 180.14,-10.5053 L 189.959,-10.538 L 189.922,-0.728058 L 180.103,-0.695328 z
M 170.14,-10.4719 L 179.959,-10.5047 L 179.922,-0.694733 L 170.103,-0.662003 z
M 160.14,-10.4386 L 169.959,-10.4713 L 169.921,-0.661392 L 160.102,-0.628662 z
M 150.14,-10.4053 L 159.959,-10.438 L 159.921,-0.628067 L 150.102,-0.595337 z
M 140.14,-10.3719 L 149.959,-10.4046 L 149.921,-0.594727 L 140.102,-0.561996 z
M 130.14,-10.3386 L 139.959,-10.3713 L 139.921,-0.561386 L 130.102,-0.528656 z
M 120.14,-10.3053 L 129.959,-10.338 L 129.921,-0.528061 L 120.102,-0.495331 z
M 110.139,-10.2719 L 119.959,-10.3047 L 119.921,-0.49472 L 110.102,-0.46199 z
M 100.139,-10.2386 L 109.958,-10.2713 L 109.921,-0.461395 L 100.102,-0.428665 z
M 90.1392,-10.2052 L 99.9583,-10.238 L 99.9205,-0.428055 L 90.1015,-0.395325 z
M 80.1391,-10.1719 L 89.9581,-10.2047 L 89.9204,-0.39473 L 80.1014,-0.362 z
M 70.139,-10.1386 L 79.958,-10.1713 L 79.9203,-0.361389 L 70.1013,-0.328659 z
M 60.1389,-10.1053 L 69.9579,-10.138 L 69.9201,-0.328064 L 60.1011,-0.295334 z
M 50.1387,-10.0719 L 59.9577,-10.1046 L 59.92,-0.294724 L 50.101,-0.261993 z
M 40.1386,-10.0386 L 49.9576,-10.0713 L 49.9199,-0.261383 L 40.1009,-0.228653 z
M 30.1385,-10.0052 L 39.9575,-10.038 L 39.9198,-0.228058 L 30.1007,-0.195328 z
M 20.1384,-9.97192 L 29.9574,-10.0047 L 29.9196,-0.194717 L 20.1006,-0.161987 z
M 10.1382,-9.93858 L 19.9572,-9.97131 L 19.9195,-0.161392 L 10.1005,-0.128662 z
M 0.138092,-9.90524 L 9.95709,-9.93797 L 9.91936,-0.128052 L 0.100357,-0.0953217 z
" stroke="black" fill="lightgray" stroke-width="0.5"/>
</svg>
