<?xml version="1.0" standalone="no"?>
<!DOCTYPE svg PUBLIC "-//W3C//DTD SVG 1.1//EN" "http://www.w3.org/Graphics/SVG/1.1/DTD/svg11.dtd">
<svg width="301mm" height="261mm" viewBox="0 -261 301 261" xmlns="http://www.w3.org/2000/svg" version="1.1">
<title>OpenSCAD Model</title>
<path d="
M 1,-251 L 1,-260 L 0,-260 L 0,-0 L 301,-0 L 301,-260
 L 300,-260 L 300,-251 L 291,-251 L 291,-260 L 300,-260 L 300,-261
 L 0,-261 L 0,-260 L 10,-260 L 10,-251 z
M 1,-241 L 1,-250 L 10,-250 L 10,-241 z
M 11,-241 L 11,-250 L 20,-250 L 20,-241 z
M 21,-241 L 21,-250 L 30,-250 L 30,-241 z
M 31,-241 L 31,-250 L 40,-250 L 40,-241 z
M 41,-241 L 41,-250 L 50,-250 L 50,-241 z
M 51,-241 L 51,-250 L 60,-250 L 60,-241 z
M 61,-241 L 61,-250 L 70,-250 L 70,-241 z
M 71,-241 L 71,-250 L 80,-250 L 80,-241 z
M 81,-241 L 81,-250 L 90,-250 L 90,-241 z
M 91,-241 L 91,-250 L 100,-250 L 100,-241 z
M 101,-241 L 101,-250 L 110,-250 L 110,-241 z
M 111,-241 L 111,-250 L 120,-250 L 120,-241 z
M 121,-241 L 121,-250 L 130,-250 L 130,-241 z
M 131,-241 L 131,-250 L 140,-250 L 140,-241 z
M 141,-241 L 141,-250 L 150,-250 L 150,-241 z
M 151,-241 L 151,-250 L 160,-250 L 160,-241 z
M 161,-241 L 161,-250 L 170,-250 L 170,-241 z
M 171,-241 L 171,-250 L 180,-250 L 180,-241 z
M 181,-241 L 181,-250 L 190,-250 L 190,-241 z
M 191,-241 L 191,-250 L 200,-250 L 200,-241 z
M 201,-241 L 201,-250 L 210,-250 L 210,-241 z
M 211,-241 L 211,-250 L 220,-250 L 220,-241 z
M 221,-241 L 221,-250 L 230,-250 L 230,-241 z
M 231,-241 L 231,-250 L 240,-250 L 240,-241 z
M 241,-241 L 241,-250 L 250,-250 L 250,-241 z
M 251,-241 L 251,-250 L 260,-250 L 260,-241 z
M 261,-241 L 261,-250 L 270,-250 L 270,-241 z
M 271,-241 L 271,-250 L 280,-250 L 280,-241 z
M 281,-241 L 281,-250 L 290,-250 L 290,-241 z
M 291,-241 L 291,-250 L 300,-250 L 300,-241 z
M 1,-231 L 1,-240 L 10,-240 L 10,-231 z
M 11,-231 L 11,-240 L 20,-240 L 20,-231 z
M 21,-231 L 21,-240 L 30,-240 L 30,-231 z
M 31,-231 L 31,-240 L 40,-240 L 40,-231 z
M 41,-231 L 41,-240 L 50,-240 L 50,-231 z
M 51,-231 L 51,-240 L 60,-240 L 60,-231 z
M 61,-231 L 61,-240 L 70,-240 L 70,-231 z
M 71,-231 L 71,-240 L 80,-240 L 80,-231 z
M 81,-231 L 81,-240 L 90,-240 L 90,-231 z
M 91,-231 L 91,-240 L 100,-240 L 100,-231 z
M 101,-231 L 101,-240 L 110,-240 L 110,-231 z
M 111,-231 L 111,-240 L 120,-240 L 120,-231 z
M 121,-231 L 121,-240 L 130,-240 L 130,-231 z
M 131,-231 L 131,-240 L 140,-240 L 140,-231 z
M 141,-231 L 141,-240 L 150,-240 L 150,-231 z
M 151,-231 L 151,-240 L 160,-240 L 160,-231 z
M 161,-231 L 161,-240 L 170,-240 L 170,-231 z
M 171,-231 L 171,-240 L 180,-240 L 180,-231 z
M 181,-231 L 181,-240 L 190,-240 L 190,-231 z
M 191,-231 L 191,-240 L 200,-240 L 200,-231 z
M 201,-231 L 201,-240 L 210,-240 L 210,-231 z
M 211,-231 L 211,-240 L 220,-240 L 220,-231 z
M 221,-231 L 221,-240 L 230,-240 L 230,-231 z
M 231,-231 L 231,-240 L 240,-240 L 240,-231 z
M 241,-231 L 241,-240 L 250,-240 L 250,-231 z
M 251,-231 L 251,-240 L 260,-240 L 260,-231 z
M 261,-231 L 261,-240 L 270,-240 L 270,-231 z
M 271,-231 L 271,-240 L 280,-240 L 280,-231 z
M 281,-231 L 281,-240 L 290,-240 L 290,-231 z
M 291,-231 L 291,-240 L 300,-240 L 300,-231 z
M 1,-221 L 1,-230 L 10,-230 L 10,-221 z
M 11,-221 L 11,-230 L 20,-230 L 20,-221 z
M 21,-221 L 21,-230 L 30,-230 L 30,-221 z
M 31,-221 L 31,-230 L 40,-230 L 40,-221 z
M 41,-221 L 41,-230 L 50,-230 L 50,-221 z
M 51,-221 L 51,-230 L 60,-230 L 60,-221 z
M 61,-221 L 61,-230 L 70,-230 L 70,-221 z
M 71,-221 L 71,-230 L 80,-230 L 80,-221 z
M 81,-221 L 81,-230 L 90,-230 L 90,-221 z
M 91,-221 L 91,-230 L 100,-230 L 100,-221 z
M 101,-221 L 101,-230 L 110,-230 L 110,-221 z
M 111,-221 L 111,-230 L 120,-230 L 120,-221 z
M 121,-221 L 121,-230 L 130,-230 L 130,-221 z
M 131,-221 L 131,-230 L 140,-230 L 140,-221 z
M 141,-221 L 141,-230 L 150,-230 L 150,-221 z
M 151,-221 L 151,-230 L 160,-230 L 160,-221 z
M 161,-221 L 161,-230 L 170,-230 L 170,-221 z
M 171,-221 L 171,-230 L 180,-230 L 180,-221 z
M 181,-221 L 181,-230 L 190,-230 L 190,-221 z
M 191,-221 L 191,-230 L 200,-230 L 200,-221 z
M 201,-221 L 201,-230 L 210,-230 L 210,-221 z
M 211,-221 L 211,-230 L 220,-230 L 220,-221 z
M 221,-221 L 221,-230 L 230,-230 L 230,-221 z
M 231,-221 L 231,-230 L 240,-230 L 240,-221 z
M 241,-221 L 241,-230 L 250,-230 L 250,-221 z
M 251,-221 L 251,-230 L 260,-230 L 260,-221 z
M 261,-221 L 261,-230 L 270,-230 L 270,-221 z
M 271,-221 L 271,-230 L 280,-230 L 280,-221 z
M 281,-221 L 281,-230 L 290,-230 L 290,-221 z
M 291,-221 L 291,-230 L 300,-230 L 300,-221 z
M 1,-211 L 1,-220 L 10,-220 L 10,-211 z
M 11,-211 L 11,-220 L 20,-220 L 20,-211 z
M 21,-211 L 21,-220 L 30,-220 L 30,-211 z
M 31,-211 L 31,-220 L 40,-220 L 40,-211 z
M 41,-211 L 41,-220 L 50,-220 L 50,-211 z
M 51,-211 L 51,-220 L 60,-220 L 60,-211 z
M 61,-211 L 61,-220 L 70,-220 L 70,-211 z
M 71,-211 L 71,-220 L 80,-220 L 80,-211 z
M 81,-211 L 81,-220 L 90,-220 L 90,-211 z
M 91,-211 L 91,-220 L 100,-220 L 100,-211 z
M 101,-211 L 101,-220 L 110,-220 L 110,-211 z
M 111,-211 L 111,-220 L 120,-220 L 120,-211 z
M 121,-211 L 121,-220 L 130,-220 L 130,-211 z
M 131,-211 L 131,-220 L 140,-220 L 140,-211 z
M 141,-211 L 141,-220 L 150,-220 L 150,-211 z
M 151,-211 L 151,-220 L 160,-220 L 160,-211 z
M 161,-211 L 161,-220 L 170,-220 L 170,-211 z
M 171,-211 L 171,-220 L 180,-220 L 180,-211 z
M 181,-211 L 181,-220 L 190,-220 L 190,-211 z
M 191,-211 L 191,-220 L 200,-220 L 200,-211 z
M 201,-211 L 201,-220 L 210,-220 L 210,-211 z
M 211,-211 L 211,-220 L 220,-220 L 220,-211 z
M 221,-211 L 221,-220 L 230,-220 L 230,-211 z
M 231,-211 L 231,-220 L 240,-220 L 240,-211 z
M 241,-211 L 241,-220 L 250,-220 L 250,-211 z
M 251,-211 L 251,-220 L 260,-220 L 260,-211 z
M 261,-211 L 261,-220 L 270,-220 L 270,-211 z
M 271,-211 L 271,-220 L 280,-220 L 280,-211 z
M 281,-211 L 281,-220 L 290,-220 L 290,-211 z
M 291,-211 L 291,-220 L 300,-220 L 300,-211 z
M 1,-201 L 1,-210 L 10,-210 L 10,-201 z
M 11,-201 L 11,-210 L 20,-210 L 20,-201 z
M 21,-201 L 21,-210 L 30,-210 L 30,-201 z
M 31,-201 L 31,-210 L 40,-210 L 40,-201 z
M 41,-201 L 41,-210 L 50,-210 L 50,-201 z
M 51,-201 L 51,-210 L 60,-210 L 60,-201 z
M 61,-201 L 61,-210 L 70,-210 L 70,-201 z
M 71,-201 L 71,-210 L 80,-210 L 80,-201 z
M 81,-201 L 81,-210 L 90,-210 L 90,-201 z
M 91,-201 L 91,-210 L 100,-210 L 100,-201 z
M 101,-201 L 101,-210 L 110,-210 L 110,-201 z
M 111,-201 L 111,-210 L 120,-210 L 120,-201 z
M 121,-201 L 121,-210 L 130,-210 L 130,-201 z
M 131,-201 L 131,-210 L 140,-210 L 140,-201 z
M 141,-201 L 141,-210 L 150,-210 L 150,-201 z
M 151,-201 L 151,-210 L 160,-210 L 160,-201 z
M 161,-201 L 161,-210 L 170,-210 L 170,-201 z
M 171,-201 L 171,-210 L 180,-210 L 180,-201 z
M 181,-201 L 181,-210 L 190,-210 L 190,-201 z
M 191,-201 L 191,-210 L 200,-210 L 200,-201 z
M 201,-201 L 201,-210 L 210,-210 L 210,-201 z
M 211,-201 L 211,-210 L 220,-210 L 220,-201 z
M 221,-201 L 221,-210 L 230,-210 L 230,-201 z
M 231,-201 L 231,-210 L 240,-210 L 240,-201 z
M 241,-201 L 241,-210 L 250,-210 L 250,-201 z
M 251,-201 L 251,-210 L 260,-210 L 260,-201 z
M 261,-201 L 261,-210 L 270,-210 L 270,-201 z
M 271,-201 L 271,-210 L 280,-210 L 280,-201 z
M 281,-201 L 281,-210 L 290,-210 L 290,-201 z
M 291,-201 L 291,-210 L 300,-210 L 300,-201 z
M 1,-191 L 1,-200 L 10,-200 L 10,-191 z
M 11,-191 L 11,-200 L 20,-200 L 20,-191 z
M 21,-191 L 21,-200 L 30,-200 L 30,-191 z
M 31,-191 L 31,-200 L 40,-200 L 40,-191 z
M 41,-191 L 41,-200 L 50,-200 L 50,-191 z
M 51,-191 L 51,-200 L 60,-200 L 60,-191 z
M 61,-191 L 61,-200 L 70,-200 L 70,-191 z
M 71,-191 L 71,-200 L 80,-200 L 80,-191 z
M 81,-191 L 81,-200 L 90,-200 L 90,-191 z
M 91,-191 L 91,-200 L 100,-200 L 100,-191 z
M 101,-191 L 101,-200 L 110,-200 L 110,-191 z
M 111,-191 L 111,-200 L 120,-200 L 120,-191 z
M 121,-191 L 121,-200 L 130,-200 L 130,-191 z
M 131,-191 L 131,-200 L 140,-200 L 140,-191 z
M 141,-191 L 141,-200 L 150,-200 L 150,-191 z
M 151,-191 L 151,-200 L 160,-200 L 160,-191 z
M 161,-191 L 161,-200 L 170,-200 L 170,-191 z
M 171,-191 L 171,-200 L 180,-200 L 180,-191 z
M 181,-191 L 181,-200 L 190,-200 L 190,-191 z
M 191,-191 L 191,-200 L 200,-200 L 200,-191 z
M 201,-191 L 201,-200 L 210,-200 L 210,-191 z
M 211,-191 L 211,-200 L 220,-200 L 220,-191 z
M 221,-191 L 221,-200 L 230,-200 L 230,-191 z
M 231,-191 L 231,-200 L 240,-200 L 240,-191 z
M 241,-191 L 241,-200 L 250,-200 L 250,-191 z
M 251,-191 L 251,-200 L 260,-200 L 260,-191 z
M 261,-191 L 261,-200 L 270,-200 L 270,-191 z
M 271,-191 L 271,-200 L 280,-200 L 280,-191 z
M 281,-191 L 281,-200 L 290,-200 L 290,-191 z
M 291,-191 L 291,-200 L 300,-200 L 300,-191 z
M 1,-181 L 1,-190 L 10,-190 L 10,-181 z
M 11,-181 L 11,-190 L 20,-190 L 20,-181 z
M 21,-181 L 21,-190 L 30,-190 L 30,-181 z
M 31,-181 L 31,-190 L 40,-190 L 40,-181 z
M 41,-181 L 41,-190 L 50,-190 L 50,-181 z
M 51,-181 L 51,-190 L 60,-190 L 60,-181 z
M 61,-181 L 61,-190 L 70,-190 L 70,-181 z
M 71,-181 L 71,-190 L 80,-190 L 80,-181 z
M 81,-181 L 81,-190 L 90,-190 L 90,-181 z
M 91,-181 L 91,-190 L 100,-190 L 100,-181 z
M 101,-181 L 101,-190 L 110,-190 L 110,-181 z
M 111,-181 L 111,-190 L 120,-190 L 120,-181 z
M 121,-181 L 121,-190 L 130,-190 L 130,-181 z
M 131,-181 L 131,-190 L 140,-190 L 140,-181 z
M 141,-181 L 141,-190 L 150,-190 L 150,-181 z
M 151,-181 L 151,-190 L 160,-190 L 160,-181 z
M 161,-181 L 161,-190 L 170,-190 L 170,-181 z
M 171,-181 L 171,-190 L 180,-190 L 180,-181 z
M 181,-181 L 181,-190 L 190,-190 L 190,-181 z
M 191,-181 L 191,-190 L 200,-190 L 200,-181 z
M 201,-181 L 201,-190 L 210,-190 L 210,-181 z
M 211,-181 L 211,-190 L 220,-190 L 220,-181 z
M 221,-181 L 221,-190 L 230,-190 L 230,-181 z
M 231,-181 L 231,-190 L 240,-190 L 240,-181 z
M 241,-181 L 241,-190 L 250,-190 L 250,-181 z
M 251,-181 L 251,-190 L 260,-190 L 260,-181 z
M 261,-181 L 261,-190 L 270,-190 L 270,-181 z
M 271,-181 L 271,-190 L 280,-190 L 280,-181 z
M 281,-181 L 281,-190 L 290,-190 L 290,-181 z
M 291,-181 L 291,-190 L 300,-190 L 300,-181 z
M 1,-171 L 1,-180 L 10,-180 L 10,-171 z
M 11,-171 L 11,-180 L 20,-180 L 20,-171 z
M 21,-171 L 21,-180 L 30,-180 L 30,-171 z
M 31,-171 L 31,-180 L 40,-180 L 40,-171 z
M 41,-171 L 41,-180 L 50,-180 L 50,-171 z
M 51,-171 L 51,-180 L 60,-180 L 60,-171 z
M 61,-171 L 61,-180 L 70,-180 L 70,-171 z
M 71,-171 L 71,-180 L 80,-180 L 80,-171 z
M 81,-171 L 81,-180 L 90,-180 L 90,-171 z
M 91,-171 L 91,-180 L 100,-180 L 100,-171 z
M 101,-171 L 101,-180 L 110,-180 L 110,-171 z
M 111,-171 L 111,-180 L 120,-180 L 120,-171 z
M 121,-171 L 121,-180 L 130,-180 L 130,-171 z
M 131,-171 L 131,-180 L 140,-180 L 140,-171 z
M 141,-171 L 141,-180 L 150,-180 L 150,-171 z
M 151,-171 L 151,-180 L 160,-180 L 160,-171 z
M 161,-171 L 161,-180 L 170,-180 L 170,-171 z
M 171,-171 L 171,-180 L 180,-180 L 180,-171 z
M 181,-171 L 181,-180 L 190,-180 L 190,-171 z
M 191,-171 L 191,-180 L 200,-180 L 200,-171 z
M 201,-171 L 201,-180 L 210,-180 L 210,-171 z
M 211,-171 L 211,-180 L 220,-180 L 220,-171 z
M 221,-171 L 221,-180 L 230,-180 L 230,-171 z
M 231,-171 L 231,-180 L 240,-180 L 240,-171 z
M 241,-171 L 241,-180 L 250,-180 L 250,-171 z
M 251,-171 L 251,-180 L 260,-180 L 260,-171 z
M 261,-171 L 261,-180 L 270,-180 L 270,-171 z
M 271,-171 L 271,-180 L 280,-180 L 280,-171 z
M 281,-171 L 281,-180 L 290,-180 L 290,-171 z
M 291,-171 L 291,-180 L 300,-180 L 300,-171 z
M 1,-161 L 1,-170 L 10,-170 L 10,-161 z
M 11,-161 L 11,-170 L 20,-170 L 20,-161 z
M 21,-161 L 21,-170 L 30,-170 L 30,-161 z
M 31,-161 L 31,-170 L 40,-170 L 40,-161 z
M 41,-161 L 41,-170 L 50,-170 L 50,-161 z
M 51,-161 L 51,-170 L 60,-170 L 60,-161 z
M 61,-161 L 61,-170 L 70,-170 L 70,-161 z
M 71,-161 L 71,-170 L 80,-170 L 80,-161 z
M 81,-161 L 81,-170 L 90,-170 L 90,-161 z
M 91,-161 L 91,-170 L 100,-170 L 100,-161 z
M 101,-161 L 101,-170 L 110,-170 L 110,-161 z
M 111,-161 L 111,-170 L 120,-170 L 120,-161 z
M 121,-161 L 121,-170 L 130,-170 L 130,-161 z
M 131,-161 L 131,-170 L 140,-170 L 140,-161 z
M 141,-161 L 141,-170 L 150,-170 L 150,-161 z
M 151,-161 L 151,-170 L 160,-170 L 160,-161 z
M 161,-161 L 161,-170 L 170,-170 L 170,-161 z
M 171,-161 L 171,-170 L 180,-170 L 180,-161 z
M 181,-161 L 181,-170 L 190,-170 L 190,-161 z
M 191,-161 L 191,-170 L 200,-170 L 200,-161 z
M 201,-161 L 201,-170 L 210,-170 L 210,-161 z
M 211,-161 L 211,-170 L 220,-170 L 220,-161 z
M 221,-161 L 221,-170 L 230,-170 L 230,-161 z
M 231,-161 L 231,-170 L 240,-170 L 240,-161 z
M 241,-161 L 241,-170 L 250,-170 L 250,-161 z
M 251,-161 L 251,-170 L 260,-170 L 260,-161 z
M 261,-161 L 261,-170 L 270,-170 L 270,-161 z
M 271,-161 L 271,-170 L 280,-170 L 280,-161 z
M 281,-161 L 281,-170 L 290,-170 L 290,-161 z
M 291,-161 L 291,-170 L 300,-170 L 300,-161 z
M 1,-151 L 1,-160 L 10,-160 L 10,-151 z
M 11,-151 L 11,-160 L 20,-160 L 20,-151 z
M 21,-151 L 21,-160 L 30,-160 L 30,-151 z
M 31,-151 L 31,-160 L 40,-160 L 40,-151 z
M 41,-151 L 41,-160 L 50,-160 L 50,-151 z
M 51,-151 L 51,-160 L 60,-160 L 60,-151 z
M 61,-151 L 61,-160 L 70,-160 L 70,-151 z
M 71,-151 L 71,-160 L 80,-160 L 80,-151 z
M 81,-151 L 81,-160 L 90,-160 L 90,-151 z
M 91,-151 L 91,-160 L 100,-160 L 100,-151 z
M 101,-151 L 101,-160 L 110,-160 L 110,-151 z
M 111,-151 L 111,-160 L 120,-160 L 120,-151 z
M 121,-151 L 121,-160 L 130,-160 L 130,-151 z
M 131,-151 L 131,-160 L 140,-160 L 140,-151 z
M 141,-151 L 141,-160 L 150,-160 L 150,-151 z
M 151,-151 L 151,-160 L 160,-160 L 160,-151 z
M 161,-151 L 161,-160 L 170,-160 L 170,-151 z
M 171,-151 L 171,-160 L 180,-160 L 180,-151 z
M 181,-151 L 181,-160 L 190,-160 L 190,-151 z
M 191,-151 L 191,-160 L 200,-160 L 200,-151 z
M 201,-151 L 201,-160 L 210,-160 L 210,-151 z
M 211,-151 L 211,-160 L 220,-160 L 220,-151 z
M 221,-151 L 221,-160 L 230,-160 L 230,-151 z
M 231,-151 L 231,-160 L 240,-160 L 240,-151 z
M 241,-151 L 241,-160 L 250,-160 L 250,-151 z
M 251,-151 L 251,-160 L 260,-160 L 260,-151 z
M 261,-151 L 261,-160 L 270,-160 L 270,-151 z
M 271,-151 L 271,-160 L 280,-160 L 280,-151 z
M 281,-151 L 281,-160 L 290,-160 L 290,-151 z
M 291,-151 L 291,-160 L 300,-160 L 300,-151 z
M 1,-141 L 1,-150 L 10,-150 L 10,-141 z
M 11,-141 L 11,-150 L 20,-150 L 20,-141 z
M 21,-141 L 21,-150 L 30,-150 L 30,-141 z
M 31,-141 L 31,-150 L 40,-150 L 40,-141 z
M 41,-141 L 41,-150 L 50,-150 L 50,-141 z
M 51,-141 L 51,-150 L 60,-150 L 60,-141 z
M 61,-141 L 61,-150 L 70,-150 L 70,-141 z
M 71,-141 L 71,-150 L 80,-150 L 80,-141 z
M 81,-141 L 81,-150 L 90,-150 L 90,-141 z
M 91,-141 L 91,-150 L 100,-150 L 100,-141 z
M 101,-141 L 101,-150 L 110,-150 L 110,-141 z
M 111,-141 L 111,-150 L 120,-150 L 120,-141 z
M 121,-141 L 121,-150 L 130,-150 L 130,-141 z
M 131,-141 L 131,-150 L 140,-150 L 140,-141 z
M 141,-141 L 141,-150 L 150,-150 L 150,-141 z
M 151,-141 L 151,-150 L 160,-150 L 160,-141 z
M 161,-141 L 161,-150 L 170,-150 L 170,-141 z
M 171,-141 L 171,-150 L 180,-150 L 180,-141 z
M 181,-141 L 181,-150 L 190,-150 L 190,-141 z
M 191,-141 L 191,-150 L 200,-150 L 200,-141 z
M 201,-141 L 201,-150 L 210,-150 L 210,-141 z
M 211,-141 L 211,-150 L 220,-150 L 220,-141 z
M 221,-141 L 221,-150 L 230,-150 L 230,-141 z
M 231,-141 L 231,-150 L 240,-150 L 240,-141 z
M 241,-141 L 241,-150 L 250,-150 L 250,-141 z
M 251,-141 L 251,-150 L 260,-150 L 260,-141 z
M 261,-141 L 261,-150 L 270,-150 L 270,-141 z
M 271,-141 L 271,-150 L 280,-150 L 280,-141 z
M 281,-141 L 281,-150 L 290,-150 L 290,-141 z
M 291,-141 L 291,-150 L 300,-150 L 300,-141 z
M 1,-131 L 1,-140 L 10,-140 L 10,-131 z
M 11,-131 L 11,-140 L 20,-140 L 20,-131 z
M 21,-131 L 21,-140 L 30,-140 L 30,-131 z
M 31,-131 L 31,-140 L 40,-140 L 40,-131 z
M 41,-131 L 41,-140 L 50,-140 L 50,-131 z
M 51,-131 L 51,-140 L 60,-140 L 60,-131 z
M 61,-131 L 61,-140 L 70,-140 L 70,-131 z
M 71,-131 L 71,-140 L 80,-140 L 80,-131 z
M 81,-131 L 81,-140 L 90,-140 L 90,-131 z
M 91,-131 L 91,-140 L 100,-140 L 100,-131 z
M 101,-131 L 101,-140 L 110,-140 L 110,-131 z
M 111,-131 L 111,-140 L 120,-140 L 120,-131 z
M 121,-131 L 121,-140 L 130,-140 L 130,-131 z
M 131,-131 L 131,-140 L 140,-140 L 140,-131 z
M 141,-131 L 141,-140 L 150,-140 L 150,-131 z
M 151,-131 L 151,-140 L 160,-140 L 160,-131 z
M 161,-131 L 161,-140 L 170,-140 L 170,-131 z
M 171,-131 L 171,-140 L 180,-140 L 180,-131 z
M 181,-131 L 181,-140 L 190,-140 L 190,-131 z
M 191,-131 L 191,-140 L 200,-140 L 200,-131 z
M 201,-131 L 201,-140 L 210,-140 L 210,-131 z
M 211,-131 L 211,-140 L 220,-140 L 220,-131 z
M 221,-131 L 221,-140 L 230,-140 L 230,-131 z
M 231,-131 L 231,-140 L 240,-140 L 240,-131 z
M 241,-131 L 241,-140 L 250,-140 L 250,-131 z
M 251,-131 L 251,-140 L 260,-140 L 260,-131 z
M 261,-131 L 261,-140 L 270,-140 L 270,-131 z
M 271,-131 L 271,-140 L 280,-140 L 280,-131 z
M 281,-131 L 281,-140 L 290,-140 L 290,-131 z
M 291,-131 L 291,-140 L 300,-140 L 300,-131 z
M 1,-121 L 1,-130 L 10,-130 L 10,-121 z
M 11,-121 L 11,-130 L 20,-130 L 20,-121 z
M 21,-121 L 21,-130 L 30,-130 L 30,-121 z
M 31,-121 L 31,-130 L 40,-130 L 40,-121 z
M 41,-121 L 41,-130 L 50,-130 L 50,-121 z
M 51,-121 L 51,-130 L 60,-130 L 60,-121 z
M 61,-121 L 61,-130 L 70,-130 L 70,-121 z
M 71,-121 L 71,-130 L 80,-130 L 80,-121 z
M 81,-121 L 81,-130 L 90,-130 L 90,-121 z
M 91,-121 L 91,-130 L 100,-130 L 100,-121 z
M 101,-121 L 101,-130 L 110,-130 L 110,-121 z
M 111,-121 L 111,-130 L 120,-130 L 120,-121 z
M 121,-121 L 121,-130 L 130,-130 L 130,-121 z
M 131,-121 L 131,-130 L 140,-130 L 140,-121 z
M 141,-121 L 141,-130 L 150,-130 L 150,-121 z
M 151,-121 L 151,-130 L 160,-130 L 160,-121 z
M 161,-121 L 161,-130 L 170,-130 L 170,-121 z
M 171,-121 L 171,-130 L 180,-130 L 180,-121 z
M 181,-121 L 181,-130 L 190,-130 L 190,-121 z
M 191,-121 L 191,-130 L 200,-130 L 200,-121 z
M 201,-121 L 201,-130 L 210,-130 L 210,-121 z
M 211,-121 L 211,-130 L 220,-130 L 220,-121 z
M 221,-121 L 221,-130 L 230,-130 L 230,-121 z
M 231,-121 L 231,-130 L 240,-130 L 240,-121 z
M 241,-121 L 241,-130 L 250,-130 L 250,-121 z
M 251,-121 L 251,-130 L 260,-130 L 260,-121 z
M 261,-121 L 261,-130 L 270,-130 L 270,-121 z
M 271,-121 L 271,-130 L 280,-130 L 280,-121 z
M 281,-121 L 281,-130 L 290,-130 L 290,-121 z
M 291,-121 L 291,-130 L 300,-130 L 300,-121 z
M 1,-111 L 1,-120 L 10,-120 L 10,-111 z
M 11,-111 L 11,-120 L 20,-120 L 20,-111 z
M 21,-111 L 21,-120 L 30,-120 L 30,-111 z
M 31,-111 L 31,-120 L 40,-120 L 40,-111 z
M 41,-111 L 41,-120 L 50,-120 L 50,-111 z
M 51,-111 L 51,-120 L 60,-120 L 60,-111 z
M 61,-111 L 61,-120 L 70,-120 L 70,-111 z
M 71,-111 L 71,-120 L 80,-120 L 80,-111 z
M 81,-111 L 81,-120 L 90,-120 L 90,-111 z
M 91,-111 L 91,-120 L 100,-120 L 100,-111 z
M 101,-111 L 101,-120 L 110,-120 L 110,-111 z
M 111,-111 L 111,-120 L 120,-120 L 120,-111 z
M 121,-111 L 121,-120 L 130,-120 L 130,-111 z
M 131,-111 L 131,-120 L 140,-120 L 140,-111 z
M 141,-111 L 141,-120 L 150,-120 L 150,-111 z
M 151,-111 L 151,-120 L 160,-120 L 160,-111 z
M 161,-111 L 161,-120 L 170,-120 L 170,-111 z
M 171,-111 L 171,-120 L 180,-120 L 180,-111 z
M 181,-111 L 181,-120 L 190,-120 L 190,-111 z
M 191,-111 L 191,-120 L 200,-120 L 200,-111 z
M 201,-111 L 201,-120 L 210,-120 L 210,-111 z
M 211,-111 L 211,-120 L 220,-120 L 220,-111 z
M 221,-111 L 221,-120 L 230,-120 L 230,-111 z
M 231,-111 L 231,-120 L 240,-120 L 240,-111 z
M 241,-111 L 241,-120 L 250,-120 L 250,-111 z
M 251,-111 L 251,-120 L 260,-120 L 260,-111 z
M 261,-111 L 261,-120 L 270,-120 L 270,-111 z
M 271,-111 L 271,-120 L 280,-120 L 280,-111 z
M 281,-111 L 281,-120 L 290,-120 L 290,-111 z
M 291,-111 L 291,-120 L 300,-120 L 300,-111 z
M 1,-101 L 1,-110 L 10,-110 L 10,-101 z
M 11,-101 L 11,-110 L 20,-110 L 20,-101 z
M 21,-101 L 21,-110 L 30,-110 L 30,-101 z
M 31,-101 L 31,-110 L 40,-110 L 40,-101 z
M 41,-101 L 41,-110 L 50,-110 L 50,-101 z
M 51,-101 L 51,-110 L 60,-110 L 60,-101 z
M 61,-101 L 61,-110 L 70,-110 L 70,-101 z
M 71,-101 L 71,-110 L 80,-110 L 80,-101 z
M 81,-101 L 81,-110 L 90,-110 L 90,-101 z
M 91,-101 L 91,-110 L 100,-110 L 100,-101 z
M 101,-101 L 101,-110 L 110,-110 L 110,-101 z
M 111,-101 L 111,-110 L 120,-110 L 120,-101 z
M 121,-101 L 121,-110 L 130,-110 L 130,-101 z
M 131,-101 L 131,-110 L 140,-110 L 140,-101 z
M 141,-101 L 141,-110 L 150,-110 L 150,-101 z
M 151,-101 L 151,-110 L 160,-110 L 160,-101 z
M 161,-101 L 161,-110 L 170,-110 L 170,-101 z
M 171,-101 L 171,-110 L 180,-110 L 180,-101 z
M 181,-101 L 181,-110 L 190,-110 L 190,-101 z
M 191,-101 L 191,-110 L 200,-110 L 200,-101 z
M 201,-101 L 201,-110 L 210,-110 L 210,-101 z
M 211,-101 L 211,-110 L 220,-110 L 220,-101 z
M 221,-101 L 221,-110 L 230,-110 L 230,-101 z
M 231,-101 L 231,-110 L 240,-110 L 240,-101 z
M 241,-101 L 241,-110 L 250,-110 L 250,-101 z
M 251,-101 L 251,-110 L 260,-110 L 260,-101 z
M 261,-101 L 261,-110 L 270,-110 L 270,-101 z
M 271,-101 L 271,-110 L 280,-110 L 280,-101 z
M 281,-101 L 281,-110 L 290,-110 L 290,-101 z
M 291,-101 L 291,-110 L 300,-110 L 300,-101 z
M 1,-91 L 1,-100 L 10,-100 L 10,-91 z
M 11,-91 L 11,-100 L 20,-100 L 20,-91 z
M 21,-91 L 21,-100 L 30,-100 L 30,-91 z
M 31,-91 L 31,-100 L 40,-100 L 40,-91 z
M 41,-91 L 41,-100 L 50,-100 L 50,-91 z
M 51,-91 L 51,-100 L 60,-100 L 60,-91 z
M 61,-91 L 61,-100 L 70,-100 L 70,-91 z
M 71,-91 L 71,-100 L 80,-100 L 80,-91 z
M 81,-91 L 81,-100 L 90,-100 L 90,-91 z
M 91,-91 L 91,-100 L 100,-100 L 100,-91 z
M 101,-91 L 101,-100 L 110,-100 L 110,-91 z
M 111,-91 L 111,-100 L 120,-100 L 120,-91 z
M 121,-91 L 121,-100 L 130,-100 L 130,-91 z
M 131,-91 L 131,-100 L 140,-100 L 140,-91 z
M 141,-91 L 141,-100 L 150,-100 L 150,-91 z
M 151,-91 L 151,-100 L 160,-100 L 160,-91 z
M 161,-91 L 161,-100 L 170,-100 L 170,-91 z
M 171,-91 L 171,-100 L 180,-100 L 180,-91 z
M 181,-91 L 181,-100 L 190,-100 L 190,-91 z
M 191,-91 L 191,-100 L 200,-100 L 200,-91 z
M 201,-91 L 201,-100 L 210,-100 L 210,-91 z
M 211,-91 L 211,-100 L 220,-100 L 220,-91 z
M 221,-91 L 221,-100 L 230,-100 L 230,-91 z
M 231,-91 L 231,-100 L 240,-100 L 240,-91 z
M 241,-91 L 241,-100 L 250,-100 L 250,-91 z
M 251,-91 L 251,-100 L 260,-100 L 260,-91 z
M 261,-91 L 261,-100 L 270,-100 L 270,-91 z
M 271,-91 L 271,-100 L 280,-100 L 280,-91 z
M 281,-91 L 281,-100 L 290,-100 L 290,-91 z
M 291,-91 L 291,-100 L 300,-100 L 300,-91 z
M 1,-81 L 1,-90 L 10,-90 L 10,-81 z
M 11,-81 L 11,-90 L 20,-90 L 20,-81 z
M 21,-81 L 21,-90 L 30,-90 L 30,-81 z
M 31,-81 L 31,-90 L 40,-90 L 40,-81 z
M 41,-81 L 41,-90 L 50,-90 L 50,-81 z
M 51,-81 L 51,-90 L 60,-90 L 60,-81 z
M 61,-81 L 61,-90 L 70,-90 L 70,-81 z
M 71,-81 L 71,-90 L 80,-90 L 80,-81 z
M 81,-81 L 81,-90 L 90,-90 L 90,-81 z
M 91,-81 L 91,-90 L 100,-90 L 100,-81 z
M 101,-81 L 101,-90 L 110,-90 L 110,-81 z
M 111,-81 L 111,-90 L 120,-90 L 120,-81 z
M 121,-81 L 121,-90 L 130,-90 L 130,-81 z
M 131,-81 L 131,-90 L 140,-90 L 140,-81 z
M 141,-81 L 141,-90 L 150,-90 L 150,-81 z
M 151,-81 L 151,-90 L 160,-90 L 160,-81 z
M 161,-81 L 161,-90 L 170,-90 L 170,-81 z
M 171,-81 L 171,-90 L 180,-90 L 180,-81 z
M 181,-81 L 181,-90 L 190,-90 L 190,-81 z
M 191,-81 L 191,-90 L 200,-90 L 200,-81 z
M 201,-81 L 201,-90 L 210,-90 L 210,-81 z
M 211,-81 L 211,-90 L 220,-90 L 220,-81 z
M 221,-81 L 221,-90 L 230,-90 L 230,-81 z
M 231,-81 L 231,-90 L 240,-90 L 240,-81 z
M 241,-81 L 241,-90 L 250,-90 L 250,-81 z
M 251,-81 L 251,-90 L 260,-90 L 260,-81 z
M 261,-81 L 261,-90 L 270,-90 L 270,-81 z
M 271,-81 L 271,-90 L 280,-90 L 280,-81 z
M 281,-81 L 281,-90 L 290,-90 L 290,-81 z
M 291,-81 L 291,-90 L 300,-90 L 300,-81 z
M 1,-71 L 1,-80 L 10,-80 L 10,-71 z
M 11,-71 L 11,-80 L 20,-80 L 20,-71 z
M 21,-71 L 21,-80 L 30,-80 L 30,-71 z
M 31,-71 L 31,-80 L 40,-80 L 40,-71 z
M 41,-71 L 41,-80 L 50,-80 L 50,-71 z
M 51,-71 L 51,-80 L 60,-80 L 60,-71 z
M 61,-71 L 61,-80 L 70,-80 L 70,-71 z
M 71,-71 L 71,-80 L 80,-80 L 80,-71 z
M 81,-71 L 81,-80 L 90,-80 L 90,-71 z
M 91,-71 L 91,-80 L 100,-80 L 100,-71 z
M 101,-71 L 101,-80 L 110,-80 L 110,-71 z
M 111,-71 L 111,-80 L 120,-80 L 120,-71 z
M 121,-71 L 121,-80 L 130,-80 L 130,-71 z
M 131,-71 L 131,-80 L 140,-80 L 140,-71 z
M 141,-71 L 141,-80 L 150,-80 L 150,-71 z
M 151,-71 L 151,-80 L 160,-80 L 160,-71 z
M 161,-71 L 161,-80 L 170,-80 L 170,-71 z
M 171,-71 L 171,-80 L 180,-80 L 180,-71 z
M 181,-71 L 181,-80 L 190,-80 L 190,-71 z
M 191,-71 L 191,-80 L 200,-80 L 200,-71 z
M 201,-71 L 201,-80 L 210,-80 L 210,-71 z
M 211,-71 L 211,-80 L 220,-80 L 220,-71 z
M 221,-71 L 221,-80 L 230,-80 L 230,-71 z
M 231,-71 L 231,-80 L 240,-80 L 240,-71 z
M 241,-71 L 241,-80 L 250,-80 L 250,-71 z
M 251,-71 L 251,-80 L 260,-80 L 260,-71 z
M 261,-71 L 261,-80 L 270,-80 L 270,-71 z
M 271,-71 L 271,-80 L 280,-80 L 280,-71 z
M 281,-71 L 281,-80 L 290,-80 L 290,-71 z
M 291,-71 L 291,-80 L 300,-80 L 300,-71 z
M 1,-61 L 1,-70 L 10,-70 L 10,-61 z
M 11,-61 L 11,-70 L 20,-70 L 20,-61 z
M 21,-61 L 21,-70 L 30,-70 L 30,-61 z
M 31,-61 L 31,-70 L 40,-70 L 40,-61 z
M 41,-61 L 41,-70 L 50,-70 L 50,-61 z
M 51,-61 L 51,-70 L 60,-70 L 60,-61 z
M 61,-61 L 61,-70 L 70,-70 L 70,-61 z
M 71,-61 L 71,-70 L 80,-70 L 80,-61 z
M 81,-61 L 81,-70 L 90,-70 L 90,-61 z
M 91,-61 L 91,-70 L 100,-70 L 100,-61 z
M 101,-61 L 101,-70 L 110,-70 L 110,-61 z
M 111,-61 L 111,-70 L 120,-70 L 120,-61 z
M 121,-61 L 121,-70 L 130,-70 L 130,-61 z
M 131,-61 L 131,-70 L 140,-70 L 140,-61 z
M 141,-61 L 141,-70 L 150,-70 L 150,-61 z
M 151,-61 L 151,-70 L 160,-70 L 160,-61 z
M 161,-61 L 161,-70 L 170,-70 L 170,-61 z
M 171,-61 L 171,-70 L 180,-70 L 180,-61 z
M 181,-61 L 181,-70 L 190,-70 L 190,-61 z
M 191,-61 L 191,-70 L 200,-70 L 200,-61 z
M 201,-61 L 201,-70 L 210,-70 L 210,-61 z
M 211,-61 L 211,-70 L 220,-70 L 220,-61 z
M 221,-61 L 221,-70 L 230,-70 L 230,-61 z
M 231,-61 L 231,-70 L 240,-70 L 240,-61 z
M 241,-61 L 241,-70 L 250,-70 L 250,-61 z
M 251,-61 L 251,-70 L 260,-70 L 260,-61 z
M 261,-61 L 261,-70 L 270,-70 L 270,-61 z
M 271,-61 L 271,-70 L 280,-70 L 280,-61 z
M 281,-61 L 281,-70 L 290,-70 L 290,-61 z
M 291,-61 L 291,-70 L 300,-70 L 300,-61 z
M 1,-51 L 1,-60 L 10,-60 L 10,-51 z
M 11,-51 L 11,-60 L 20,-60 L 20,-51 z
M 21,-51 L 21,-60 L 30,-60 L 30,-51 z
M 31,-51 L 31,-60 L 40,-60 L 40,-51 z
M 41,-51 L 41,-60 L 50,-60 L 50,-51 z
M 51,-51 L 51,-60 L 60,-60 L 60,-51 z
M 61,-51 L 61,-60 L 70,-60 L 70,-51 z
M 71,-51 L 71,-60 L 80,-60 L 80,-51 z
M 81,-51 L 81,-60 L 90,-60 L 90,-51 z
M 91,-51 L 91,-60 L 100,-60 L 100,-51 z
M 101,-51 L 101,-60 L 110,-60 L 110,-51 z
M 111,-51 L 111,-60 L 120,-60 L 120,-51 z
M 121,-51 L 121,-60 L 130,-60 L 130,-51 z
M 131,-51 L 131,-60 L 140,-60 L 140,-51 z
M 141,-51 L 141,-60 L 150,-60 L 150,-51 z
M 151,-51 L 151,-60 L 160,-60 L 160,-51 z
M 161,-51 L 161,-60 L 170,-60 L 170,-51 z
M 171,-51 L 171,-60 L 180,-60 L 180,-51 z
M 181,-51 L 181,-60 L 190,-60 L 190,-51 z
M 191,-51 L 191,-60 L 200,-60 L 200,-51 z
M 201,-51 L 201,-60 L 210,-60 L 210,-51 z
M 211,-51 L 211,-60 L 220,-60 L 220,-51 z
M 221,-51 L 221,-60 L 230,-60 L 230,-51 z
M 231,-51 L 231,-60 L 240,-60 L 240,-51 z
M 241,-51 L 241,-60 L 250,-60 L 250,-51 z
M 251,-51 L 251,-60 L 260,-60 L 260,-51 z
M 261,-51 L 261,-60 L 270,-60 L 270,-51 z
M 271,-51 L 271,-60 L 280,-60 L 280,-51 z
M 281,-51 L 281,-60 L 290,-60 L 290,-51 z
M 291,-51 L 291,-60 L 300,-60 L 300,-51 z
M 1,-41 L 1,-50 L 10,-50 L 10,-41 z
M 11,-41 L 11,-50 L 20,-50 L 20,-41 z
M 21,-41 L 21,-50 L 30,-50 L 30,-41 z
M 31,-41 L 31,-50 L 40,-50 L 40,-41 z
M 41,-41 L 41,-50 L 50,-50 L 50,-41 z
M 51,-41 L 51,-50 L 60,-50 L 60,-41 z
M 61,-41 L 61,-50 L 70,-50 L 70,-41 z
M 71,-41 L 71,-50 L 80,-50 L 80,-41 z
M 81,-41 L 81,-50 L 90,-50 L 90,-41 z
M 91,-41 L 91,-50 L 100,-50 L 100,-41 z
M 101,-41 L 101,-50 L 110,-50 L 110,-41 z
M 111,-41 L 111,-50 L 120,-50 L 120,-41 z
M 121,-41 L 121,-50 L 130,-50 L 130,-41 z
M 131,-41 L 131,-50 L 140,-50 L 140,-41 z
M 141,-41 L 141,-50 L 150,-50 L 150,-41 z
M 151,-41 L 151,-50 L 160,-50 L 160,-41 z
M 161,-41 L 161,-50 L 170,-50 L 170,-41 z
M 171,-41 L 171,-50 L 180,-50 L 180,-41 z
M 181,-41 L 181,-50 L 190,-50 L 190,-41 z
M 191,-41 L 191,-50 L 200,-50 L 200,-41 z
M 201,-41 L 201,-50 L 210,-50 L 210,-41 z
M 211,-41 L 211,-50 L 220,-50 L 220,-41 z
M 221,-41 L 221,-50 L 230,-50 L 230,-41 z
M 231,-41 L 231,-50 L 240,-50 L 240,-41 z
M 241,-41 L 241,-50 L 250,-50 L 250,-41 z
M 251,-41 L 251,-50 L 260,-50 L 260,-41 z
M 261,-41 L 261,-50 L 270,-50 L 270,-41 z
M 271,-41 L 271,-50 L 280,-50 L 280,-41 z
M 281,-41 L 281,-50 L 290,-50 L 290,-41 z
M 291,-41 L 291,-50 L 300,-50 L 300,-41 z
M 1,-31 L 1,-40 L 10,-40 L 10,-31 z
M 11,-31 L 11,-40 L 20,-40 L 20,-31 z
M 21,-31 L 21,-40 L 30,-40 L 30,-31 z
M 31,-31 L 31,-40 L 40,-40 L 40,-31 z
M 41,-31 L 41,-40 L 50,-40 L 50,-31 z
M 51,-31 L 51,-40 L 60,-40 L 60,-31 z
M 61,-31 L 61,-40 L 70,-40 L 70,-31 z
M 71,-31 L 71,-40 L 80,-40 L 80,-31 z
M 81,-31 L 81,-40 L 90,-40 L 90,-31 z
M 91,-31 L 91,-40 L 100,-40 L 100,-31 z
M 101,-31 L 101,-40 L 110,-40 L 110,-31 z
M 111,-31 L 111,-40 L 120,-40 L 120,-31 z
M 121,-31 L 121,-40 L 130,-40 L 130,-31 z
M 131,-31 L 131,-40 L 140,-40 L 140,-31 z
M 141,-31 L 141,-40 L 150,-40 L 150,-31 z
M 151,-31 L 151,-40 L 160,-40 L 160,-31 z
M 161,-31 L 161,-40 L 170,-40 L 170,-31 z
M 171,-31 L 171,-40 L 180,-40 L 180,-31 z
M 181,-31 L 181,-40 L 190,-40 L 190,-31 z
M 191,-31 L 191,-40 L 200,-40 L 200,-31 z
M 201,-31 L 201,-40 L 210,-40 L 210,-31 z
M 211,-31 L 211,-40 L 220,-40 L 220,-31 z
M 221,-31 L 221,-40 L 230,-40 L 230,-31 z
M 231,-31 L 231,-40 L 240,-40 L 240,-31 z
M 241,-31 L 241,-40 L 250,-40 L 250,-31 z
M 251,-31 L 251,-40 L 260,-40 L 260,-31 z
M 261,-31 L 261,-40 L 270,-40 L 270,-31 z
M 271,-31 L 271,-40 L 280,-40 L 280,-31 z
M 281,-31 L 281,-40 L 290,-40 L 290,-31 z
M 291,-31 L 291,-40 L 300,-40 L 300,-31 z
M 1,-21 L 1,-30 L 10,-30 L 10,-21 z
M 11,-21 L 11,-30 L 20,-30 L 20,-21 z
M 21,-21 L 21,-30 L 30,-30 L 30,-21 z
M 31,-21 L 31,-30 L 40,-30 L 40,-21 z
M 41,-21 L 41,-30 L 50,-30 L 50,-21 z
M 51,-21 L 51,-30 L 60,-30 L 60,-21 z
M 61,-21 L 61,-30 L 70,-30 L 70,-21 z
M 71,-21 L 71,-30 L 80,-30 L 80,-21 z
M 81,-21 L 81,-30 L 90,-30 L 90,-21 z
M 91,-21 L 91,-30 L 100,-30 L 100,-21 z
M 101,-21 L 101,-30 L 110,-30 L 110,-21 z
M 111,-21 L 111,-30 L 120,-30 L 120,-21 z
M 121,-21 L 121,-30 L 130,-30 L 130,-21 z
M 131,-21 L 131,-30 L 140,-30 L 140,-21 z
M 141,-21 L 141,-30 L 150,-30 L 150,-21 z
M 151,-21 L 151,-30 L 160,-30 L 160,-21 z
M 161,-21 L 161,-30 L 170,-30 L 170,-21 z
M 171,-21 L 171,-30 L 180,-30 L 180,-21 z
M 181,-21 L 181,-30 L 190,-30 L 190,-21 z
M 191,-21 L 191,-30 L 200,-30 L 200,-21 z
M 201,-21 L 201,-30 L 210,-30 L 210,-21 z
M 211,-21 L 211,-30 L 220,-30 L 220,-21 z
M 221,-21 L 221,-30 L 230,-30 L 230,-21 z
M 231,-21 L 231,-30 L 240,-30 L 240,-21 z
M 241,-21 L 241,-30 L 250,-30 L 250,-21 z
M 251,-21 L 251,-30 L 260,-30 L 260,-21 z
M 261,-21 L 261,-30 L 270,-30 L 270,-21 z
M 271,-21 L 271,-30 L 280,-30 L 280,-21 z
M 281,-21 L 281,-30 L 290,-30 L 290,-21 z
M 291,-21 L 291,-30 L 300,-30 L 300,-21 z
M 1,-11 L 1,-20 L 10,-20 L 10,-11 z
M 11,-11 L 11,-20 L 20,-20 L 20,-11 z
M 21,-11 L 21,-20 L 30,-20 L 30,-11 z
M 31,-11 L 31,-20 L 40,-20 L 40,-11 z
M 41,-11 L 41,-20 L 50,-20 L 50,-11 z
M 51,-11 L 51,-20 L 60,-20 L 60,-11 z
M 61,-11 L 61,-20 L 70,-20 L 70,-11 z
M 71,-11 L 71,-20 L 80,-20 L 80,-11 z
M 81,-11 L 81,-20 L 90,-20 L 90,-11 z
M 91,-11 L 91,-20 L 100,-20 L 100,-11 z
M 101,-11 L 101,-20 L 110,-20 L 110,-11 z
M 111,-11 L 111,-20 L 120,-20 L 120,-11 z
M 121,-11 L 121,-20 L 130,-20 L 130,-11 z
M 131,-11 L 131,-20 L 140,-20 L 140,-11 z
M 141,-11 L 141,-20 L 150,-20 L 150,-11 z
M 151,-11 L 151,-20 L 160,-20 L 160,-11 z
M 161,-11 L 161,-20 L 170,-20 L 170,-11 z
M 171,-11 L 171,-20 L 180,-20 L 180,-11 z
M 181,-11 L 181,-20 L 190,-20 L 190,-11 z
M 191,-11 L 191,-20 L 200,-20 L 200,-11 z
M 201,-11 L 201,-20 L 210,-20 L 210,-11 z
M 211,-11 L 211,-20 L 220,-20 L 220,-11 z
M 221,-11 L 221,-20 L 230,-20 L 230,-11 z
M 231,-11 L 231,-20 L 240,-20 L 240,-11 z
M 241,-11 L 241,-20 L 250,-20 L 250,-11 z
M 251,-11 L 251,-20 L 260,-20 L 260,-11 z
M 261,-11 L 261,-20 L 270,-20 L 270,-11 z
M 271,-11 L 271,-20 L 280,-20 L 280,-11 z
M 281,-11 L 281,-20 L 290,-20 L 290,-11 z
M 291,-11 L 291,-20 L 300,-20 L 300,-11 z
M 1,-1 L 1,-10 L 10,-10 L 10,-1 z
M 11,-1 L 11,-10 L 20,-10 L 20,-1 z
M 21,-1 L 21,-10 L 30,-10 L 30,-1 z
M 31,-1 L 31,-10 L 40,-10 L 40,-1 z
M 41,-1 L 41,-10 L 50,-10 L 50,-1 z
M 51,-1 L 51,-10 L 60,-10 L 60,-1 z
M 61,-1 L 61,-10 L 70,-10 L 70,-1 z
M 71,-1 L 71,-10 L 80,-10 L 80,-1 z
M 81,-1 L 81,-10 L 90,-10 L 90,-1 z
M 91,-1 L 91,-10 L 100,-10 L 100,-1 z
M 101,-1 L 101,-10 L 110,-10 L 110,-1 z
M 111,-1 L 111,-10 L 120,-10 L 120,-1 z
M 121,-1 L 121,-10 L 130,-10 L 130,-1 z
M 131,-1 L 131,-10 L 140,-10 L 140,-1 z
M 141,-1 L 141,-10 L 150,-10 L 150,-1 z
M 151,-1 L 151,-10 L 160,-10 L 160,-1 z
M 161,-1 L 161,-10 L 170,-10 L 170,-1 z
M 171,-1 L 171,-10 L 180,-10 L 180,-1 z
M 181,-1 L 181,-10 L 190,-10 L 190,-1 z
M 191,-1 L 191,-10 L 200,-10 L 200,-1 z
M 201,-1 L 201,-10 L 210,-10 L 210,-1 z
M 211,-1 L 211,-10 L 220,-10 L 220,-1 z
M 221,-1 L 221,-10 L 230,-10 L 230,-1 z
M 231,-1 L 231,-10 L 240,-10 L 240,-1 z
M 241,-1 L 241,-10 L 250,-10 L 250,-1 z
M 251,-1 L 251,-10 L 260,-10 L 260,-1 z
M 261,-1 L 261,-10 L 270,-10 L 270,-1 z
M 271,-1 L 271,-10 L 280,-10 L 280,-1 z
M 281,-1 L 281,-10 L 290,-10 L 290,-1 z
M 291,-1 L 291,-10 L 300,-10 L 300,-1 z
M 20,-251 L 11,-251 L 11,-260 L 20,-260 z
M 30,-251 L 21,-251 L 21,-260 L 30,-260 z
M 40,-251 L 31,-251 L 31,-260 L 40,-260 z
M 50,-251 L 41,-251 L 41,-260 L 50,-260 z
M 60,-251 L 51,-251 L 51,-260 L 60,-260 z
M 70,-251 L 61,-251 L 61,-260 L 70,-260 z
M 80,-251 L 71,-251 L 71,-260 L 80,-260 z
M 90,-251 L 81,-251 L 81,-260 L 90,-260 z
M 100,-251 L 91,-251 L 91,-260 L 100,-260 z
M 110,-251 L 101,-251 L 101,-260 L 110,-260 z
M 120,-251 L 111,-251 L 111,-260 L 120,-260 z
M 130,-251 L 121,-251 L 121,-260 L 130,-260 z
M 140,-251 L 131,-251 L 131,-260 L 140,-260 z
M 260,-251 L 251,-251 L 251,-260 L 250,-260 L 250,-251 L 241,-251
 L 241,-260 L 240,-260 L 240,-251 L 231,-251 L 231,-260 L 230,-260
 L 230,-251 L 221,-251 L 221,-260 L 220,-260 L 220,-251 L 211,-251
 L 211,-260 L 210,-260 L 210,-251 L 201,-251 L 201,-260 L 200,-260
 L 200,-251 L 191,-251 L 191,-260 L 190,-260 L 190,-251 L 181,-251
 L 181,-260 L 180,-260 L 180,-251 L 171,-251 L 171,-260 L 170,-260
 L 170,-251 L 161,-251 L 161,-260 L 160,-260 L 160,-251 L 151,-251
 L 151,-260 L 150,-260 L 150,-251 L 141,-251 L 141,-260 L 260,-260
 z
M 290,-251 L 281,-251 L 281,-260 L 280,-260 L 280,-251 L 271,-251
 L 271,-260 L 270,-260 L 270,-251 L 261,-251 L 261,-260 L 290,-260
 z
" stroke="black" fill="lightgray" stroke-width="0.5"/>
</svg>
