<?xml version="1.0" standalone="no"?>
<!DOCTYPE svg PUBLIC "-//W3C//DTD SVG 1.1//EN" "http://www.w3.org/Graphics/SVG/1.1/DTD/svg11.dtd">
<svg width="1940mm" height="1699mm" viewBox="-70 -1629 1940 1699" xmlns="http://www.w3.org/2000/svg" version="1.1">
<title>OpenSCAD Model</title>
<path d="
M 1821.63,66.5739 L 1835,60.6218 L 1846.84,52.0201 L 1856.63,41.145 L 1863.95,28.4716 L 1868.47,14.5538
 L 1870,-0 L 1868.47,-14.5538 L 1863.95,-28.4716 L 956.631,-1599.99 L 946.839,-1610.87 L 935,-1619.47
 L 921.631,-1625.42 L 907.317,-1628.46 L 892.683,-1628.46 L 878.369,-1625.42 L 865,-1619.47 L 853.161,-1610.87
 L 843.369,-1599.99 L -63.9482,-28.4716 L -68.4703,-14.5538 L -70,-0 L -68.4703,14.5538 L -63.9482,28.4716
 L -56.6312,41.145 L -46.8391,52.0201 L -35,60.6218 L -21.6312,66.5739 L -7.31699,69.6165 L 1807.32,69.6165
 z
M 895.819,-1519.06 L 887.639,-1520.8 L 880,-1524.2 L 873.235,-1529.12 L 867.639,-1535.33 L 863.458,-1542.58
 L 860.874,-1550.53 L 860,-1558.85 L 860.874,-1567.16 L 863.458,-1575.12 L 867.639,-1582.36 L 873.235,-1588.57
 L 880,-1593.49 L 887.639,-1596.89 L 895.819,-1598.63 L 904.181,-1598.63 L 912.361,-1596.89 L 920,-1593.49
 L 926.765,-1588.57 L 932.361,-1582.36 L 936.542,-1575.12 L 939.126,-1567.16 L 940,-1558.85 L 939.126,-1550.53
 L 936.542,-1542.58 L 932.361,-1535.33 L 926.765,-1529.12 L 920,-1524.2 L 912.361,-1520.8 L 904.181,-1519.06
 z
M 885.261,-1158.62 L 856.429,-1164.75 L 829.5,-1176.74 L 805.653,-1194.06 L 785.929,-1215.97 L 771.19,-1241.5
 L 762.081,-1269.53 L 759,-1298.85 L 762.081,-1328.16 L 771.19,-1356.2 L 785.929,-1381.72 L 805.653,-1403.63
 L 810,-1406.79 L 810,-1470.85 L 865,-1470.85 L 865,-1495.85 L 935,-1495.85 L 935,-1470.85
 L 990,-1470.85 L 990,-1406.79 L 994.347,-1403.63 L 1014.07,-1381.72 L 1028.81,-1356.2 L 1037.92,-1328.16
 L 1041,-1298.85 L 1037.92,-1269.53 L 1028.81,-1241.5 L 1014.07,-1215.97 L 994.347,-1194.06 L 970.5,-1176.74
 L 943.571,-1164.75 L 914.739,-1158.62 z
M 722.909,-1278.96 L 718.82,-1279.82 L 715,-1281.53 L 711.617,-1283.98 L 708.82,-1287.09 L 706.729,-1290.71
 L 705.437,-1294.69 L 705,-1298.85 L 705.437,-1303 L 706.729,-1306.98 L 708.82,-1310.6 L 711.617,-1313.71
 L 715,-1316.17 L 718.82,-1317.87 L 722.909,-1318.74 L 727.091,-1318.74 L 731.18,-1317.87 L 735,-1316.17
 L 738.383,-1313.71 L 741.18,-1310.6 L 743.271,-1306.98 L 744.563,-1303 L 745,-1298.85 L 744.563,-1294.69
 L 743.271,-1290.71 L 741.18,-1287.09 L 738.383,-1283.98 L 735,-1281.53 L 731.18,-1279.82 L 727.091,-1278.96
 z
M 1072.91,-1278.96 L 1068.82,-1279.82 L 1065,-1281.53 L 1061.62,-1283.98 L 1058.82,-1287.09 L 1056.73,-1290.71
 L 1055.44,-1294.69 L 1055,-1298.85 L 1055.44,-1303 L 1056.73,-1306.98 L 1058.82,-1310.6 L 1061.62,-1313.71
 L 1065,-1316.17 L 1068.82,-1317.87 L 1072.91,-1318.74 L 1077.09,-1318.74 L 1081.18,-1317.87 L 1085,-1316.17
 L 1088.38,-1313.71 L 1091.18,-1310.6 L 1093.27,-1306.98 L 1094.56,-1303 L 1095,-1298.85 L 1094.56,-1294.69
 L 1093.27,-1290.71 L 1091.18,-1287.09 L 1088.38,-1283.98 L 1085,-1281.53 L 1081.18,-1279.82 L 1077.09,-1278.96
 z
M 584.797,-978.454 L 582.212,-979.294 L 579.859,-980.652 L 577.839,-982.471 L 576.242,-984.67 L 575.136,-987.152
 L 574.571,-989.811 L 574.571,-992.529 L 575.136,-995.187 L 576.242,-997.67 L 577.839,-999.868 L 579.859,-1001.69
 L 582.212,-1003.05 L 584.797,-1003.89 L 587.5,-1004.17 L 590.203,-1003.89 L 592.788,-1003.05 L 595.141,-1001.69
 L 597.161,-999.868 L 598.758,-997.67 L 599.864,-995.187 L 600.429,-992.529 L 600.429,-989.811 L 599.864,-987.152
 L 598.758,-984.67 L 597.161,-982.471 L 595.141,-980.652 L 592.788,-979.294 L 590.203,-978.454 L 587.5,-978.17
 z
M 1182.5,-956.529 L 1256.11,-999.029 L 1323.61,-882.115 L 1250,-839.615 z
M 748.432,-951.697 L 745.365,-952.349 L 742.5,-953.625 L 739.963,-955.468 L 737.865,-957.798 L 736.297,-960.514
 L 735.328,-963.497 L 735,-966.615 L 735.328,-969.734 L 736.297,-972.716 L 737.865,-975.432 L 739.963,-977.762
 L 742.5,-979.606 L 745.365,-980.881 L 748.432,-981.533 L 751.568,-981.533 L 754.635,-980.881 L 757.5,-979.606
 L 760.037,-977.762 L 762.135,-975.432 L 763.703,-972.716 L 764.672,-969.734 L 765,-966.615 L 764.672,-963.497
 L 763.703,-960.514 L 762.135,-957.798 L 760.037,-955.468 L 757.5,-953.625 L 754.635,-952.349 L 751.568,-951.697
 z
M 1017.39,-860.752 L 1012.27,-861.839 L 1007.5,-863.965 L 1003.27,-867.037 L 999.775,-870.921 L 997.161,-875.447
 L 995.546,-880.417 L 995,-885.615 L 995.546,-890.813 L 997.161,-895.784 L 999.775,-900.31 L 1003.27,-904.194
 L 1007.5,-907.266 L 1012.27,-909.392 L 1017.39,-910.478 L 1022.61,-910.478 L 1027.73,-909.392 L 1032.5,-907.266
 L 1036.73,-904.194 L 1040.23,-900.31 L 1042.84,-895.784 L 1044.45,-890.813 L 1045,-885.615 L 1044.45,-880.417
 L 1042.84,-875.447 L 1040.23,-870.921 L 1036.73,-867.037 L 1032.5,-863.965 L 1027.73,-861.839 L 1022.61,-860.752
 z
M 777.387,-860.752 L 772.275,-861.839 L 767.5,-863.965 L 763.272,-867.037 L 759.775,-870.921 L 757.161,-875.447
 L 755.546,-880.417 L 755,-885.615 L 755.546,-890.813 L 757.161,-895.784 L 759.775,-900.31 L 763.272,-904.194
 L 767.5,-907.266 L 772.275,-909.392 L 777.387,-910.478 L 782.613,-910.478 L 787.725,-909.392 L 792.5,-907.266
 L 796.728,-904.194 L 800.225,-900.31 L 802.839,-895.784 L 804.454,-890.813 L 805,-885.615 L 804.454,-880.417
 L 802.839,-875.447 L 800.225,-870.921 L 796.728,-867.037 L 792.5,-863.965 L 787.725,-861.839 L 782.613,-860.752
 z
M 497.297,-826.899 L 494.712,-827.739 L 492.359,-829.098 L 490.339,-830.917 L 488.742,-833.115 L 487.636,-835.598
 L 487.071,-838.256 L 487.071,-840.974 L 487.636,-843.632 L 488.742,-846.115 L 490.339,-848.314 L 492.359,-850.132
 L 494.712,-851.491 L 497.297,-852.331 L 500,-852.615 L 502.703,-852.331 L 505.288,-851.491 L 507.641,-850.132
 L 509.661,-848.314 L 511.258,-846.115 L 512.364,-843.632 L 512.929,-840.974 L 512.929,-838.256 L 512.364,-835.598
 L 511.258,-833.115 L 509.661,-830.917 L 507.641,-829.098 L 505.288,-827.739 L 502.703,-826.899 L 500,-826.615
 z
M 1038.43,-789.697 L 1035.36,-790.349 L 1032.5,-791.625 L 1029.96,-793.468 L 1027.86,-795.798 L 1026.3,-798.514
 L 1025.33,-801.497 L 1025,-804.615 L 1025.33,-807.734 L 1026.3,-810.716 L 1027.86,-813.432 L 1029.96,-815.762
 L 1032.5,-817.606 L 1035.36,-818.881 L 1038.43,-819.533 L 1041.57,-819.533 L 1044.64,-818.881 L 1047.5,-817.606
 L 1050.04,-815.762 L 1052.14,-813.432 L 1053.7,-810.716 L 1054.67,-807.734 L 1055,-804.615 L 1054.67,-801.497
 L 1053.7,-798.514 L 1052.14,-795.798 L 1050.04,-793.468 L 1047.5,-791.625 L 1044.64,-790.349 L 1041.57,-789.697
 z
M 421.881,-711.943 L 418.899,-712.912 L 416.183,-714.48 L 413.853,-716.578 L 412.01,-719.115 L 410.734,-721.98
 L 410.082,-725.047 L 410.082,-728.183 L 410.734,-731.25 L 412.01,-734.115 L 413.853,-736.652 L 416.183,-738.75
 L 418.899,-740.318 L 421.881,-741.287 L 425,-741.615 L 428.119,-741.287 L 431.101,-740.318 L 433.817,-738.75
 L 436.147,-736.652 L 437.99,-734.115 L 439.266,-731.25 L 439.918,-728.183 L 439.918,-725.047 L 439.266,-721.98
 L 437.99,-719.115 L 436.147,-716.578 L 433.817,-714.48 L 431.101,-712.912 L 428.119,-711.943 L 425,-711.615
 z
M 691.881,-711.943 L 688.899,-712.912 L 686.183,-714.48 L 683.853,-716.578 L 682.01,-719.115 L 680.734,-721.98
 L 680.082,-725.047 L 680.082,-728.183 L 680.734,-731.25 L 682.01,-734.115 L 683.853,-736.652 L 686.183,-738.75
 L 688.899,-740.318 L 691.881,-741.287 L 695,-741.615 L 698.119,-741.287 L 701.101,-740.318 L 703.817,-738.75
 L 706.147,-736.652 L 707.99,-734.115 L 709.266,-731.25 L 709.918,-728.183 L 709.918,-725.047 L 709.266,-721.98
 L 707.99,-719.115 L 706.147,-716.578 L 703.817,-714.48 L 701.101,-712.912 L 698.119,-711.943 L 695,-711.615
 z
M 761.881,-711.943 L 758.899,-712.912 L 756.183,-714.48 L 753.853,-716.578 L 752.01,-719.115 L 750.734,-721.98
 L 750.082,-725.047 L 750.082,-728.183 L 750.734,-731.25 L 752.01,-734.115 L 753.853,-736.652 L 756.183,-738.75
 L 758.899,-740.318 L 761.881,-741.287 L 765,-741.615 L 768.119,-741.287 L 771.101,-740.318 L 773.817,-738.75
 L 776.147,-736.652 L 777.99,-734.115 L 779.266,-731.25 L 779.918,-728.183 L 779.918,-725.047 L 779.266,-721.98
 L 777.99,-719.115 L 776.147,-716.578 L 773.817,-714.48 L 771.101,-712.912 L 768.119,-711.943 L 765,-711.615
 z
M 1031.88,-711.943 L 1028.9,-712.912 L 1026.18,-714.48 L 1023.85,-716.578 L 1022.01,-719.115 L 1020.73,-721.98
 L 1020.08,-725.047 L 1020.08,-728.183 L 1020.73,-731.25 L 1022.01,-734.115 L 1023.85,-736.652 L 1026.18,-738.75
 L 1028.9,-740.318 L 1031.88,-741.287 L 1035,-741.615 L 1038.12,-741.287 L 1041.1,-740.318 L 1043.82,-738.75
 L 1046.15,-736.652 L 1047.99,-734.115 L 1049.27,-731.25 L 1049.92,-728.183 L 1049.92,-725.047 L 1049.27,-721.98
 L 1047.99,-719.115 L 1046.15,-716.578 L 1043.82,-714.48 L 1041.1,-712.912 L 1038.12,-711.943 L 1035,-711.615
 z
M 1101.88,-711.943 L 1098.9,-712.912 L 1096.18,-714.48 L 1093.85,-716.578 L 1092.01,-719.115 L 1090.73,-721.98
 L 1090.08,-725.047 L 1090.08,-728.183 L 1090.73,-731.25 L 1092.01,-734.115 L 1093.85,-736.652 L 1096.18,-738.75
 L 1098.9,-740.318 L 1101.88,-741.287 L 1105,-741.615 L 1108.12,-741.287 L 1111.1,-740.318 L 1113.82,-738.75
 L 1116.15,-736.652 L 1117.99,-734.115 L 1119.27,-731.25 L 1119.92,-728.183 L 1119.92,-725.047 L 1119.27,-721.98
 L 1117.99,-719.115 L 1116.15,-716.578 L 1113.82,-714.48 L 1111.1,-712.912 L 1108.12,-711.943 L 1105,-711.615
 z
M 1371.88,-711.943 L 1368.9,-712.912 L 1366.18,-714.48 L 1363.85,-716.578 L 1362.01,-719.115 L 1360.73,-721.98
 L 1360.08,-725.047 L 1360.08,-728.183 L 1360.73,-731.25 L 1362.01,-734.115 L 1363.85,-736.652 L 1366.18,-738.75
 L 1368.9,-740.318 L 1371.88,-741.287 L 1375,-741.615 L 1378.12,-741.287 L 1381.1,-740.318 L 1383.82,-738.75
 L 1386.15,-736.652 L 1387.99,-734.115 L 1389.27,-731.25 L 1389.92,-728.183 L 1389.92,-725.047 L 1389.27,-721.98
 L 1387.99,-719.115 L 1386.15,-716.578 L 1383.82,-714.48 L 1381.1,-712.912 L 1378.12,-711.943 L 1375,-711.615
 z
M 470,-459.615 L 470,-539.615 L 650,-539.615 L 650,-459.615 z
M 810,-459.615 L 810,-539.615 L 990,-539.615 L 990,-459.615 z
M 1150,-459.615 L 1150,-539.615 L 1330,-539.615 L 1330,-459.615 z
M 1031.88,-409.943 L 1028.9,-410.912 L 1026.18,-412.48 L 1023.85,-414.578 L 1022.01,-417.115 L 1020.73,-419.98
 L 1020.08,-423.047 L 1020.08,-426.183 L 1020.73,-429.25 L 1022.01,-432.115 L 1023.85,-434.652 L 1026.18,-436.75
 L 1028.9,-438.318 L 1031.88,-439.287 L 1035,-439.615 L 1038.12,-439.287 L 1041.1,-438.318 L 1043.82,-436.75
 L 1046.15,-434.652 L 1047.99,-432.115 L 1049.27,-429.25 L 1049.92,-426.183 L 1049.92,-423.047 L 1049.27,-419.98
 L 1047.99,-417.115 L 1046.15,-414.578 L 1043.82,-412.48 L 1041.1,-410.912 L 1038.12,-409.943 L 1035,-409.615
 z
M 1371.88,-409.943 L 1368.9,-410.912 L 1366.18,-412.48 L 1363.85,-414.578 L 1362.01,-417.115 L 1360.73,-419.98
 L 1360.08,-423.047 L 1360.08,-426.183 L 1360.73,-429.25 L 1362.01,-432.115 L 1363.85,-434.652 L 1366.18,-436.75
 L 1368.9,-438.318 L 1371.88,-439.287 L 1375,-439.615 L 1378.12,-439.287 L 1381.1,-438.318 L 1383.82,-436.75
 L 1386.15,-434.652 L 1387.99,-432.115 L 1389.27,-429.25 L 1389.92,-426.183 L 1389.92,-423.047 L 1389.27,-419.98
 L 1387.99,-417.115 L 1386.15,-414.578 L 1383.82,-412.48 L 1381.1,-410.912 L 1378.12,-409.943 L 1375,-409.615
 z
M 1101.88,-409.943 L 1098.9,-410.912 L 1096.18,-412.48 L 1093.85,-414.578 L 1092.01,-417.115 L 1090.73,-419.98
 L 1090.08,-423.047 L 1090.08,-426.183 L 1090.73,-429.25 L 1092.01,-432.115 L 1093.85,-434.652 L 1096.18,-436.75
 L 1098.9,-438.318 L 1101.88,-439.287 L 1105,-439.615 L 1108.12,-439.287 L 1111.1,-438.318 L 1113.82,-436.75
 L 1116.15,-434.652 L 1117.99,-432.115 L 1119.27,-429.25 L 1119.92,-426.183 L 1119.92,-423.047 L 1119.27,-419.98
 L 1117.99,-417.115 L 1116.15,-414.578 L 1113.82,-412.48 L 1111.1,-410.912 L 1108.12,-409.943 L 1105,-409.615
 z
M 761.881,-409.943 L 758.899,-410.912 L 756.183,-412.48 L 753.853,-414.578 L 752.01,-417.115 L 750.734,-419.98
 L 750.082,-423.047 L 750.082,-426.183 L 750.734,-429.25 L 752.01,-432.115 L 753.853,-434.652 L 756.183,-436.75
 L 758.899,-438.318 L 761.881,-439.287 L 765,-439.615 L 768.119,-439.287 L 771.101,-438.318 L 773.817,-436.75
 L 776.147,-434.652 L 777.99,-432.115 L 779.266,-429.25 L 779.918,-426.183 L 779.918,-423.047 L 779.266,-419.98
 L 777.99,-417.115 L 776.147,-414.578 L 773.817,-412.48 L 771.101,-410.912 L 768.119,-409.943 L 765,-409.615
 z
M 691.881,-409.943 L 688.899,-410.912 L 686.183,-412.48 L 683.853,-414.578 L 682.01,-417.115 L 680.734,-419.98
 L 680.082,-423.047 L 680.082,-426.183 L 680.734,-429.25 L 682.01,-432.115 L 683.853,-434.652 L 686.183,-436.75
 L 688.899,-438.318 L 691.881,-439.287 L 695,-439.615 L 698.119,-439.287 L 701.101,-438.318 L 703.817,-436.75
 L 706.147,-434.652 L 707.99,-432.115 L 709.266,-429.25 L 709.918,-426.183 L 709.918,-423.047 L 709.266,-419.98
 L 707.99,-417.115 L 706.147,-414.578 L 703.817,-412.48 L 701.101,-410.912 L 698.119,-409.943 L 695,-409.615
 z
M 421.881,-409.943 L 418.899,-410.912 L 416.183,-412.48 L 413.853,-414.578 L 412.01,-417.115 L 410.734,-419.98
 L 410.082,-423.047 L 410.082,-426.183 L 410.734,-429.25 L 412.01,-432.115 L 413.853,-434.652 L 416.183,-436.75
 L 418.899,-438.318 L 421.881,-439.287 L 425,-439.615 L 428.119,-439.287 L 431.101,-438.318 L 433.817,-436.75
 L 436.147,-434.652 L 437.99,-432.115 L 439.266,-429.25 L 439.918,-426.183 L 439.918,-423.047 L 439.266,-419.98
 L 437.99,-417.115 L 436.147,-414.578 L 433.817,-412.48 L 431.101,-410.912 L 428.119,-409.943 L 425,-409.615
 z
M 1193.54,-285.692 L 1190.67,-286.3 L 1188,-287.491 L 1185.63,-289.211 L 1183.67,-291.386 L 1182.21,-293.921
 L 1181.31,-296.704 L 1181,-299.615 L 1181.31,-302.526 L 1182.21,-305.31 L 1183.67,-307.844 L 1185.63,-310.019
 L 1188,-311.74 L 1190.67,-312.93 L 1193.54,-313.539 L 1196.46,-313.539 L 1199.33,-312.93 L 1202,-311.74
 L 1204.37,-310.019 L 1206.33,-307.844 L 1207.79,-305.31 L 1208.69,-302.526 L 1209,-299.615 L 1208.69,-296.704
 L 1207.79,-293.921 L 1206.33,-291.386 L 1204.37,-289.211 L 1202,-287.491 L 1199.33,-286.3 L 1196.46,-285.692
 z
M 603.537,-285.692 L 600.674,-286.3 L 598,-287.491 L 595.632,-289.211 L 593.674,-291.386 L 592.21,-293.921
 L 591.306,-296.704 L 591,-299.615 L 591.306,-302.526 L 592.21,-305.31 L 593.674,-307.844 L 595.632,-310.019
 L 598,-311.74 L 600.674,-312.93 L 603.537,-313.539 L 606.463,-313.539 L 609.326,-312.93 L 612,-311.74
 L 614.368,-310.019 L 616.326,-307.844 L 617.79,-305.31 L 618.694,-302.526 L 619,-299.615 L 618.694,-296.704
 L 617.79,-293.921 L 616.326,-291.386 L 614.368,-289.211 L 612,-287.491 L 609.326,-286.3 L 606.463,-285.692
 z
M 1660.24,-261.664 L 1656.15,-262.533 L 1652.33,-264.234 L 1648.95,-266.692 L 1646.15,-269.799 L 1644.06,-273.42
 L 1642.77,-277.396 L 1642.33,-281.554 L 1642.77,-285.713 L 1644.06,-289.689 L 1646.15,-293.31 L 1648.95,-296.417
 L 1652.33,-298.875 L 1656.15,-300.576 L 1660.24,-301.445 L 1664.42,-301.445 L 1668.51,-300.576 L 1672.33,-298.875
 L 1675.72,-296.417 L 1678.51,-293.31 L 1680.6,-289.689 L 1681.9,-285.713 L 1682.33,-281.554 L 1681.9,-277.396
 L 1680.6,-273.42 L 1678.51,-269.799 L 1675.72,-266.692 L 1672.33,-264.234 L 1668.51,-262.533 L 1664.42,-261.664
 z
M 135.576,-261.664 L 131.486,-262.533 L 127.667,-264.234 L 124.284,-266.692 L 121.486,-269.799 L 119.396,-273.42
 L 118.104,-277.396 L 117.667,-281.554 L 118.104,-285.713 L 119.396,-289.689 L 121.486,-293.31 L 124.284,-296.417
 L 127.667,-298.875 L 131.486,-300.576 L 135.576,-301.445 L 139.757,-301.445 L 143.847,-300.576 L 147.667,-298.875
 L 151.049,-296.417 L 153.847,-293.31 L 155.938,-289.689 L 157.23,-285.713 L 157.667,-281.554 L 157.23,-277.396
 L 155.938,-273.42 L 153.847,-269.799 L 151.049,-266.692 L 147.667,-264.234 L 143.847,-262.533 L 139.757,-261.664
 z
M 93.7102,-13.6891 L 72.0596,-1.1891 L 37.0596,-61.8109 L 58.7102,-74.3109 L 31.2102,-121.942 L 86.6861,-153.971
 L 87.2478,-159.316 L 96.3567,-187.35 L 111.095,-212.878 L 130.819,-234.783 L 154.667,-252.11 L 181.595,-264.099
 L 210.428,-270.228 L 239.905,-270.228 L 268.738,-264.099 L 295.667,-252.11 L 319.514,-234.783 L 339.238,-212.878
 L 353.977,-187.35 L 363.085,-159.316 L 366.167,-130 L 363.085,-100.684 L 353.977,-72.6501 L 339.238,-47.1223
 L 319.514,-25.2166 L 295.667,-7.89041 L 268.738,4.09895 L 239.905,10.2276 L 210.428,10.2276 L 181.595,4.09895
 L 176.686,1.91328 L 121.21,33.9423 z
M 1623.31,1.91328 L 1618.4,4.09895 L 1589.57,10.2276 L 1560.09,10.2276 L 1531.26,4.09895 L 1504.33,-7.89041
 L 1480.49,-25.2166 L 1460.76,-47.1223 L 1446.02,-72.6501 L 1436.91,-100.684 L 1433.83,-130 L 1436.91,-159.316
 L 1446.02,-187.35 L 1460.76,-212.878 L 1480.49,-234.783 L 1504.33,-252.11 L 1531.26,-264.099 L 1560.09,-270.228
 L 1589.57,-270.228 L 1618.4,-264.099 L 1645.33,-252.11 L 1669.18,-234.783 L 1688.9,-212.878 L 1703.64,-187.35
 L 1712.75,-159.316 L 1713.31,-153.971 L 1768.79,-121.942 L 1741.29,-74.3109 L 1762.94,-61.8109 L 1727.94,-1.1891
 L 1706.29,-13.6891 L 1678.79,33.9423 z
M 750,-129.615 L 750,-229.615 L 1050,-229.615 L 1050,-129.615 z
M 1193.54,-45.6919 L 1190.67,-46.3004 L 1188,-47.4909 L 1185.63,-49.2112 L 1183.67,-51.3862 L 1182.21,-53.9209
 L 1181.31,-56.7045 L 1181,-59.6152 L 1181.31,-62.526 L 1182.21,-65.3095 L 1183.67,-67.8442 L 1185.63,-70.0193
 L 1188,-71.7396 L 1190.67,-72.93 L 1193.54,-73.5385 L 1196.46,-73.5385 L 1199.33,-72.93 L 1202,-71.7396
 L 1204.37,-70.0193 L 1206.33,-67.8442 L 1207.79,-65.3095 L 1208.69,-62.526 L 1209,-59.6152 L 1208.69,-56.7045
 L 1207.79,-53.9209 L 1206.33,-51.3862 L 1204.37,-49.2112 L 1202,-47.4909 L 1199.33,-46.3004 L 1196.46,-45.6919
 z
M 603.537,-45.6919 L 600.674,-46.3004 L 598,-47.4909 L 595.632,-49.2112 L 593.674,-51.3862 L 592.21,-53.9209
 L 591.306,-56.7045 L 591,-59.6152 L 591.306,-62.526 L 592.21,-65.3095 L 593.674,-67.8442 L 595.632,-70.0193
 L 598,-71.7396 L 600.674,-72.93 L 603.537,-73.5385 L 606.463,-73.5385 L 609.326,-72.93 L 612,-71.7396
 L 614.368,-70.0193 L 616.326,-67.8442 L 617.79,-65.3095 L 618.694,-62.526 L 619,-59.6152 L 618.694,-56.7045
 L 617.79,-53.9209 L 616.326,-51.3862 L 614.368,-49.2112 L 612,-47.4909 L 609.326,-46.3004 L 606.463,-45.6919
 z
M 1795.82,39.7809 L 1787.64,38.0423 L 1780,34.641 L 1773.23,29.7258 L 1767.64,23.5114 L 1763.46,16.2695
 L 1760.87,8.31647 L 1760,-0 L 1760.87,-8.31647 L 1763.46,-16.2695 L 1767.64,-23.5114 L 1773.23,-29.7258
 L 1780,-34.641 L 1787.64,-38.0423 L 1795.82,-39.7809 L 1804.18,-39.7809 L 1812.36,-38.0423 L 1820,-34.641
 L 1826.77,-29.7258 L 1832.36,-23.5114 L 1836.54,-16.2695 L 1839.13,-8.31647 L 1840,-0 L 1839.13,8.31647
 L 1836.54,16.2695 L 1832.36,23.5114 L 1826.77,29.7258 L 1820,34.641 L 1812.36,38.0423 L 1804.18,39.7809
 z
M -4.18114,39.7809 L -12.3607,38.0423 L -20,34.641 L -26.7652,29.7258 L -32.3607,23.5114 L -36.5418,16.2695
 L -39.1259,8.31647 L -40,-0 L -39.1259,-8.31647 L -36.5418,-16.2695 L -32.3607,-23.5114 L -26.7652,-29.7258
 L -20,-34.641 L -12.3607,-38.0423 L -4.18114,-39.7809 L 4.18114,-39.7809 L 12.3607,-38.0423 L 20,-34.641
 L 26.7652,-29.7258 L 32.3607,-23.5114 L 36.5418,-16.2695 L 39.1259,-8.31647 L 40,-0 L 39.1259,8.31647
 L 36.5418,16.2695 L 32.3607,23.5114 L 26.7652,29.7258 L 20,34.641 L 12.3607,38.0423 L 4.18114,39.7809
 z
M 310.576,41.4449 L 306.486,40.5755 L 302.667,38.8749 L 299.284,36.4173 L 296.486,33.3101 L 294.396,29.6892
 L 293.104,25.7127 L 292.667,21.5544 L 293.104,17.3962 L 294.396,13.4197 L 296.486,9.79872 L 299.284,6.69154
 L 302.667,4.23393 L 306.486,2.53331 L 310.576,1.664 L 314.757,1.664 L 318.847,2.53331 L 322.667,4.23393
 L 326.049,6.69154 L 328.847,9.79874 L 330.938,13.4197 L 332.23,17.3962 L 332.667,21.5544 L 332.23,25.7127
 L 330.937,29.6892 L 328.847,33.3102 L 326.049,36.4173 L 322.667,38.8749 L 318.847,40.5756 L 314.757,41.4449
 z
M 1481.15,40.5756 L 1477.33,38.8749 L 1473.95,36.4173 L 1471.15,33.3102 L 1469.06,29.6892 L 1467.77,25.7127
 L 1467.33,21.5544 L 1467.77,17.3962 L 1469.06,13.4197 L 1471.15,9.79874 L 1473.95,6.69154 L 1477.33,4.23393
 L 1481.15,2.53331 L 1485.24,1.664 L 1489.42,1.664 L 1493.51,2.53331 L 1497.33,4.23393 L 1500.72,6.69154
 L 1503.51,9.79872 L 1505.6,13.4197 L 1506.9,17.3962 L 1507.33,21.5544 L 1506.9,25.7127 L 1505.6,29.6892
 L 1503.51,33.3101 L 1500.72,36.4173 L 1497.33,38.8749 L 1493.51,40.5755 L 1489.42,41.4449 L 1485.24,41.4449
 z
" stroke="black" fill="lightgray" stroke-width="0.5"/>
</svg>
