<?xml version="1.0" standalone="no"?>
<!DOCTYPE svg PUBLIC "-//W3C//DTD SVG 1.1//EN" "http://www.w3.org/Graphics/SVG/1.1/DTD/svg11.dtd">
<svg width="194mm" height="170mm" viewBox="-7 -163 194 170" xmlns="http://www.w3.org/2000/svg" version="1.1">
<title>OpenSCAD Model</title>
<path d="
M 182.163,6.65739 L 183.5,6.06218 L 184.684,5.20201 L 185.663,4.1145 L 186.395,2.84716 L 186.847,1.45538
 L 187,-0 L 186.847,-1.45538 L 186.395,-2.84716 L 95.6631,-159.999 L 94.6839,-161.087 L 93.5,-161.947
 L 92.1631,-162.542 L 90.7317,-162.846 L 89.2683,-162.846 L 87.8369,-162.542 L 86.5,-161.947 L 85.3161,-161.087
 L 84.3369,-159.999 L -6.39482,-2.84716 L -6.84703,-1.45538 L -7,-0 L -6.84703,1.45538 L -6.39482,2.84716
 L -5.66312,4.1145 L -4.68391,5.20201 L -3.5,6.06218 L -2.16312,6.65739 L -0.731699,6.96165 L 180.732,6.96165
 z
M 89.5819,-151.906 L 88.7639,-152.08 L 88,-152.42 L 87.3235,-152.912 L 86.7639,-153.533 L 86.3458,-154.258
 L 86.0874,-155.053 L 86,-155.885 L 86.0874,-156.716 L 86.3458,-157.512 L 86.7639,-158.236 L 87.3235,-158.857
 L 88,-159.349 L 88.7639,-159.689 L 89.5819,-159.863 L 90.4181,-159.863 L 91.2361,-159.689 L 92,-159.349
 L 92.6765,-158.857 L 93.2361,-158.236 L 93.6542,-157.512 L 93.9126,-156.716 L 94,-155.885 L 93.9126,-155.053
 L 93.6542,-154.258 L 93.2361,-153.533 L 92.6765,-152.912 L 92,-152.42 L 91.2361,-152.08 L 90.4181,-151.906
 z
M 88.5261,-115.862 L 85.6429,-116.475 L 82.95,-117.674 L 80.5653,-119.406 L 78.5929,-121.597 L 77.119,-124.15
 L 76.2081,-126.953 L 75.9,-129.885 L 76.2081,-132.816 L 77.119,-135.62 L 78.5929,-138.172 L 80.5653,-140.363
 L 81,-140.679 L 81,-147.085 L 86.5,-147.085 L 86.5,-149.585 L 93.5,-149.585 L 93.5,-147.085
 L 99,-147.085 L 99,-140.679 L 99.4347,-140.363 L 101.407,-138.172 L 102.881,-135.62 L 103.792,-132.816
 L 104.1,-129.885 L 103.792,-126.953 L 102.881,-124.15 L 101.407,-121.597 L 99.4347,-119.406 L 97.05,-117.674
 L 94.3571,-116.475 L 91.4739,-115.862 z
M 72.2909,-127.896 L 71.882,-127.982 L 71.5,-128.153 L 71.1617,-128.398 L 70.882,-128.709 L 70.6729,-129.071
 L 70.5437,-129.469 L 70.5,-129.885 L 70.5437,-130.3 L 70.6729,-130.698 L 70.882,-131.06 L 71.1617,-131.371
 L 71.5,-131.617 L 71.882,-131.787 L 72.2909,-131.874 L 72.7091,-131.874 L 73.118,-131.787 L 73.5,-131.617
 L 73.8383,-131.371 L 74.118,-131.06 L 74.3271,-130.698 L 74.4563,-130.3 L 74.5,-129.885 L 74.4563,-129.469
 L 74.3271,-129.071 L 74.118,-128.709 L 73.8383,-128.398 L 73.5,-128.153 L 73.118,-127.982 L 72.7091,-127.896
 z
M 107.291,-127.896 L 106.882,-127.982 L 106.5,-128.153 L 106.162,-128.398 L 105.882,-128.709 L 105.673,-129.071
 L 105.544,-129.469 L 105.5,-129.885 L 105.544,-130.3 L 105.673,-130.698 L 105.882,-131.06 L 106.162,-131.371
 L 106.5,-131.617 L 106.882,-131.787 L 107.291,-131.874 L 107.709,-131.874 L 108.118,-131.787 L 108.5,-131.617
 L 108.838,-131.371 L 109.118,-131.06 L 109.327,-130.698 L 109.456,-130.3 L 109.5,-129.885 L 109.456,-129.469
 L 109.327,-129.071 L 109.118,-128.709 L 108.838,-128.398 L 108.5,-128.153 L 108.118,-127.982 L 107.709,-127.896
 z
M 58.4797,-97.8454 L 58.2212,-97.9294 L 57.9859,-98.0652 L 57.7839,-98.2471 L 57.6242,-98.467 L 57.5136,-98.7152
 L 57.4571,-98.9811 L 57.4571,-99.2529 L 57.5136,-99.5187 L 57.6242,-99.767 L 57.7839,-99.9868 L 57.9859,-100.169
 L 58.2212,-100.305 L 58.4797,-100.389 L 58.75,-100.417 L 59.0203,-100.389 L 59.2788,-100.305 L 59.5141,-100.169
 L 59.7161,-99.9868 L 59.8758,-99.767 L 59.9864,-99.5187 L 60.0429,-99.2529 L 60.0429,-98.9811 L 59.9864,-98.7152
 L 59.8758,-98.467 L 59.7161,-98.2471 L 59.5141,-98.0652 L 59.2788,-97.9294 L 59.0203,-97.8454 L 58.75,-97.817
 z
M 118.25,-95.6529 L 125.611,-99.9029 L 132.361,-88.2115 L 125,-83.9615 z
M 74.8432,-95.1697 L 74.5365,-95.2349 L 74.25,-95.3625 L 73.9963,-95.5468 L 73.7865,-95.7798 L 73.6297,-96.0514
 L 73.5328,-96.3497 L 73.5,-96.6615 L 73.5328,-96.9734 L 73.6297,-97.2716 L 73.7865,-97.5432 L 73.9963,-97.7762
 L 74.25,-97.9606 L 74.5365,-98.0881 L 74.8432,-98.1533 L 75.1568,-98.1533 L 75.4635,-98.0881 L 75.75,-97.9606
 L 76.0037,-97.7762 L 76.2135,-97.5432 L 76.3703,-97.2716 L 76.4672,-96.9734 L 76.5,-96.6615 L 76.4672,-96.3497
 L 76.3703,-96.0514 L 76.2135,-95.7798 L 76.0037,-95.5468 L 75.75,-95.3625 L 75.4635,-95.2349 L 75.1568,-95.1697
 z
M 82,-84.5615 L 82,-92.5615 L 98,-92.5615 L 98,-84.5615 z
M 49.7297,-82.6899 L 49.4712,-82.7739 L 49.2359,-82.9098 L 49.0339,-83.0917 L 48.8742,-83.3115 L 48.7636,-83.5598
 L 48.7071,-83.8256 L 48.7071,-84.0974 L 48.7636,-84.3632 L 48.8742,-84.6115 L 49.0339,-84.8314 L 49.2359,-85.0132
 L 49.4712,-85.1491 L 49.7297,-85.2331 L 50,-85.2615 L 50.2703,-85.2331 L 50.5288,-85.1491 L 50.7641,-85.0132
 L 50.9661,-84.8314 L 51.1258,-84.6115 L 51.2364,-84.3632 L 51.2929,-84.0974 L 51.2929,-83.8256 L 51.2364,-83.5598
 L 51.1258,-83.3115 L 50.9661,-83.0917 L 50.7641,-82.9098 L 50.5288,-82.7739 L 50.2703,-82.6899 L 50,-82.6615
 z
M 103.843,-78.9697 L 103.536,-79.0349 L 103.25,-79.1625 L 102.996,-79.3468 L 102.786,-79.5798 L 102.63,-79.8514
 L 102.533,-80.1497 L 102.5,-80.4615 L 102.533,-80.7734 L 102.63,-81.0716 L 102.786,-81.3432 L 102.996,-81.5762
 L 103.25,-81.7606 L 103.536,-81.8881 L 103.843,-81.9533 L 104.157,-81.9533 L 104.464,-81.8881 L 104.75,-81.7606
 L 105.004,-81.5762 L 105.214,-81.3432 L 105.37,-81.0716 L 105.467,-80.7734 L 105.5,-80.4615 L 105.467,-80.1497
 L 105.37,-79.8514 L 105.214,-79.5798 L 105.004,-79.3468 L 104.75,-79.1625 L 104.464,-79.0349 L 104.157,-78.9697
 z
M 42.1881,-71.1943 L 41.8899,-71.2912 L 41.6183,-71.448 L 41.3853,-71.6578 L 41.201,-71.9115 L 41.0734,-72.198
 L 41.0082,-72.5047 L 41.0082,-72.8183 L 41.0734,-73.125 L 41.201,-73.4115 L 41.3853,-73.6652 L 41.6183,-73.875
 L 41.8899,-74.0318 L 42.1881,-74.1287 L 42.5,-74.1615 L 42.8119,-74.1287 L 43.1101,-74.0318 L 43.3817,-73.875
 L 43.6147,-73.6652 L 43.799,-73.4115 L 43.9266,-73.125 L 43.9918,-72.8183 L 43.9918,-72.5047 L 43.9266,-72.198
 L 43.799,-71.9115 L 43.6147,-71.6578 L 43.3817,-71.448 L 43.1101,-71.2912 L 42.8119,-71.1943 L 42.5,-71.1615
 z
M 69.1881,-71.1943 L 68.8899,-71.2912 L 68.6183,-71.448 L 68.3853,-71.6578 L 68.201,-71.9115 L 68.0734,-72.198
 L 68.0082,-72.5047 L 68.0082,-72.8183 L 68.0734,-73.125 L 68.201,-73.4115 L 68.3853,-73.6652 L 68.6183,-73.875
 L 68.8899,-74.0318 L 69.1881,-74.1287 L 69.5,-74.1615 L 69.8119,-74.1287 L 70.1101,-74.0318 L 70.3817,-73.875
 L 70.6147,-73.6652 L 70.799,-73.4115 L 70.9266,-73.125 L 70.9918,-72.8183 L 70.9918,-72.5047 L 70.9266,-72.198
 L 70.799,-71.9115 L 70.6147,-71.6578 L 70.3817,-71.448 L 70.1101,-71.2912 L 69.8119,-71.1943 L 69.5,-71.1615
 z
M 76.1881,-71.1943 L 75.8899,-71.2912 L 75.6183,-71.448 L 75.3853,-71.6578 L 75.201,-71.9115 L 75.0734,-72.198
 L 75.0082,-72.5047 L 75.0082,-72.8183 L 75.0734,-73.125 L 75.201,-73.4115 L 75.3853,-73.6652 L 75.6183,-73.875
 L 75.8899,-74.0318 L 76.1881,-74.1287 L 76.5,-74.1615 L 76.8119,-74.1287 L 77.1101,-74.0318 L 77.3817,-73.875
 L 77.6147,-73.6652 L 77.799,-73.4115 L 77.9266,-73.125 L 77.9918,-72.8183 L 77.9918,-72.5047 L 77.9266,-72.198
 L 77.799,-71.9115 L 77.6147,-71.6578 L 77.3817,-71.448 L 77.1101,-71.2912 L 76.8119,-71.1943 L 76.5,-71.1615
 z
M 103.188,-71.1943 L 102.89,-71.2912 L 102.618,-71.448 L 102.385,-71.6578 L 102.201,-71.9115 L 102.073,-72.198
 L 102.008,-72.5047 L 102.008,-72.8183 L 102.073,-73.125 L 102.201,-73.4115 L 102.385,-73.6652 L 102.618,-73.875
 L 102.89,-74.0318 L 103.188,-74.1287 L 103.5,-74.1615 L 103.812,-74.1287 L 104.11,-74.0318 L 104.382,-73.875
 L 104.615,-73.6652 L 104.799,-73.4115 L 104.927,-73.125 L 104.992,-72.8183 L 104.992,-72.5047 L 104.927,-72.198
 L 104.799,-71.9115 L 104.615,-71.6578 L 104.382,-71.448 L 104.11,-71.2912 L 103.812,-71.1943 L 103.5,-71.1615
 z
M 110.188,-71.1943 L 109.89,-71.2912 L 109.618,-71.448 L 109.385,-71.6578 L 109.201,-71.9115 L 109.073,-72.198
 L 109.008,-72.5047 L 109.008,-72.8183 L 109.073,-73.125 L 109.201,-73.4115 L 109.385,-73.6652 L 109.618,-73.875
 L 109.89,-74.0318 L 110.188,-74.1287 L 110.5,-74.1615 L 110.812,-74.1287 L 111.11,-74.0318 L 111.382,-73.875
 L 111.615,-73.6652 L 111.799,-73.4115 L 111.927,-73.125 L 111.992,-72.8183 L 111.992,-72.5047 L 111.927,-72.198
 L 111.799,-71.9115 L 111.615,-71.6578 L 111.382,-71.448 L 111.11,-71.2912 L 110.812,-71.1943 L 110.5,-71.1615
 z
M 137.188,-71.1943 L 136.89,-71.2912 L 136.618,-71.448 L 136.385,-71.6578 L 136.201,-71.9115 L 136.073,-72.198
 L 136.008,-72.5047 L 136.008,-72.8183 L 136.073,-73.125 L 136.201,-73.4115 L 136.385,-73.6652 L 136.618,-73.875
 L 136.89,-74.0318 L 137.188,-74.1287 L 137.5,-74.1615 L 137.812,-74.1287 L 138.11,-74.0318 L 138.382,-73.875
 L 138.615,-73.6652 L 138.799,-73.4115 L 138.927,-73.125 L 138.992,-72.8183 L 138.992,-72.5047 L 138.927,-72.198
 L 138.799,-71.9115 L 138.615,-71.6578 L 138.382,-71.448 L 138.11,-71.2912 L 137.812,-71.1943 L 137.5,-71.1615
 z
M 47,-45.9615 L 47,-53.9615 L 65,-53.9615 L 65,-45.9615 z
M 81,-45.9615 L 81,-53.9615 L 99,-53.9615 L 99,-45.9615 z
M 115,-45.9615 L 115,-53.9615 L 133,-53.9615 L 133,-45.9615 z
M 76.1881,-40.9943 L 75.8899,-41.0912 L 75.6183,-41.248 L 75.3853,-41.4578 L 75.201,-41.7115 L 75.0734,-41.998
 L 75.0082,-42.3047 L 75.0082,-42.6183 L 75.0734,-42.925 L 75.201,-43.2115 L 75.3853,-43.4652 L 75.6183,-43.675
 L 75.8899,-43.8318 L 76.1881,-43.9287 L 76.5,-43.9615 L 76.8119,-43.9287 L 77.1101,-43.8318 L 77.3817,-43.675
 L 77.6147,-43.4652 L 77.799,-43.2115 L 77.9266,-42.925 L 77.9918,-42.6183 L 77.9918,-42.3047 L 77.9266,-41.998
 L 77.799,-41.7115 L 77.6147,-41.4578 L 77.3817,-41.248 L 77.1101,-41.0912 L 76.8119,-40.9943 L 76.5,-40.9615
 z
M 137.188,-40.9943 L 136.89,-41.0912 L 136.618,-41.248 L 136.385,-41.4578 L 136.201,-41.7115 L 136.073,-41.998
 L 136.008,-42.3047 L 136.008,-42.6183 L 136.073,-42.925 L 136.201,-43.2115 L 136.385,-43.4652 L 136.618,-43.675
 L 136.89,-43.8318 L 137.188,-43.9287 L 137.5,-43.9615 L 137.812,-43.9287 L 138.11,-43.8318 L 138.382,-43.675
 L 138.615,-43.4652 L 138.799,-43.2115 L 138.927,-42.925 L 138.992,-42.6183 L 138.992,-42.3047 L 138.927,-41.998
 L 138.799,-41.7115 L 138.615,-41.4578 L 138.382,-41.248 L 138.11,-41.0912 L 137.812,-40.9943 L 137.5,-40.9615
 z
M 110.188,-40.9943 L 109.89,-41.0912 L 109.618,-41.248 L 109.385,-41.4578 L 109.201,-41.7115 L 109.073,-41.998
 L 109.008,-42.3047 L 109.008,-42.6183 L 109.073,-42.925 L 109.201,-43.2115 L 109.385,-43.4652 L 109.618,-43.675
 L 109.89,-43.8318 L 110.188,-43.9287 L 110.5,-43.9615 L 110.812,-43.9287 L 111.11,-43.8318 L 111.382,-43.675
 L 111.615,-43.4652 L 111.799,-43.2115 L 111.927,-42.925 L 111.992,-42.6183 L 111.992,-42.3047 L 111.927,-41.998
 L 111.799,-41.7115 L 111.615,-41.4578 L 111.382,-41.248 L 111.11,-41.0912 L 110.812,-40.9943 L 110.5,-40.9615
 z
M 103.188,-40.9943 L 102.89,-41.0912 L 102.618,-41.248 L 102.385,-41.4578 L 102.201,-41.7115 L 102.073,-41.998
 L 102.008,-42.3047 L 102.008,-42.6183 L 102.073,-42.925 L 102.201,-43.2115 L 102.385,-43.4652 L 102.618,-43.675
 L 102.89,-43.8318 L 103.188,-43.9287 L 103.5,-43.9615 L 103.812,-43.9287 L 104.11,-43.8318 L 104.382,-43.675
 L 104.615,-43.4652 L 104.799,-43.2115 L 104.927,-42.925 L 104.992,-42.6183 L 104.992,-42.3047 L 104.927,-41.998
 L 104.799,-41.7115 L 104.615,-41.4578 L 104.382,-41.248 L 104.11,-41.0912 L 103.812,-40.9943 L 103.5,-40.9615
 z
M 69.1881,-40.9943 L 68.8899,-41.0912 L 68.6183,-41.248 L 68.3853,-41.4578 L 68.201,-41.7115 L 68.0734,-41.998
 L 68.0082,-42.3047 L 68.0082,-42.6183 L 68.0734,-42.925 L 68.201,-43.2115 L 68.3853,-43.4652 L 68.6183,-43.675
 L 68.8899,-43.8318 L 69.1881,-43.9287 L 69.5,-43.9615 L 69.8119,-43.9287 L 70.1101,-43.8318 L 70.3817,-43.675
 L 70.6147,-43.4652 L 70.799,-43.2115 L 70.9266,-42.925 L 70.9918,-42.6183 L 70.9918,-42.3047 L 70.9266,-41.998
 L 70.799,-41.7115 L 70.6147,-41.4578 L 70.3817,-41.248 L 70.1101,-41.0912 L 69.8119,-40.9943 L 69.5,-40.9615
 z
M 42.1881,-40.9943 L 41.8899,-41.0912 L 41.6183,-41.248 L 41.3853,-41.4578 L 41.201,-41.7115 L 41.0734,-41.998
 L 41.0082,-42.3047 L 41.0082,-42.6183 L 41.0734,-42.925 L 41.201,-43.2115 L 41.3853,-43.4652 L 41.6183,-43.675
 L 41.8899,-43.8318 L 42.1881,-43.9287 L 42.5,-43.9615 L 42.8119,-43.9287 L 43.1101,-43.8318 L 43.3817,-43.675
 L 43.6147,-43.4652 L 43.799,-43.2115 L 43.9266,-42.925 L 43.9918,-42.6183 L 43.9918,-42.3047 L 43.9266,-41.998
 L 43.799,-41.7115 L 43.6147,-41.4578 L 43.3817,-41.248 L 43.1101,-41.0912 L 42.8119,-40.9943 L 42.5,-40.9615
 z
M 119.354,-28.5692 L 119.067,-28.63 L 118.8,-28.7491 L 118.563,-28.9211 L 118.367,-29.1386 L 118.221,-29.3921
 L 118.131,-29.6704 L 118.1,-29.9615 L 118.131,-30.2526 L 118.221,-30.531 L 118.367,-30.7844 L 118.563,-31.0019
 L 118.8,-31.174 L 119.067,-31.293 L 119.354,-31.3539 L 119.646,-31.3539 L 119.933,-31.293 L 120.2,-31.174
 L 120.437,-31.0019 L 120.633,-30.7844 L 120.779,-30.531 L 120.869,-30.2526 L 120.9,-29.9615 L 120.869,-29.6704
 L 120.779,-29.3921 L 120.633,-29.1386 L 120.437,-28.9211 L 120.2,-28.7491 L 119.933,-28.63 L 119.646,-28.5692
 z
M 60.3537,-28.5692 L 60.0674,-28.63 L 59.8,-28.7491 L 59.5632,-28.9211 L 59.3674,-29.1386 L 59.221,-29.3921
 L 59.1306,-29.6704 L 59.1,-29.9615 L 59.1306,-30.2526 L 59.221,-30.531 L 59.3674,-30.7844 L 59.5632,-31.0019
 L 59.8,-31.174 L 60.0674,-31.293 L 60.3537,-31.3539 L 60.6463,-31.3539 L 60.9326,-31.293 L 61.2,-31.174
 L 61.4368,-31.0019 L 61.6326,-30.7844 L 61.779,-30.531 L 61.8694,-30.2526 L 61.9,-29.9615 L 61.8694,-29.6704
 L 61.779,-29.3921 L 61.6326,-29.1386 L 61.4368,-28.9211 L 61.2,-28.7491 L 60.9326,-28.63 L 60.6463,-28.5692
 z
M 166.024,-26.1664 L 165.615,-26.2533 L 165.233,-26.4234 L 164.895,-26.6692 L 164.615,-26.9799 L 164.406,-27.342
 L 164.277,-27.7396 L 164.233,-28.1554 L 164.277,-28.5713 L 164.406,-28.9689 L 164.615,-29.331 L 164.895,-29.6417
 L 165.233,-29.8875 L 165.615,-30.0576 L 166.024,-30.1445 L 166.442,-30.1445 L 166.851,-30.0576 L 167.233,-29.8875
 L 167.572,-29.6417 L 167.851,-29.331 L 168.06,-28.9689 L 168.19,-28.5713 L 168.233,-28.1554 L 168.19,-27.7396
 L 168.06,-27.342 L 167.851,-26.9799 L 167.572,-26.6692 L 167.233,-26.4234 L 166.851,-26.2533 L 166.442,-26.1664
 z
M 13.5576,-26.1664 L 13.1486,-26.2533 L 12.7667,-26.4234 L 12.4284,-26.6692 L 12.1486,-26.9799 L 11.9396,-27.342
 L 11.8104,-27.7396 L 11.7667,-28.1554 L 11.8104,-28.5713 L 11.9396,-28.9689 L 12.1486,-29.331 L 12.4284,-29.6417
 L 12.7667,-29.8875 L 13.1486,-30.0576 L 13.5576,-30.1445 L 13.9757,-30.1445 L 14.3847,-30.0576 L 14.7667,-29.8875
 L 15.1049,-29.6417 L 15.3847,-29.331 L 15.5938,-28.9689 L 15.723,-28.5713 L 15.7667,-28.1554 L 15.723,-27.7396
 L 15.5938,-27.342 L 15.3847,-26.9799 L 15.1049,-26.6692 L 14.7667,-26.4234 L 14.3847,-26.2533 L 13.9757,-26.1664
 z
M 9.37102,-1.36891 L 7.20596,-0.11891 L 3.70596,-6.18109 L 5.87102,-7.43109 L 3.12102,-12.1942 L 8.66861,-15.3971
 L 8.72478,-15.9316 L 9.63567,-18.735 L 11.1095,-21.2878 L 13.0819,-23.4783 L 15.4667,-25.211 L 18.1595,-26.4099
 L 21.0428,-27.0228 L 23.9905,-27.0228 L 26.8738,-26.4099 L 29.5667,-25.211 L 31.9514,-23.4783 L 33.9238,-21.2878
 L 35.3977,-18.735 L 36.3085,-15.9316 L 36.6167,-13 L 36.3085,-10.0684 L 35.3977,-7.26501 L 33.9238,-4.71223
 L 31.9514,-2.52166 L 29.5667,-0.789041 L 26.8738,0.409895 L 23.9905,1.02276 L 21.0428,1.02276 L 18.1595,0.409895
 L 17.6686,0.191328 L 12.121,3.39423 z
M 162.331,0.191328 L 161.84,0.409895 L 158.957,1.02276 L 156.009,1.02276 L 153.126,0.409895 L 150.433,-0.789041
 L 148.049,-2.52166 L 146.076,-4.71223 L 144.602,-7.26501 L 143.691,-10.0684 L 143.383,-13 L 143.691,-15.9316
 L 144.602,-18.735 L 146.076,-21.2878 L 148.049,-23.4783 L 150.433,-25.211 L 153.126,-26.4099 L 156.009,-27.0228
 L 158.957,-27.0228 L 161.84,-26.4099 L 164.533,-25.211 L 166.918,-23.4783 L 168.89,-21.2878 L 170.364,-18.735
 L 171.275,-15.9316 L 171.331,-15.3971 L 176.879,-12.1942 L 174.129,-7.43109 L 176.294,-6.18109 L 172.794,-0.11891
 L 170.629,-1.36891 L 167.879,3.39423 z
M 75,-12.9615 L 75,-22.9615 L 105,-22.9615 L 105,-12.9615 z
M 119.354,-4.56919 L 119.067,-4.63004 L 118.8,-4.74909 L 118.563,-4.92112 L 118.367,-5.13862 L 118.221,-5.39209
 L 118.131,-5.67045 L 118.1,-5.96152 L 118.131,-6.2526 L 118.221,-6.53095 L 118.367,-6.78442 L 118.563,-7.00193
 L 118.8,-7.17396 L 119.067,-7.293 L 119.354,-7.35385 L 119.646,-7.35385 L 119.933,-7.293 L 120.2,-7.17396
 L 120.437,-7.00193 L 120.633,-6.78442 L 120.779,-6.53095 L 120.869,-6.2526 L 120.9,-5.96152 L 120.869,-5.67045
 L 120.779,-5.39209 L 120.633,-5.13862 L 120.437,-4.92112 L 120.2,-4.74909 L 119.933,-4.63004 L 119.646,-4.56919
 z
M 60.3537,-4.56919 L 60.0674,-4.63004 L 59.8,-4.74909 L 59.5632,-4.92112 L 59.3674,-5.13862 L 59.221,-5.39209
 L 59.1306,-5.67045 L 59.1,-5.96152 L 59.1306,-6.2526 L 59.221,-6.53095 L 59.3674,-6.78442 L 59.5632,-7.00193
 L 59.8,-7.17396 L 60.0674,-7.293 L 60.3537,-7.35385 L 60.6463,-7.35385 L 60.9326,-7.293 L 61.2,-7.17396
 L 61.4368,-7.00193 L 61.6326,-6.78442 L 61.779,-6.53095 L 61.8694,-6.2526 L 61.9,-5.96152 L 61.8694,-5.67045
 L 61.779,-5.39209 L 61.6326,-5.13862 L 61.4368,-4.92112 L 61.2,-4.74909 L 60.9326,-4.63004 L 60.6463,-4.56919
 z
M 179.582,3.97809 L 178.764,3.80423 L 178,3.4641 L 177.323,2.97258 L 176.764,2.35114 L 176.346,1.62695
 L 176.087,0.831647 L 176,-0 L 176.087,-0.831647 L 176.346,-1.62695 L 176.764,-2.35114 L 177.323,-2.97258
 L 178,-3.4641 L 178.764,-3.80423 L 179.582,-3.97809 L 180.418,-3.97809 L 181.236,-3.80423 L 182,-3.4641
 L 182.677,-2.97258 L 183.236,-2.35114 L 183.654,-1.62695 L 183.913,-0.831647 L 184,-0 L 183.913,0.831647
 L 183.654,1.62695 L 183.236,2.35114 L 182.677,2.97258 L 182,3.4641 L 181.236,3.80423 L 180.418,3.97809
 z
M -0.418114,3.97809 L -1.23607,3.80423 L -2,3.4641 L -2.67652,2.97258 L -3.23607,2.35114 L -3.65418,1.62695
 L -3.91259,0.831647 L -4,-0 L -3.91259,-0.831647 L -3.65418,-1.62695 L -3.23607,-2.35114 L -2.67652,-2.97258
 L -2,-3.4641 L -1.23607,-3.80423 L -0.418114,-3.97809 L 0.418114,-3.97809 L 1.23607,-3.80423 L 2,-3.4641
 L 2.67652,-2.97258 L 3.23607,-2.35114 L 3.65418,-1.62695 L 3.91259,-0.831647 L 4,-0 L 3.91259,0.831647
 L 3.65418,1.62695 L 3.23607,2.35114 L 2.67652,2.97258 L 2,3.4641 L 1.23607,3.80423 L 0.418114,3.97809
 z
M 31.0576,4.14449 L 30.6486,4.05755 L 30.2667,3.88749 L 29.9284,3.64173 L 29.6486,3.33101 L 29.4396,2.96892
 L 29.3104,2.57127 L 29.2667,2.15544 L 29.3104,1.73962 L 29.4396,1.34197 L 29.6486,0.979872 L 29.9284,0.669154
 L 30.2667,0.423393 L 30.6486,0.253331 L 31.0576,0.1664 L 31.4757,0.1664 L 31.8847,0.253331 L 32.2667,0.423393
 L 32.6049,0.669154 L 32.8847,0.979874 L 33.0938,1.34197 L 33.223,1.73962 L 33.2667,2.15544 L 33.223,2.57127
 L 33.0937,2.96892 L 32.8847,3.33102 L 32.6049,3.64173 L 32.2667,3.88749 L 31.8847,4.05756 L 31.4757,4.14449
 z
M 148.115,4.05756 L 147.733,3.88749 L 147.395,3.64173 L 147.115,3.33102 L 146.906,2.96892 L 146.777,2.57127
 L 146.733,2.15544 L 146.777,1.73962 L 146.906,1.34197 L 147.115,0.979874 L 147.395,0.669154 L 147.733,0.423393
 L 148.115,0.253331 L 148.524,0.1664 L 148.942,0.1664 L 149.351,0.253331 L 149.733,0.423393 L 150.072,0.669154
 L 150.351,0.979872 L 150.56,1.34197 L 150.69,1.73962 L 150.733,2.15544 L 150.69,2.57127 L 150.56,2.96892
 L 150.351,3.33101 L 150.072,3.64173 L 149.733,3.88749 L 149.351,4.05755 L 148.942,4.14449 L 148.524,4.14449
 z
" stroke="black" fill="lightgray" stroke-width="0.5"/>
</svg>
