<?xml version="1.0" standalone="no"?>
<!DOCTYPE svg PUBLIC "-//W3C//DTD SVG 1.1//EN" "http://www.w3.org/Graphics/SVG/1.1/DTD/svg11.dtd">
<svg width="427mm" height="480mm" viewBox="-156 -240 427 480" xmlns="http://www.w3.org/2000/svg" version="1.1">
<title>OpenSCAD Model</title>
<path d="
M -103.109,238.042 L -95.47,234.641 L 250.94,34.641 L 257.705,29.7258 L 263.301,23.5114 L 267.482,16.2695
 L 270.066,8.31647 L 270.94,-0 L 270.066,-8.31647 L 267.482,-16.2695 L 263.301,-23.5114 L 257.705,-29.7258
 L 250.94,-34.641 L -95.47,-234.641 L -103.109,-238.042 L -111.289,-239.781 L -119.651,-239.781 L -127.831,-238.042
 L -135.47,-234.641 L -142.235,-229.726 L -147.831,-223.511 L -152.012,-216.269 L -154.596,-208.316 L -155.47,-200
 L -155.47,200 L -154.596,208.316 L -152.012,216.269 L -147.831,223.511 L -142.235,229.726 L -135.47,234.641
 L -127.831,238.042 L -119.651,239.781 L -111.289,239.781 z
M -117.383,-195.381 L -119.006,-196.464 L -120.089,-198.087 L -120.47,-200 L -120.089,-201.913 L -119.006,-203.536
 L -117.383,-204.619 L -115.47,-205 L -113.557,-204.619 L -111.935,-203.536 L -110.851,-201.913 L -110.47,-200
 L -110.851,-198.087 L -111.935,-196.464 L -113.557,-195.381 L -115.47,-195 z
M -2.6132,-75.1369 L -7.72542,-76.2236 L -12.5,-78.3493 L -16.7283,-81.4214 L -20.2254,-85.3054 L -22.8386,-89.8316
 L -24.4537,-94.8022 L -25,-100 L -24.4537,-105.198 L -22.8386,-110.168 L -20.2254,-114.695 L -16.7283,-118.579
 L -12.5,-121.651 L -7.72542,-123.776 L -2.6132,-124.863 L 2.6132,-124.863 L 7.72542,-123.776 L 12.5,-121.651
 L 16.7283,-118.579 L 20.2254,-114.695 L 22.8386,-110.168 L 24.4537,-105.198 L 25,-100 L 24.4537,-94.8022
 L 22.8386,-89.8316 L 20.2254,-85.3054 L 16.7283,-81.4214 L 12.5,-78.3493 L 7.72542,-76.2236 L 2.6132,-75.1369
 z
M -59,59 L -59,-59 L 166,-59 L 166,59 z
M 188.955,9.94521 L 186.91,9.51056 L 185,8.66025 L 183.309,7.43144 L 181.91,5.87784 L 180.865,4.06735
 L 180.219,2.07912 L 180,-0 L 180.219,-2.07912 L 180.865,-4.06735 L 181.91,-5.87784 L 183.309,-7.43144
 L 185,-8.66025 L 186.91,-9.51056 L 188.955,-9.94521 L 191.045,-9.94521 L 193.09,-9.51056 L 195,-8.66025
 L 196.691,-7.43144 L 198.09,-5.87784 L 199.135,-4.06735 L 199.781,-2.07912 L 200,-0 L 199.781,2.07912
 L 199.135,4.06735 L 198.09,5.87784 L 196.691,7.43144 L 195,8.66025 L 193.09,9.51056 L 191.045,9.94521
 z
M -84.0453,9.94521 L -86.0902,9.51056 L -88,8.66025 L -89.6913,7.43144 L -91.0902,5.87784 L -92.1355,4.06735
 L -92.7815,2.07912 L -93,-0 L -92.7815,-2.07912 L -92.1355,-4.06735 L -91.0902,-5.87784 L -89.6913,-7.43144
 L -88,-8.66025 L -86.0902,-9.51056 L -84.0453,-9.94521 L -81.9547,-9.94521 L -79.9098,-9.51056 L -78,-8.66025
 L -76.3087,-7.43144 L -74.9098,-5.87784 L -73.8645,-4.06735 L -73.2185,-2.07912 L -73,-0 L -73.2185,2.07912
 L -73.8645,4.06735 L -74.9098,5.87784 L -76.3087,7.43144 L -78,8.66025 L -79.9098,9.51056 L -81.9547,9.94521
 z
M 229.027,4.61938 L 227.405,3.53552 L 226.321,1.91341 L 225.94,-0 L 226.321,-1.91341 L 227.405,-3.53552
 L 229.027,-4.61938 L 230.94,-5 L 232.854,-4.61938 L 234.476,-3.53552 L 235.559,-1.91341 L 235.94,-0
 L 235.559,1.91341 L 234.476,3.53552 L 232.854,4.61938 L 230.94,5 z
M -2.6132,124.863 L -7.72542,123.776 L -12.5,121.651 L -16.7283,118.579 L -20.2254,114.695 L -22.8386,110.168
 L -24.4537,105.198 L -25,100 L -24.4537,94.8022 L -22.8386,89.8316 L -20.2254,85.3054 L -16.7283,81.4214
 L -12.5,78.3493 L -7.72542,76.2236 L -2.6132,75.1369 L 2.6132,75.1369 L 7.72542,76.2236 L 12.5,78.3493
 L 16.7283,81.4214 L 20.2254,85.3054 L 22.8386,89.8316 L 24.4537,94.8022 L 25,100 L 24.4537,105.198
 L 22.8386,110.168 L 20.2254,114.695 L 16.7283,118.579 L 12.5,121.651 L 7.72542,123.776 L 2.6132,124.863
 z
M -117.383,204.619 L -119.006,203.536 L -120.089,201.913 L -120.47,200 L -120.089,198.087 L -119.006,196.464
 L -117.383,195.381 L -115.47,195 L -113.557,195.381 L -111.935,196.464 L -110.851,198.087 L -110.47,200
 L -110.851,201.913 L -111.935,203.536 L -113.557,204.619 L -115.47,205 z
" stroke="black" fill="lightgray" stroke-width="0.5"/>
</svg>
