<?xml version="1.0" standalone="no"?>
<!DOCTYPE svg PUBLIC "-//W3C//DTD SVG 1.1//EN" "http://www.w3.org/Graphics/SVG/1.1/DTD/svg11.dtd">
<svg width="864mm" height="567mm" viewBox="0 -567 864 567" xmlns="http://www.w3.org/2000/svg" version="1.1">
<title>OpenSCAD Model</title>
<path d="
M 702,-324 L 756,-324 L 756,-297 L 810,-297 L 810,-324 L 837,-324
 L 837,-351 L 864,-351 L 864,-405 L 837,-405 L 837,-459 L 864,-459
 L 864,-513 L 837,-513 L 837,-540 L 810,-540 L 810,-567 L 756,-567
 L 756,-540 L 702,-540 L 702,-567 L 648,-567 L 648,-540 L 621,-540
 L 621,-513 L 594,-513 L 594,-459 L 621,-459 L 621,-405 L 594,-405
 L 594,-351 L 621,-351 L 621,-324 L 648,-324 L 648,-297 L 702,-297
 z
M 405,-324 L 459,-324 L 459,-297 L 513,-297 L 513,-324 L 540,-324
 L 540,-351 L 567,-351 L 567,-405 L 540,-405 L 540,-459 L 567,-459
 L 567,-513 L 540,-513 L 540,-540 L 513,-540 L 513,-567 L 459,-567
 L 459,-540 L 405,-540 L 405,-567 L 351,-567 L 351,-540 L 324,-540
 L 324,-513 L 297,-513 L 297,-459 L 324,-459 L 324,-405 L 297,-405
 L 297,-351 L 324,-351 L 324,-324 L 351,-324 L 351,-297 L 405,-297
 z
M 54,-324 L 108,-324 L 108,-297 L 162,-297 L 162,-324 L 216,-324
 L 216,-297 L 270,-297 L 270,-351 L 243,-351 L 243,-405 L 270,-405
 L 270,-459 L 243,-459 L 243,-513 L 270,-513 L 270,-567 L 216,-567
 L 216,-540 L 162,-540 L 162,-567 L 108,-567 L 108,-540 L 54,-540
 L 54,-567 L 0,-567 L 0,-513 L 27,-513 L 27,-459 L 0,-459
 L 0,-405 L 27,-405 L 27,-351 L 0,-351 L 0,-297 L 54,-297
 z
M 648,-27 L 702,-27 L 702,-0 L 756,-0 L 756,-27 L 810,-27
 L 810,-0 L 864,-0 L 864,-54 L 837,-54 L 837,-108 L 864,-108
 L 864,-162 L 837,-162 L 837,-216 L 864,-216 L 864,-270 L 810,-270
 L 810,-243 L 756,-243 L 756,-270 L 702,-270 L 702,-243 L 648,-243
 L 648,-270 L 594,-270 L 594,-216 L 621,-216 L 621,-162 L 594,-162
 L 594,-108 L 621,-108 L 621,-54 L 594,-54 L 594,-0 L 648,-0
 z
M 351,-27 L 405,-27 L 405,-0 L 459,-0 L 459,-27 L 513,-27
 L 513,-0 L 540,-0 L 540,-54 L 567,-54 L 567,-108 L 540,-108
 L 540,-162 L 567,-162 L 567,-216 L 540,-216 L 540,-270 L 513,-270
 L 513,-243 L 459,-243 L 459,-270 L 405,-270 L 405,-243 L 351,-243
 L 351,-270 L 324,-270 L 324,-216 L 297,-216 L 297,-162 L 324,-162
 L 324,-108 L 297,-108 L 297,-54 L 324,-54 L 324,-0 L 351,-0
 z
M 54,-27 L 108,-27 L 108,-0 L 162,-0 L 162,-27 L 216,-27
 L 216,-0 L 243,-0 L 243,-54 L 270,-54 L 270,-108 L 243,-108
 L 243,-162 L 270,-162 L 270,-216 L 243,-216 L 243,-270 L 216,-270
 L 216,-243 L 162,-243 L 162,-270 L 108,-270 L 108,-243 L 54,-243
 L 54,-270 L 27,-270 L 27,-216 L 0,-216 L 0,-162 L 27,-162
 L 27,-108 L 0,-108 L 0,-54 L 27,-54 L 27,-0 L 54,-0
 z
" stroke="black" fill="lightgray" stroke-width="0.5"/>
</svg>
