<?xml version="1.0" standalone="no"?>
<!DOCTYPE svg PUBLIC "-//W3C//DTD SVG 1.1//EN" "http://www.w3.org/Graphics/SVG/1.1/DTD/svg11.dtd">
<svg width="1940mm" height="1699mm" viewBox="-970 -1109 1940 1699" xmlns="http://www.w3.org/2000/svg" version="1.1">
<title>OpenSCAD Model</title>
<path d="
M 921.631,586.189 L 935,580.237 L 946.839,571.635 L 956.631,560.76 L 963.948,548.087 L 968.47,534.169
 L 970,519.615 L 968.47,505.061 L 963.948,491.144 L 56.6312,-1080.38 L 46.8391,-1091.25 L 35,-1099.85
 L 21.6312,-1105.8 L 7.31699,-1108.85 L -7.317,-1108.85 L -21.6312,-1105.8 L -35,-1099.85 L -46.8392,-1091.25
 L -56.6312,-1080.38 L -963.948,491.144 L -968.47,505.061 L -970,519.615 L -968.47,534.169 L -963.948,548.087
 L -956.631,560.76 L -946.839,571.635 L -935,580.237 L -921.631,586.189 L -907.317,589.232 L 907.317,589.232
 z
M -4.18115,-999.45 L -12.3607,-1001.19 L -20,-1004.59 L -26.7652,-1009.5 L -32.3607,-1015.72 L -36.5418,-1022.96
 L -39.1259,-1030.91 L -40,-1039.23 L -39.1259,-1047.55 L -36.5418,-1055.5 L -32.3607,-1062.74 L -26.7652,-1068.96
 L -20,-1073.87 L -12.3607,-1077.27 L -4.18115,-1079.01 L 4.18114,-1079.01 L 12.3607,-1077.27 L 20,-1073.87
 L 26.7652,-1068.96 L 32.3607,-1062.74 L 36.5418,-1055.5 L 39.1259,-1047.55 L 40,-1039.23 L 39.1259,-1030.91
 L 36.5418,-1022.96 L 32.3607,-1015.72 L 26.7652,-1009.5 L 20,-1004.59 L 12.3607,-1001.19 L 4.18114,-999.45
 z
M -904.181,559.396 L -912.361,557.657 L -920,554.256 L -926.765,549.341 L -932.361,543.127 L -936.542,535.885
 L -939.126,527.932 L -940,519.615 L -939.126,511.299 L -936.542,503.346 L -932.361,496.104 L -926.765,489.889
 L -920,484.974 L -912.361,481.573 L -904.181,479.834 L -895.819,479.834 L -887.639,481.573 L -880,484.974
 L -873.235,489.889 L -867.639,496.104 L -863.458,503.346 L -860.874,511.299 L -860,519.615 L -860.874,527.932
 L -863.458,535.885 L -867.639,543.127 L -873.235,549.341 L -880,554.256 L -887.639,557.657 L -895.819,559.396
 z
M 895.819,559.396 L 887.639,557.657 L 880,554.256 L 873.235,549.341 L 867.639,543.127 L 863.458,535.885
 L 860.874,527.932 L 860,519.615 L 860.874,511.299 L 863.458,503.346 L 867.639,496.104 L 873.235,489.889
 L 880,484.974 L 887.639,481.573 L 895.819,479.834 L 904.181,479.834 L 912.361,481.573 L 920,484.974
 L 926.765,489.889 L 932.361,496.104 L 936.542,503.346 L 939.126,511.299 L 940,519.615 L 939.126,527.932
 L 936.542,535.885 L 932.361,543.127 L 926.765,549.341 L 920,554.256 L 912.361,557.657 L 904.181,559.396
 z
" stroke="black" fill="lightgray" stroke-width="0.5"/>
</svg>
